SplineFontDB: 3.2
FontName: SimplySerif-Bold
FullName: Simply Serif Bold
FamilyName: Simply Serif
Weight: Bold
Copyright: Copyright (c) 2022-2026 by Wojciech Kalinowski "wmk69" with Reserved Font Name "SimplySerif-Bold".\nThis Font Software is licensed under the SIL Open Font License, Version 1.1.
Version: 1.0.0; 2022-02-18
ItalicAngle: 0
UnderlinePosition: -80
UnderlineWidth: 320
Ascent: 1638
Descent: 410
InvalidEm: 0
LayerCount: 2
Layer: 0 1 "Warstwa t+AUIA-a" 1
Layer: 1 1 "Plan pierwszy" 0
XUID: [1021 783 23647091 2952791]
StyleMap: 0x0020
FSType: 0
OS2Version: 3
OS2_WeightWidthSlopeOnly: 0
OS2_UseTypoMetrics: 1
CreationTime: 1260698820
ModificationTime: 1645187075
PfmFamily: 17
TTFWeight: 700
TTFWidth: 5
LineGap: 200
VLineGap: 0
Panose: 2 1 8 3 7 4 5 6 2 4
OS2TypoAscent: 2000
OS2TypoAOffset: 0
OS2TypoDescent: -500
OS2TypoDOffset: 0
OS2TypoLinegap: 200
OS2WinAscent: 2000
OS2WinAOffset: 0
OS2WinDescent: 500
OS2WinDOffset: 0
HheadAscent: 2000
HheadAOffset: 0
HheadDescent: -500
HheadDOffset: 0
OS2SubXSize: 1434
OS2SubYSize: 1331
OS2SubXOff: 0
OS2SubYOff: 287
OS2SupXSize: 1434
OS2SupYSize: 1331
OS2SupXOff: 0
OS2SupYOff: 977
OS2StrikeYSize: 102
OS2StrikeYPos: 512
OS2CapHeight: 1510
OS2XHeight: 1100
OS2Vendor: '    '
OS2CodePages: 20000093.00000000
OS2UnicodeRanges: 8000002f.4000204b.00000000.00000000
Lookup: 258 0 0 "'kern' Kerning poziomy w tablicy 0" { "Podtablica 'kern' Kerning poziomy w tablicy 0" [307,0,4] } ['kern' ('DFLT' <'dflt' > 'grek' <'dflt' > 'latn' <'dflt' > ) ]
MarkAttachClasses: 1
DEI: 91125
KernClass2: 75 58 "Podtablica 'kern' Kerning poziomy w tablicy 0"
 84 A Agrave Aacute Acircumflex Atilde Adieresis Aring Amacron Abreve Aogonek Aringacute
 17 B uni1E02 uni1E9E
 47 C Ccedilla Cacute Ccircumflex Cdotaccent Ccaron
 122 D O Q Eth Ograve Oacute Ocircumflex Otilde Odieresis Oslash Dcaron Dcroat Omacron Obreve Ohungarumlaut Oslashacute uni1E0A
 92 E AE Egrave Eacute Ecircumflex Edieresis Emacron Ebreve Edotaccent Eogonek Ecaron OE AEacute
 9 F uni1E1E

StartChar: .notdef
Encoding: 65536 -1 0
Width: 1114
Flags: W
HStem: 0 118<338 776> 1392 118<338 776>
VStem: 150 188<118 1392> 776 188<118 1392>
LayerCount: 2
Fore
SplineSet
150 0 m 1,0,-1
 150 1510 l 1,1,-1
 964 1510 l 1,2,-1
 964 0 l 1,3,-1
 150 0 l 1,0,-1
338 118 m 1,4,-1
 776 118 l 1,5,-1
 776 1392 l 1,6,-1
 338 1392 l 1,7,-1
 338 118 l 1,4,-1
EndSplineSet
Validated: 1
EndChar

StartChar: A
Encoding: 65 65 4
Width: 1593
GlyphClass: 2
Flags: W
HStem: 0 80<20 139.997 1453 1573> 605 140<532 885> 1430 80<500 619.524>
DStem2: 140 120 479 605 0.353544 0.935418<-59.1157 573.529 723.225 1224.51> 958 1434 709 1214 0.352528 -0.935801<118.097 619.033 768.729 1426.05>
LayerCount: 2
Fore
SplineSet
161 0 m 2,0,-1
 35 0 l 2,1,2
 20 0 20 0 20 15 c 2,3,-1
 20 65 l 2,4,5
 20 80 20 80 35 80 c 2,6,-1
 80 80 l 2,7,8
 125 80 125 80 140 120 c 2,9,-1
 620 1390 l 1,10,11
 605 1430 605 1430 560 1430 c 2,12,-1
 515 1430 l 2,13,14
 500 1430 500 1430 500 1445 c 2,15,-1
 500 1495 l 2,16,17
 500 1510 500 1510 515 1510 c 2,18,-1
 840 1510 l 2,19,20
 929 1510 929 1510 958 1434 c 2,21,-1
 1453 120 l 2,22,23
 1468 80 1468 80 1513 80 c 2,24,-1
 1558 80 l 2,25,26
 1573 80 1573 80 1573 65 c 2,27,-1
 1573 15 l 2,28,29
 1573 0 1573 0 1558 0 c 2,30,-1
 1255 0 l 2,31,32
 1166 0 1166 0 1137 76 c 2,33,-1
 938 605 l 1,34,-1
 479 605 l 1,35,-1
 279 76 l 2,36,37
 250 0 250 0 161 0 c 2,0,-1
885 745 m 1,38,-1
 709 1214 l 1,39,-1
 532 745 l 1,40,-1
 885 745 l 1,38,-1
EndSplineSet
Validated: 1
EndChar

StartChar: E
Encoding: 69 69 5
Width: 1251
GlyphClass: 2
Flags: W
HStem: 0 140<490 1064.62> 0 80<20 159.365> 685 140<490 828.267> 1370 140<490 1012.62> 1430 80<20 159.365>
VStem: 170 320<141.721 685 825 1368.28> 842 80<531 670.82 839.18 979>
LayerCount: 2
Fore
SplineSet
1022 0 m 2,0,1
 35 0 l 2,2,3
 20 0 20 0 20 15 c 2,4,-1
 20 65 l 2,5,6
 20 80 20 80 35 80 c 2,7,-1
 80 80 l 2,8,9
 170 80 170 80 170 170 c 2,10,-1
 170 1340 l 2,11,12
 170 1430 170 1430 80 1430 c 2,13,-1
 35 1430 l 2,14,15
 20 1430 20 1430 20 1445 c 2,16,-1
 20 1495 l 2,17,18
 20 1510 20 1510 35 1510 c 2,19,-1
 970 1510 l 2,20,21
 1039 1510 1039 1510 1077 1447 c 2,22,-1
 1187 1263 l 2,23,24
 1189 1260 1189 1260 1189 1256 c 0,25,26
 1189 1249 1189 1249 1180 1244 c 2,27,-1
 1129 1216 l 2,28,29
 1125 1214 1125 1214 1122 1214 c 0,30,31
 1115 1214 1115 1214 1109 1224 c 0,32,33
 1021 1370 1021 1370 852 1370 c 2,34,-1
 490 1370 l 1,35,-1
 490 825 l 1,36,-1
 752 825 l 2,37,38
 842 825 842 825 842 945 c 2,39,-1
 842 965 l 2,40,41
 842 979 842 979 856 979 c 2,42,-1
 906 979 l 2,43,44
 922 979 922 979 922 965 c 2,45,-1
 922 545 l 2,46,47
 922 531 922 531 906 531 c 2,48,-1
 856 531 l 2,49,50
 842 531 842 531 842 545 c 2,51,-1
 842 565 l 2,52,53
 842 685 842 685 752 685 c 2,54,-1
 490 685 l 1,55,-1
 490 140 l 1,56,-1
 904 140 l 2,57,58
 1073 140 1073 140 1161 286 c 0,59,60
 1167 296 1167 296 1174 296 c 0,61,62
 1177 296 1177 296 1181 294 c 2,63,-1
 1232 266 l 2,64,65
 1241 261 1241 261 1241 254 c 0,66,67
 1241 250 1241 250 1239 247 c 2,68,-1
 1129 63 l 2,69,70
 1091 0 1091 0 1022 0 c 2,0,1
EndSplineSet
Validated: 1
EndChar

StartChar: F
Encoding: 70 70 6
Width: 1199
GlyphClass: 2
Flags: W
HStem: 0 21G<210 450> 685 140<490 828.267> 1370 140<490 1012.62> 1430 80<20 159.365>
VStem: 170 320<4.9375 685 825 1368.28> 842 80<531 670.82 839.18 979>
LayerCount: 2
Fore
SplineSet
250 0 m 2,0,1
 170 0 170 0 170 79 c 2,2,-1
 170 1340 l 2,3,4
 170 1430 170 1430 80 1430 c 2,5,-1
 35 1430 l 2,6,7
 20 1430 20 1430 20 1445 c 2,8,-1
 20 1495 l 2,9,10
 20 1510 20 1510 35 1510 c 2,11,-1
 970 1510 l 2,12,13
 1039 1510 1039 1510 1077 1447 c 2,14,-1
 1187 1263 l 2,15,16
 1189 1260 1189 1260 1189 1256 c 0,17,18
 1189 1249 1189 1249 1180 1244 c 2,19,-1
 1129 1216 l 2,20,21
 1125 1214 1125 1214 1122 1214 c 0,22,23
 1115 1214 1115 1214 1109 1224 c 0,24,25
 1021 1370 1021 1370 852 1370 c 2,26,-1
 490 1370 l 1,27,-1
 490 825 l 1,28,-1
 752 825 l 2,29,30
 842 825 842 825 842 945 c 2,31,-1
 842 965 l 2,32,33
 842 979 842 979 856 979 c 2,34,-1
 906 979 l 2,35,36
 922 979 922 979 922 965 c 2,37,-1
 922 545 l 2,38,39
 922 531 922 531 906 531 c 2,40,-1
 856 531 l 2,41,42
 842 531 842 531 842 545 c 2,43,-1
 842 565 l 2,44,45
 842 685 842 685 752 685 c 2,46,-1
 490 685 l 1,47,-1
 490 79 l 2,48,49
 490 0 490 0 410 0 c 2,50,-1
 250 0 l 2,0,1
EndSplineSet
Validated: 1
EndChar

StartChar: H
Encoding: 72 72 7
Width: 1459
GlyphClass: 2
Flags: W
HStem: 0 80<20 159.365 1299.63 1439> 685 140<490 969> 1430 80<20 159.365 1299.63 1439>
VStem: 170 320<88.9014 685 825 1421.1> 969 320<88.9014 685 825 1421.1>
CounterMasks: 1 e0
LayerCount: 2
Fore
SplineSet
350 0 m 2,0,-1
 35 0 l 2,1,2
 20 0 20 0 20 15 c 2,3,-1
 20 65 l 2,4,5
 20 80 20 80 35 80 c 2,6,-1
 80 80 l 2,7,8
 170 80 170 80 170 170 c 2,9,-1
 170 1340 l 2,10,11
 170 1430 170 1430 80 1430 c 2,12,-1
 35 1430 l 2,13,14
 20 1430 20 1430 20 1445 c 2,15,-1
 20 1495 l 2,16,17
 20 1510 20 1510 35 1510 c 2,18,-1
 350 1510 l 2,19,20
 490 1510 490 1510 490 1370 c 2,21,-1
 490 825 l 1,22,-1
 969 825 l 1,23,-1
 969 1370 l 2,24,25
 969 1510 969 1510 1109 1510 c 2,26,-1
 1424 1510 l 2,27,28
 1439 1510 1439 1510 1439 1495 c 2,29,-1
 1439 1445 l 2,30,31
 1439 1430 1439 1430 1424 1430 c 2,32,-1
 1379 1430 l 2,33,34
 1289 1430 1289 1430 1289 1340 c 2,35,-1
 1289 170 l 2,36,37
 1289 80 1289 80 1379 80 c 2,38,-1
 1424 80 l 2,39,40
 1439 80 1439 80 1439 65 c 2,41,-1
 1439 15 l 2,42,43
 1439 0 1439 0 1424 0 c 2,44,-1
 1109 0 l 2,45,46
 969 0 969 0 969 140 c 2,47,-1
 969 685 l 1,48,-1
 490 685 l 1,49,-1
 490 140 l 2,50,51
 490 0 490 0 350 0 c 2,0,-1
EndSplineSet
Validated: 1
EndChar

StartChar: I
Encoding: 73 73 8
Width: 650
GlyphClass: 2
Flags: W
HStem: 0 21G<210 450> 1430 80<20 159.365>
VStem: 170 320<4.9375 1421.1>
LayerCount: 2
Fore
SplineSet
410 0 m 2,0,-1
 250 0 l 2,1,2
 170 0 170 0 170 79 c 2,3,-1
 170 1340 l 2,4,5
 170 1430 170 1430 80 1430 c 2,6,-1
 35 1430 l 2,7,8
 20 1430 20 1430 20 1445 c 2,9,-1
 20 1495 l 2,10,11
 20 1510 20 1510 35 1510 c 2,12,-1
 350 1510 l 2,13,14
 490 1510 490 1510 490 1370 c 2,15,-1
 490 79 l 2,16,17
 490 0 490 0 410 0 c 2,0,-1
EndSplineSet
Validated: 1
EndChar

StartChar: L
Encoding: 76 76 9
Width: 1241
GlyphClass: 2
Flags: W
HStem: 0 140<490 1054.62> 0 80<20 159.365> 1430 80<20 159.365>
VStem: 170 320<141.721 1421.1>
LayerCount: 2
Fore
SplineSet
1012 0 m 2,0,-1
 35 0 l 2,1,2
 20 0 20 0 20 15 c 2,3,-1
 20 65 l 2,4,5
 20 80 20 80 35 80 c 2,6,-1
 80 80 l 2,7,8
 170 80 170 80 170 170 c 2,9,-1
 170 1340 l 2,10,11
 170 1430 170 1430 80 1430 c 2,12,-1
 35 1430 l 2,13,14
 20 1430 20 1430 20 1445 c 2,15,-1
 20 1495 l 2,16,17
 20 1510 20 1510 35 1510 c 2,18,-1
 350 1510 l 2,19,20
 490 1510 490 1510 490 1370 c 2,21,-1
 490 140 l 1,22,-1
 894 140 l 2,23,24
 1063 140 1063 140 1151 286 c 0,25,26
 1157 296 1157 296 1164 296 c 0,27,28
 1167 296 1167 296 1171 294 c 2,29,-1
 1222 266 l 2,30,31
 1231 261 1231 261 1231 254 c 0,32,33
 1231 250 1231 250 1229 247 c 2,34,-1
 1119 63 l 2,35,36
 1081 0 1081 0 1012 0 c 2,0,-1
EndSplineSet
Validated: 1
EndChar

StartChar: O
Encoding: 79 79 10
Width: 1554
GlyphClass: 2
Flags: W
HStem: -20 120<638.735 916.515> 1410 120<637.656 915.186>
VStem: 60 349<470.863 1041.14> 1145 349<469.36 1039.14>
LayerCount: 2
Fore
SplineSet
778 100 m 0,0,1
 932 100 932 100 1033 270 c 0,2,3
 1145 460 1145 460 1145 755 c 0,4,5
 1145 1059 1145 1059 1033 1240 c 0,6,7
 927 1410 927 1410 776 1410 c 0,8,9
 622 1410 622 1410 521 1240 c 24,10,11
 409 1050 409 1050 409 755 c 0,12,13
 409 451 409 451 521 270 c 0,14,15
 626 100 626 100 778 100 c 0,0,1
777 -20 m 128,-1,17
 449 -20 449 -20 251 211 c 0,18,19
 60 435 60 435 60 755 c 0,20,21
 60 1077 60 1077 251 1299 c 0,22,23
 450 1530 450 1530 777 1530 c 0,24,25
 1106 1530 1106 1530 1303 1299 c 0,26,27
 1494 1075 1494 1075 1494 755 c 128,-1,28
 1494 435 1494 435 1303 211 c 0,29,16
 1105 -20 1105 -20 777 -20 c 128,-1,17
EndSplineSet
Validated: 1
EndChar

StartChar: V
Encoding: 86 86 11
Width: 1597
GlyphClass: 2
Flags: W
HStem: 0 21G<662.5 938.5> 1430 80<20 139.997 1457 1577>
DStem2: 458 1434 140 1390 0.3251 -0.94568<-88.6897 1325.08> 887 180 1009 80 0.323586 0.946199<0 1386.28>
LayerCount: 2
Fore
SplineSet
707 0 m 2,0,1
 618 0 618 0 590 81 c 2,2,-1
 140 1390 l 2,3,4
 126 1430 126 1430 80 1430 c 2,5,-1
 35 1430 l 2,6,7
 20 1430 20 1430 20 1445 c 2,8,-1
 20 1495 l 2,9,10
 20 1510 20 1510 35 1510 c 2,11,-1
 340 1510 l 2,12,13
 432 1510 432 1510 458 1434 c 2,14,-1
 887 180 l 1,15,-1
 1317 1434 l 2,16,17
 1343 1510 1343 1510 1435 1510 c 2,18,-1
 1562 1510 l 2,19,20
 1577 1510 1577 1510 1577 1495 c 2,21,-1
 1577 1445 l 2,22,23
 1577 1430 1577 1430 1562 1430 c 2,24,-1
 1517 1430 l 2,25,26
 1471 1430 1471 1430 1457 1390 c 2,27,-1
 1009 80 l 2,28,29
 982 0 982 0 895 0 c 2,30,-1
 707 0 l 2,0,1
EndSplineSet
Validated: 1
EndChar

StartChar: W
Encoding: 87 87 12
Width: 2164
GlyphClass: 2
Flags: W
HStem: 0 21G<662.5 928.5 1239.5 1505.5> 1430 80<20 139.997 597 716.997 1447 1567 2024 2144>
DStem2: 458 1434 140 1390 0.3251 -0.94568<-88.6897 1325.08> 1025 1434 717 1390 0.3251 -0.94568<-89.3969 450.324 675.486 842.452 1067.61 1325.35> 887 180 999 80 0.323586 0.946199<0 200.622 875.351 1382.6> 1454 180 1576 80 0.323586 0.946199<0 1386.28>
LayerCount: 2
Fore
SplineSet
707 0 m 2,0,1
 618 0 618 0 590 81 c 2,2,-1
 140 1390 l 2,3,4
 126 1430 126 1430 80 1430 c 2,5,-1
 35 1430 l 2,6,7
 20 1430 20 1430 20 1445 c 2,8,-1
 20 1495 l 2,9,10
 20 1510 20 1510 35 1510 c 2,11,-1
 340 1510 l 2,12,13
 432 1510 432 1510 458 1434 c 2,14,-1
 887 180 l 1,15,-1
 1010 538 l 1,16,-1
 717 1390 l 2,17,18
 703 1430 703 1430 657 1430 c 2,19,-1
 612 1430 l 2,20,21
 597 1430 597 1430 597 1445 c 2,22,-1
 597 1495 l 2,23,24
 597 1510 597 1510 612 1510 c 2,25,-1
 907 1510 l 2,26,27
 999 1510 999 1510 1025 1434 c 2,28,-1
 1171 1008 l 1,29,-1
 1317 1434 l 2,30,31
 1343 1510 1343 1510 1435 1510 c 2,32,-1
 1552 1510 l 2,33,34
 1567 1510 1567 1510 1567 1495 c 2,35,-1
 1567 1445 l 2,36,37
 1567 1430 1567 1430 1552 1430 c 2,38,-1
 1507 1430 l 2,39,40
 1461 1430 1461 1430 1447 1390 c 2,41,-1
 1244 795 l 1,42,-1
 1454 180 l 1,43,-1
 1884 1434 l 2,44,45
 1910 1510 1910 1510 2002 1510 c 2,46,-1
 2129 1510 l 2,47,48
 2144 1510 2144 1510 2144 1495 c 2,49,-1
 2144 1445 l 2,50,51
 2144 1430 2144 1430 2129 1430 c 2,52,-1
 2084 1430 l 2,53,54
 2038 1430 2038 1430 2024 1390 c 2,55,-1
 1576 80 l 2,56,57
 1549 0 1549 0 1462 0 c 2,58,-1
 1284 0 l 2,59,60
 1195 0 1195 0 1167 81 c 2,61,-1
 1083 325 l 1,62,-1
 999 80 l 2,63,64
 972 0 972 0 885 0 c 2,65,-1
 707 0 l 2,0,1
EndSplineSet
Validated: 1
EndChar

StartChar: Z
Encoding: 90 90 13
Width: 1226
GlyphClass: 2
Flags: W
HStem: 0 140<410 1029.62> 1370 140<197.381 759>
DStem2: 39 104 410 140 0.494363 0.869255<214.702 1456.42>
LayerCount: 2
Fore
SplineSet
95 0 m 2,0,1
 20 0 20 0 20 45 c 0,2,3
 20 71 20 71 39 104 c 2,4,-1
 759 1370 l 1,5,-1
 358 1370 l 2,6,7
 189 1370 189 1370 101 1224 c 0,8,9
 95 1214 95 1214 88 1214 c 0,10,11
 85 1214 85 1214 81 1216 c 2,12,-1
 30 1244 l 2,13,14
 21 1249 21 1249 21 1256 c 0,15,16
 21 1260 21 1260 23 1263 c 2,17,-1
 133 1447 l 2,18,19
 171 1510 171 1510 240 1510 c 2,20,-1
 1074 1510 l 2,21,22
 1149 1510 1149 1510 1149 1465 c 0,23,24
 1149 1439 1149 1439 1130 1406 c 2,25,-1
 410 140 l 1,26,-1
 869 140 l 2,27,28
 1038 140 1038 140 1126 286 c 0,29,30
 1132 296 1132 296 1139 296 c 0,31,32
 1142 296 1142 296 1146 294 c 2,33,-1
 1197 266 l 2,34,35
 1206 261 1206 261 1206 254 c 0,36,37
 1206 250 1206 250 1204 247 c 2,38,-1
 1094 63 l 2,39,40
 1056 0 1056 0 987 0 c 2,41,-1
 95 0 l 2,0,1
EndSplineSet
Validated: 19457
EndChar

StartChar: c
Encoding: 99 99 14
Width: 1145
GlyphClass: 2
Flags: W
HStem: -20 111<524.512 835.738> 1009 111<520.686 837.188>
VStem: 60 313<311.9 788.192> 972 83<248.047 410 690 851.953>
LayerCount: 2
Fore
SplineSet
613 -20 m 0,0,1
 377 -20 377 -20 231 123 c 0,2,3
 60 292 60 292 60 550 c 0,4,5
 60 812 60 812 231 976 c 0,6,7
 381 1120 381 1120 613 1120 c 0,8,9
 859 1120 859 1120 1021 996 c 0,10,11
 1055 970 1055 970 1055 922 c 2,12,-1
 1055 705 l 2,13,14
 1055 690 1055 690 1040 690 c 2,15,-1
 987 690 l 2,16,17
 974 690 974 690 972 705 c 0,18,19
 931 1009 931 1009 674 1009 c 0,20,21
 538 1009 538 1009 464 913 c 0,22,23
 373 791 373 791 373 550 c 0,24,25
 373 311 373 311 461 195 c 0,26,27
 539 91 539 91 674 91 c 0,28,29
 931 91 931 91 972 395 c 0,30,31
 974 410 974 410 987 410 c 2,32,-1
 1040 410 l 2,33,34
 1055 410 1055 410 1055 395 c 2,35,-1
 1055 178 l 2,36,37
 1055 130 1055 130 1021 104 c 0,38,39
 866 -20 866 -20 613 -20 c 0,0,1
EndSplineSet
Validated: 1
EndChar

StartChar: d
Encoding: 100 100 15
Width: 1272
GlyphClass: 2
Flags: W
HStem: -20 111<505.243 710.858> 0 80<1112.63 1252> 1009 111<498.806 712.413> 1430 80<652 791.365>
VStem: 60 313<313.776 792.118> 802 300<191.775 912.991 1020 1421.1>
LayerCount: 2
Fore
SplineSet
942 0 m 2,0,1
 832 0 832 0 808 87 c 1,2,3
 732 -20 732 -20 583 -20 c 0,4,5
 377 -20 377 -20 231 123 c 0,6,7
 60 292 60 292 60 550 c 0,8,9
 60 817 60 817 231 976 c 0,10,11
 386 1120 386 1120 583 1120 c 0,12,13
 724 1120 724 1120 802 1020 c 1,14,-1
 802 1340 l 2,15,16
 802 1430 802 1430 712 1430 c 2,17,-1
 667 1430 l 2,18,19
 652 1430 652 1430 652 1445 c 2,20,-1
 652 1495 l 2,21,22
 652 1510 652 1510 667 1510 c 2,23,-1
 962 1510 l 2,24,25
 1102 1510 1102 1510 1102 1370 c 2,26,-1
 1102 170 l 2,27,28
 1102 80 1102 80 1192 80 c 2,29,-1
 1237 80 l 2,30,31
 1252 80 1252 80 1252 65 c 2,32,-1
 1252 15 l 2,33,34
 1252 0 1252 0 1237 0 c 2,35,-1
 942 0 l 2,0,1
613 91 m 0,36,37
 691 91 691 91 760 195 c 0,38,39
 787 235 787 235 802 305 c 1,40,-1
 802 795 l 1,41,42
 786 870 786 870 757 913 c 0,43,44
 693 1009 693 1009 612 1009 c 0,45,46
 517 1009 517 1009 454 913 c 0,47,48
 373 791 373 791 373 550 c 0,49,50
 373 308 373 308 451 195 c 0,51,52
 523 91 523 91 613 91 c 0,36,37
EndSplineSet
Validated: 1
EndChar

StartChar: e
Encoding: 101 101 16
Width: 1226
GlyphClass: 2
Flags: W
HStem: -20 111<524.512 835.738> 490 120<375 852> 1009 111<501.02 724.057>
VStem: 60 314<314.25 490 610 789> 852 314<610 790.5> 972 83<248.047 410>
CounterMasks: 1 e0
LayerCount: 2
Fore
SplineSet
613 -20 m 0,0,1
 377 -20 377 -20 231 123 c 0,2,3
 60 292 60 292 60 550 c 0,4,5
 60 815 60 815 231 976 c 0,6,7
 384 1120 384 1120 613 1120 c 0,8,9
 840 1120 840 1120 995 976 c 0,10,11
 1166 818 1166 818 1166 550 c 0,12,13
 1166 490 1166 490 1106 490 c 2,14,-1
 374 490 l 1,15,16
 384 296 384 296 461 195 c 0,17,18
 539 91 539 91 674 91 c 0,19,20
 931 91 931 91 972 395 c 0,21,22
 974 410 974 410 987 410 c 2,23,-1
 1040 410 l 2,24,25
 1055 410 1055 410 1055 395 c 2,26,-1
 1055 178 l 2,27,28
 1055 130 1055 130 1021 104 c 0,29,30
 866 -20 866 -20 613 -20 c 0,0,1
375 610 m 1,31,-1
 852 610 l 1,32,33
 843 807 843 807 772 913 c 0,34,35
 707 1009 707 1009 612 1009 c 128,-1,36
 517 1009 517 1009 454 913 c 0,37,38
 385 807 385 807 375 610 c 1,31,-1
EndSplineSet
Validated: 19457
EndChar

StartChar: h
Encoding: 104 104 17
Width: 1348
GlyphClass: 2
Flags: W
HStem: 0 80<1188.63 1328> 951 169<701.506 939.5> 1430 80<20 159.365>
VStem: 170 300<6.24902 439.85 574 1418.9> 878 300<88.9014 901.552>
LayerCount: 2
Fore
SplineSet
250 0 m 2,0,1
 170 0 170 0 170 79 c 2,2,-1
 170 1340 l 2,3,4
 170 1430 170 1430 80 1430 c 2,5,-1
 35 1430 l 2,6,7
 20 1430 20 1430 20 1445 c 2,8,-1
 20 1495 l 2,9,10
 20 1510 20 1510 35 1510 c 2,11,-1
 330 1510 l 2,12,13
 470 1510 470 1510 470 1372 c 2,14,-1
 470 574 l 1,15,16
 531 1120 531 1120 868 1120 c 0,17,18
 1011 1120 1011 1120 1092 1036 c 0,19,20
 1178 947 1178 947 1178 770 c 2,21,-1
 1178 170 l 2,22,23
 1178 80 1178 80 1268 80 c 2,24,-1
 1313 80 l 2,25,26
 1328 80 1328 80 1328 65 c 2,27,-1
 1328 15 l 2,28,29
 1328 0 1328 0 1313 0 c 2,30,-1
 1018 0 l 2,31,32
 878 0 878 0 878 140 c 2,33,-1
 878 770 l 2,34,35
 878 857 878 857 855 903 c 0,36,37
 831 951 831 951 777 951 c 0,38,39
 548 951 548 951 470 79 c 0,40,41
 463 0 463 0 390 0 c 2,42,-1
 250 0 l 2,0,1
EndSplineSet
Validated: 1
EndChar

StartChar: i
Encoding: 105 105 18
Width: 640
GlyphClass: 2
Flags: W
HStem: 0 80<480.635 620> 1020 80<20 159.365> 1180 364<182.131 416.338>
VStem: 120 360<1244.3 1481.73> 170 300<88.9014 1011.1>
LayerCount: 2
Fore
SplineSet
300 1544 m 0,0,1
 376 1544 376 1544 428 1491 c 128,-1,2
 480 1438 480 1438 480 1363 c 0,3,4
 480 1289 480 1289 427 1234 c 0,5,6
 375 1180 375 1180 300 1180 c 0,7,8
 223 1180 223 1180 171.5 1234 c 128,-1,9
 120 1288 120 1288 120 1362 c 0,10,11
 120 1438 120 1438 172 1490 c 0,12,13
 225 1544 225 1544 300 1544 c 0,0,1
310 0 m 2,14,15
 170 0 170 0 170 140 c 2,16,-1
 170 930 l 2,17,18
 170 1020 170 1020 80 1020 c 2,19,-1
 35 1020 l 2,20,21
 20 1020 20 1020 20 1035 c 2,22,-1
 20 1085 l 2,23,24
 20 1100 20 1100 35 1100 c 2,25,-1
 330 1100 l 2,26,27
 470 1100 470 1100 470 960 c 2,28,-1
 470 170 l 2,29,30
 470 80 470 80 560 80 c 2,31,-1
 605 80 l 2,32,33
 620 80 620 80 620 65 c 2,34,-1
 620 15 l 2,35,36
 620 0 620 0 605 0 c 2,37,-1
 310 0 l 2,14,15
EndSplineSet
Validated: 1
EndChar

StartChar: j
Encoding: 106 106 19
Width: 630
GlyphClass: 2
Flags: W
HStem: -410 21G<40 270> 1020 80<20 159.365> 1180 364<182.131 416.338>
VStem: 120 360<1244.3 1481.73> 170 300<-47.9688 1011.1>
LayerCount: 2
Fore
SplineSet
300 1544 m 0,0,1
 376 1544 376 1544 428 1491 c 128,-1,2
 480 1438 480 1438 480 1363 c 0,3,4
 480 1289 480 1289 427 1234 c 0,5,6
 375 1180 375 1180 300 1180 c 0,7,8
 223 1180 223 1180 171.5 1234 c 128,-1,9
 120 1288 120 1288 120 1362 c 0,10,11
 120 1438 120 1438 172 1490 c 0,12,13
 225 1544 225 1544 300 1544 c 0,0,1
470 200 m 2,14,15
 470 -220 470 -220 70 -410 c 1,16,-1
 40 -410 l 1,17,18
 170 -146 170 -146 170 200 c 2,19,-1
 170 930 l 2,20,21
 170 1020 170 1020 80 1020 c 2,22,-1
 35 1020 l 2,23,24
 20 1020 20 1020 20 1035 c 2,25,-1
 20 1085 l 2,26,27
 20 1100 20 1100 35 1100 c 2,28,-1
 330 1100 l 2,29,30
 470 1100 470 1100 470 960 c 2,31,-1
 470 200 l 2,14,15
EndSplineSet
Validated: 1
EndChar

StartChar: k
Encoding: 107 107 20
Width: 1167
GlyphClass: 2
Flags: W
HStem: 0 80<1027 1147> 1020 80<998.49 1116> 1430 80<20 159.365>
VStem: 170 300<4.9375 156 386 1421.1>
DStem2: 470 386 580 329 0.538568 0.842582<0 11.2153 329.661 859.497> 752 597 580 329 0.49946 -0.866337<146.271 546.378>
LayerCount: 2
Fore
SplineSet
250 0 m 2,0,1
 170 0 170 0 170 79 c 2,2,-1
 170 1340 l 2,3,4
 170 1430 170 1430 80 1430 c 2,5,-1
 35 1430 l 2,6,7
 20 1430 20 1430 20 1445 c 2,8,-1
 20 1495 l 2,9,10
 20 1510 20 1510 35 1510 c 2,11,-1
 330 1510 l 2,12,13
 470 1510 470 1510 470 1370 c 2,14,-1
 470 386 l 1,15,-1
 882 1033 l 2,16,17
 925 1100 925 1100 1006 1100 c 2,18,-1
 1101 1100 l 2,19,20
 1116 1100 1116 1100 1116 1085 c 2,21,-1
 1116 1035 l 2,22,23
 1116 1020 1116 1020 1101 1020 c 2,24,-1
 1056 1020 l 2,25,26
 1022 1020 1022 1020 1005 993 c 2,27,-1
 752 597 l 1,28,-1
 1027 120 l 2,29,30
 1050 80 1050 80 1087 80 c 2,31,-1
 1132 80 l 2,32,33
 1147 80 1147 80 1147 65 c 2,34,-1
 1147 15 l 2,35,36
 1147 0 1147 0 1132 0 c 2,37,-1
 855 0 l 2,38,39
 770 0 770 0 727 74 c 2,40,-1
 580 329 l 1,41,-1
 470 156 l 1,42,-1
 470 79 l 2,43,44
 470 0 470 0 390 0 c 2,45,-1
 250 0 l 2,0,1
EndSplineSet
Validated: 1
EndChar

StartChar: l
Encoding: 108 108 21
Width: 640
GlyphClass: 2
Flags: W
HStem: 0 80<480.635 620> 1430 80<20 159.365>
VStem: 170 300<88.9014 1421.1>
LayerCount: 2
Fore
SplineSet
310 0 m 2,0,1
 170 0 170 0 170 140 c 2,2,-1
 170 1340 l 2,3,4
 170 1430 170 1430 80 1430 c 2,5,-1
 35 1430 l 2,6,7
 20 1430 20 1430 20 1445 c 2,8,-1
 20 1495 l 2,9,10
 20 1510 20 1510 35 1510 c 2,11,-1
 330 1510 l 2,12,13
 470 1510 470 1510 470 1370 c 2,14,-1
 470 170 l 2,15,16
 470 80 470 80 560 80 c 2,17,-1
 605 80 l 2,18,19
 620 80 620 80 620 65 c 2,20,-1
 620 15 l 2,21,22
 620 0 620 0 605 0 c 2,23,-1
 310 0 l 2,0,1
EndSplineSet
Validated: 1
EndChar

StartChar: m
Encoding: 109 109 22
Width: 2056
GlyphClass: 2
Flags: W
HStem: 0 80<1896.63 2036> 951 169<701.506 939.5 1409.51 1647.5> 1020 80<20 159.365>
VStem: 170 300<6.24902 439.85 574 1008.9> 878 300<6.24902 439.85 574 901.552> 1586 300<88.9014 901.552>
CounterMasks: 1 1c
LayerCount: 2
Fore
SplineSet
250 0 m 2,0,1
 170 0 170 0 170 79 c 2,2,-1
 170 930 l 2,3,4
 170 1020 170 1020 80 1020 c 2,5,-1
 35 1020 l 2,6,7
 20 1020 20 1020 20 1035 c 2,8,-1
 20 1085 l 2,9,10
 20 1100 20 1100 35 1100 c 2,11,-1
 330 1100 l 2,12,13
 470 1100 470 1100 470 962 c 2,14,-1
 470 574 l 1,15,16
 531 1120 531 1120 868 1120 c 0,17,18
 1011 1120 1011 1120 1092 1036 c 0,19,20
 1178 947 1178 947 1178 770 c 2,21,-1
 1178 574 l 1,22,23
 1239 1120 1239 1120 1576 1120 c 0,24,25
 1719 1120 1719 1120 1800 1036 c 0,26,27
 1886 947 1886 947 1886 770 c 2,28,-1
 1886 170 l 2,29,30
 1886 80 1886 80 1976 80 c 2,31,32
 2021 80 l 2,33,34
 2036 80 2036 80 2036 65 c 2,35,-1
 2036 15 l 2,36,37
 2036 0 2036 0 2021 0 c 2,38,-1
 1726 0 l 2,39,40
 1586 0 1586 0 1586 140 c 2,41,-1
 1586 770 l 2,42,43
 1586 857 1586 857 1563 903 c 0,44,45
 1539 951 1539 951 1485 951 c 0,46,47
 1256 951 1256 951 1178 79 c 0,48,49
 1171 0 1171 0 1098 0 c 2,50,-1
 958 0 l 2,51,52
 878 0 878 0 878 79 c 2,53,-1
 878 770 l 2,54,55
 878 857 878 857 855 903 c 0,56,57
 831 951 831 951 777 951 c 0,58,59
 548 951 548 951 470 79 c 0,60,61
 463 0 463 0 390 0 c 2,62,-1
 250 0 l 2,0,1
EndSplineSet
Validated: 1
EndChar

StartChar: n
Encoding: 110 110 23
Width: 1348
GlyphClass: 2
Flags: W
HStem: 0 80<1188.63 1328> 951 169<701.506 939.5> 1020 80<20 159.365>
VStem: 170 300<6.24902 439.85 574 1008.9> 878 300<88.9014 901.552>
LayerCount: 2
Fore
SplineSet
250 0 m 2,0,1
 170 0 170 0 170 79 c 2,2,-1
 170 930 l 2,3,4
 170 1020 170 1020 80 1020 c 2,5,-1
 35 1020 l 2,6,7
 20 1020 20 1020 20 1035 c 2,8,-1
 20 1085 l 2,9,10
 20 1100 20 1100 35 1100 c 2,11,-1
 330 1100 l 2,12,13
 470 1100 470 1100 470 962 c 2,14,-1
 470 574 l 1,15,16
 531 1120 531 1120 868 1120 c 0,17,18
 1011 1120 1011 1120 1092 1036 c 0,19,20
 1178 947 1178 947 1178 770 c 2,21,-1
 1178 170 l 2,22,23
 1178 80 1178 80 1268 80 c 2,24,-1
 1313 80 l 2,25,26
 1328 80 1328 80 1328 65 c 2,27,-1
 1328 15 l 2,28,29
 1328 0 1328 0 1313 0 c 2,30,-1
 1018 0 l 2,31,32
 878 0 878 0 878 140 c 2,33,-1
 878 770 l 2,34,35
 878 857 878 857 855 903 c 0,36,37
 831 951 831 951 777 951 c 0,38,39
 548 951 548 951 470 79 c 0,40,41
 463 0 463 0 390 0 c 2,42,-1
 250 0 l 2,0,1
EndSplineSet
Validated: 1
EndChar

StartChar: o
Encoding: 111 111 24
Width: 1226
GlyphClass: 2
Flags: W
HStem: -20 111<504.973 721.612> 1009 111<498.138 723.836>
VStem: 60 313<312.141 791.618> 853 313<313.007 791.626>
LayerCount: 2
Fore
SplineSet
613 91 m 0,0,1
 704 91 704 91 775 195 c 0,2,3
 853 313 853 313 853 550 c 0,4,5
 853 790 853 790 772 913 c 0,6,7
 706 1009 706 1009 612 1009 c 0,8,9
 517 1009 517 1009 454 913 c 0,10,11
 373 791 373 791 373 550 c 0,12,13
 373 312 373 312 451 195 c 0,14,15
 523 91 523 91 613 91 c 0,0,1
613 -20 m 0,16,17
 377 -20 377 -20 231 123 c 0,18,19
 60 292 60 292 60 550 c 0,20,21
 60 815 60 815 231 976 c 0,22,23
 386 1120 386 1120 613 1120 c 128,-1,24
 840 1120 840 1120 995 976 c 0,25,26
 1166 816 1166 816 1166 550 c 0,27,28
 1166 294 1166 294 995 124 c 0,29,30
 851 -20 851 -20 613 -20 c 0,16,17
EndSplineSet
Validated: 1
EndChar

StartChar: r
Encoding: 114 114 25
Width: 1198
GlyphClass: 2
Flags: W
HStem: 0 21G<210 426.5> 951 169<701.506 939.5> 1020 80<20 159.365>
VStem: 170 300<6.24902 439.85 574 1008.9> 878 300<695.938 901.552>
LayerCount: 2
Fore
SplineSet
250 0 m 2,0,1
 170 0 170 0 170 79 c 2,2,-1
 170 930 l 2,3,4
 170 1020 170 1020 80 1020 c 2,5,-1
 35 1020 l 2,6,7
 20 1020 20 1020 20 1035 c 2,8,-1
 20 1085 l 2,9,10
 20 1100 20 1100 35 1100 c 2,11,-1
 330 1100 l 2,12,13
 470 1100 470 1100 470 962 c 2,14,-1
 470 574 l 1,15,16
 531 1120 531 1120 868 1120 c 0,17,18
 1011 1120 1011 1120 1092 1036 c 0,19,20
 1178 947 1178 947 1178 770 c 8,21,22
 1178 691 1178 691 1098 691 c 2,23,-1
 958 691 l 2,24,25
 878 691 878 691 878 770 c 16,26,27
 878 857 878 857 855 903 c 0,28,29
 831 951 831 951 777 951 c 0,30,31
 548 951 548 951 470 79 c 0,32,33
 463 0 463 0 390 0 c 2,34,-1
 250 0 l 2,0,1
EndSplineSet
Validated: 1
EndChar

StartChar: t
Encoding: 116 116 26
Width: 780
GlyphClass: 2
Flags: W
HStem: 0 80<540.635 680> 980 120<20 230 530 760> 1430 80<80 219.365>
VStem: 230 300<88.9014 980 1100 1421.1>
LayerCount: 2
Fore
SplineSet
370 0 m 2,0,1
 230 0 230 0 230 140 c 2,2,-1
 230 980 l 1,3,-1
 35 980 l 2,4,5
 20 980 20 980 20 995 c 2,6,-1
 20 1085 l 2,7,8
 20 1100 20 1100 35 1100 c 2,9,-1
 230 1100 l 1,10,-1
 230 1340 l 2,11,12
 230 1430 230 1430 140 1430 c 2,13,-1
 95 1430 l 2,14,15
 80 1430 80 1430 80 1445 c 2,16,-1
 80 1495 l 2,17,18
 80 1510 80 1510 95 1510 c 2,19,-1
 390 1510 l 2,20,21
 530 1510 530 1510 530 1370 c 2,22,-1
 530 1100 l 1,23,-1
 745 1100 l 2,24,25
 760 1100 760 1100 760 1085 c 2,26,-1
 760 995 l 2,27,28
 760 980 760 980 745 980 c 2,29,-1
 530 980 l 1,30,-1
 530 170 l 2,31,32
 530 80 530 80 620 80 c 2,33,-1
 665 80 l 2,34,35
 680 80 680 80 680 65 c 2,36,-1
 680 15 l 2,37,38
 680 0 680 0 665 0 c 2,39,-1
 370 0 l 2,0,1
EndSplineSet
Validated: 1
EndChar

StartChar: u
Encoding: 117 117 27
Width: 1348
GlyphClass: 2
Flags: W
HStem: -20 169<408.5 646.494> 0 80<1188.63 1328> 1020 80<20 159.365>
VStem: 170 300<198.448 1011.1> 878 300<91.1016 526 660.15 1093.75>
LayerCount: 2
Fore
SplineSet
1018 0 m 2,0,1
 878 0 878 0 878 138 c 2,2,-1
 878 526 l 1,3,4
 817 -20 817 -20 480 -20 c 0,5,6
 337 -20 337 -20 256 64 c 0,7,8
 170 153 170 153 170 330 c 2,9,-1
 170 930 l 2,10,11
 170 1020 170 1020 80 1020 c 2,12,-1
 35 1020 l 2,13,14
 20 1020 20 1020 20 1035 c 2,15,-1
 20 1085 l 2,16,17
 20 1100 20 1100 35 1100 c 2,18,-1
 330 1100 l 2,19,20
 470 1100 470 1100 470 960 c 2,21,-1
 470 330 l 2,22,23
 470 243 470 243 493 197 c 0,24,25
 517 149 517 149 571 149 c 0,26,27
 800 149 800 149 878 1021 c 0,28,29
 885 1100 885 1100 958 1100 c 2,30,-1
 1098 1100 l 2,31,32
 1178 1100 1178 1100 1178 1021 c 2,33,-1
 1178 170 l 2,34,35
 1178 80 1178 80 1268 80 c 2,36,-1
 1313 80 l 2,37,38
 1328 80 1328 80 1328 65 c 2,39,-1
 1328 15 l 2,40,41
 1328 0 1328 0 1313 0 c 2,42,-1
 1018 0 l 2,0,1
EndSplineSet
Validated: 1
EndChar

StartChar: v
Encoding: 118 118 28
Width: 1328
GlyphClass: 2
Flags: W
HStem: 0 21G<555 777> 1020 80<20 139.997 1188 1308>
DStem2: 435 1024 140 980 0.354654 -0.934998<-91.7597 887.764> 750 194 849 80 0.35249 0.935815<0 949.02>
LayerCount: 2
Fore
SplineSet
598 0 m 2,0,1
 512 0 512 0 481 81 c 2,2,-1
 140 980 l 2,3,4
 125 1020 125 1020 80 1020 c 2,5,-1
 35 1020 l 2,6,7
 20 1020 20 1020 20 1035 c 2,8,-1
 20 1085 l 2,9,10
 20 1100 20 1100 35 1100 c 2,11,-1
 317 1100 l 2,12,13
 406 1100 406 1100 435 1024 c 2,14,-1
 750 194 l 1,15,-1
 1064 1024 l 2,16,17
 1093 1100 1093 1100 1182 1100 c 2,18,-1
 1293 1100 l 2,19,20
 1308 1100 1308 1100 1308 1085 c 2,21,-1
 1308 1035 l 2,22,23
 1308 1020 1308 1020 1293 1020 c 2,24,-1
 1248 1020 l 2,25,26
 1203 1020 1203 1020 1188 980 c 2,27,-1
 849 80 l 2,28,29
 819 0 819 0 735 0 c 2,30,-1
 598 0 l 2,0,1
EndSplineSet
Validated: 1
EndChar

StartChar: w
Encoding: 119 119 29
Width: 1835
GlyphClass: 2
Flags: W
HStem: 0 21G<555 767 1072 1284> 1020 80<20 139.997 537 656.997 1179.23 1298 1695 1815>
DStem2: 435 1024 140 980 0.354654 -0.934998<-91.7597 887.764> 942 1024 657 980 0.354654 -0.934998<-92.1942 172.169 357.33 490.745 676.841 887.764> 750 194 839 80 0.35249 0.935815<0 149.992 715.241 945.254> 1257 194 1356 80 0.35249 0.935815<0 949.02>
LayerCount: 2
Fore
SplineSet
598 0 m 2,0,1
 512 0 512 0 481 81 c 2,2,-1
 140 980 l 2,3,4
 125 1020 125 1020 80 1020 c 2,5,-1
 35 1020 l 2,6,7
 20 1020 20 1020 20 1035 c 2,8,-1
 20 1085 l 2,9,10
 20 1100 20 1100 35 1100 c 2,11,-1
 317 1100 l 2,12,13
 406 1100 406 1100 435 1024 c 2,14,-1
 750 194 l 1,15,-1
 852 465 l 1,16,-1
 657 980 l 2,17,18
 642 1020 642 1020 597 1020 c 2,19,-1
 552 1020 l 2,20,21
 537 1020 537 1020 537 1035 c 2,22,-1
 537 1085 l 2,23,24
 537 1100 537 1100 552 1100 c 2,25,-1
 824 1100 l 2,26,27
 913 1100 913 1100 942 1024 c 2,28,-1
 1003 863 l 1,29,-1
 1064 1024 l 2,30,31
 1093 1100 1093 1100 1182 1100 c 2,32,-1
 1283 1100 l 2,33,34
 1298 1100 1298 1100 1298 1085 c 2,35,-1
 1298 1035 l 2,36,37
 1298 1020 1298 1020 1283 1020 c 2,38,-1
 1238 1020 l 2,39,40
 1193 1020 1193 1020 1178 980 c 2,41,-1
 1069 690 l 1,42,-1
 1257 194 l 1,43,-1
 1571 1024 l 2,44,45
 1600 1100 1600 1100 1689 1100 c 2,46,-1
 1800 1100 l 2,47,48
 1815 1100 1815 1100 1815 1085 c 2,49,-1
 1815 1035 l 2,50,51
 1815 1020 1815 1020 1800 1020 c 2,52,-1
 1755 1020 l 2,53,54
 1710 1020 1710 1020 1695 980 c 2,55,-1
 1356 80 l 2,56,57
 1326 0 1326 0 1242 0 c 2,58,-1
 1115 0 l 2,59,60
 1029 0 1029 0 998 81 c 2,61,-1
 918 291 l 1,62,-1
 839 80 l 2,63,64
 809 0 809 0 725 0 c 2,65,-1
 598 0 l 2,0,1
EndSplineSet
Validated: 1
EndChar

StartChar: y
Encoding: 121 121 30
Width: 1342
GlyphClass: 2
Flags: W
HStem: -410 80<463 582.997> 1020 80<20 139.997 1202 1322>
DStem2: 435 1024 140 980 0.354654 -0.934998<-91.7597 908.638> 583 -290 707 -334 0.352528 0.935801<-59.0736 309.808 495.552 1465.76>
LayerCount: 2
Fore
SplineSet
598 0 m 2,0,1
 512 0 512 0 481 81 c 2,2,-1
 140 980 l 2,3,4
 125 1020 125 1020 80 1020 c 2,5,-1
 35 1020 l 2,6,7
 20 1020 20 1020 20 1035 c 2,8,-1
 20 1085 l 2,9,10
 20 1100 20 1100 35 1100 c 2,11,-1
 317 1100 l 2,12,13
 406 1100 406 1100 435 1024 c 2,14,15
 757 174 l 1,16,-1
 1078 1024 l 2,17,18
 1107 1100 1107 1100 1196 1100 c 2,19,-1
 1307 1100 l 2,20,21
 1322 1100 1322 1100 1322 1085 c 2,22,-1
 1322 1035 l 2,23,24
 1322 1020 1322 1020 1307 1020 c 2,25,-1
 1262 1020 l 2,26,27
 1217 1020 1217 1020 1202 980 c 2,28,-1
 707 -334 l 2,29,30
 678 -410 678 -410 589 -410 c 2,31,-1
 478 -410 l 2,32,33
 463 -410 463 -410 463 -395 c 2,34,-1
 463 -345 l 2,35,36
 463 -330 463 -330 478 -330 c 2,37,-1
 523 -330 l 2,38,39
 568 -330 568 -330 583 -290 c 2,40,-1
 692 0 l 1,41,-1
 598 0 l 2,0,1
EndSplineSet
Validated: 1
EndChar

StartChar: z
Encoding: 122 122 31
Width: 991
GlyphClass: 2
Flags: W
HStem: 0 120<382 804.619> 980 120<197.885 558>
DStem2: 41 96 382 120 0.50532 0.862932<193.025 1024.08>
LayerCount: 2
Fore
SplineSet
77 0 m 2,0,1
 20 0 20 0 20 38 c 0,2,3
 20 60 20 60 41 96 c 2,4,-1
 558 980 l 1,5,-1
 359 980 l 2,6,7
 189 980 189 980 102 834 c 0,8,9
 96 824 96 824 89 824 c 0,10,11
 86 824 86 824 82 826 c 2,12,-1
 31 854 l 2,13,14
 22 859 22 859 22 866 c 0,15,16
 22 870 22 870 24 873 c 2,17,-1
 122 1037 l 2,18,19
 160 1100 160 1100 229 1100 c 2,20,-1
 864 1100 l 2,21,22
 919 1100 919 1100 919 1056 c 0,23,24
 919 1037 919 1037 902 1008 c 2,25,-1
 382 120 l 1,26,-1
 644 120 l 2,27,28
 813 120 813 120 901 266 c 0,29,30
 907 276 907 276 914 276 c 0,31,32
 917 276 917 276 921 274 c 2,33,-1
 972 246 l 2,34,35
 981 241 981 241 981 234 c 0,36,37
 981 230 981 230 979 227 c 2,38,-1
 881 63 l 2,39,40
 843 0 843 0 774 0 c 2,41,-1
 77 0 l 2,0,1
EndSplineSet
Validated: 1
EndChar

StartChar: figuredash
Encoding: 8210 8210 33
Width: 1133
GlyphClass: 2
Flags: W
HStem: 630 250<91.9202 1041.08>
LayerCount: 2
Fore
SplineSet
155 880 m 2,0,-1
 978 880 l 2,1,2
 1043 880 1043 880 1043 815 c 2,3,-1
 1043 695 l 2,4,5
 1043 630 1043 630 978 630 c 2,6,-1
 155 630 l 2,7,8
 90 630 90 630 90 695 c 2,9,-1
 90 815 l 2,10,11
 90 880 90 880 155 880 c 2,0,-1
EndSplineSet
Validated: 1
EndChar

StartChar: endash
Encoding: 8211 8211 34
Width: 1533
GlyphClass: 2
Flags: W
HStem: 630 250<91.9202 1441.08>
LayerCount: 2
Fore
SplineSet
155 880 m 2,0,-1
 1378 880 l 2,1,2
 1443 880 1443 880 1443 815 c 2,3,-1
 1443 695 l 2,4,5
 1443 630 1443 630 1378 630 c 2,6,-1
 155 630 l 2,7,8
 90 630 90 630 90 695 c 2,9,-1
 90 815 l 2,10,11
 90 880 90 880 155 880 c 2,0,-1
EndSplineSet
Validated: 1
EndChar

StartChar: emdash
Encoding: 8212 8212 35
Width: 1533
GlyphClass: 2
Flags: W
HStem: 630 250<91.9202 1441.08>
LayerCount: 2
Fore
SplineSet
155 880 m 2,0,-1
 1378 880 l 2,1,2
 1443 880 1443 880 1443 815 c 2,3,-1
 1443 695 l 2,4,5
 1443 630 1443 630 1378 630 c 2,6,-1
 155 630 l 2,7,8
 90 630 90 630 90 695 c 2,9,-1
 90 815 l 2,10,11
 90 880 90 880 155 880 c 2,0,-1
EndSplineSet
Validated: 1
EndChar

StartChar: quoteleft
Encoding: 8216 8216 36
Width: 415
GlyphClass: 2
Flags: W
HStem: 973 637<179.178 247.188>
VStem: 50 198<1198.83 1448.96>
LayerCount: 2
Fore
SplineSet
199 973 m 128,-1,1
 177 973 177 973 152 996 c 0,2,3
 50 1090 50 1090 50 1261 c 0,4,5
 50 1450 50 1450 202 1589 c 0,6,7
 225 1610 225 1610 248 1610 c 0,8,9
 266 1610 266 1610 286 1595 c 2,10,-1
 313 1575 l 2,11,12
 333 1560 333 1560 333 1542 c 0,13,14
 333 1526 333 1526 318 1511 c 0,15,16
 248 1437 248 1437 248 1359 c 0,17,18
 248 1221 248 1221 340 1144 c 0,19,20
 365 1121 365 1121 365 1098 c 0,21,22
 365 1072 365 1072 332 1049 c 2,23,-1
 240 986 l 2,24,0
 221 973 221 973 199 973 c 128,-1,1
EndSplineSet
Validated: 1
EndChar

StartChar: quoteright
Encoding: 8217 8217 37
Width: 415
GlyphClass: 2
Flags: W
HStem: 973 637<167.812 235.822>
VStem: 167 198<1134.04 1384.17>
LayerCount: 2
Fore
SplineSet
216 1610 m 128,-1,1
 238 1610 238 1610 263 1587 c 0,2,3
 365 1493 365 1493 365 1322 c 0,4,5
 365 1133 365 1133 213 994 c 0,6,7
 190 973 190 973 167 973 c 0,8,9
 149 973 149 973 129 988 c 2,10,-1
 102 1008 l 2,11,12
 82 1023 82 1023 82 1041 c 0,13,14
 82 1057 82 1057 97 1072 c 0,15,16
 167 1146 167 1146 167 1224 c 0,17,18
 167 1362 167 1362 75 1439 c 0,19,20
 50 1462 50 1462 50 1485 c 0,21,22
 50 1511 50 1511 83 1534 c 2,23,-1
 175 1597 l 2,24,0
 194 1610 194 1610 216 1610 c 128,-1,1
EndSplineSet
Validated: 1
EndChar

StartChar: quotesinglbase
Encoding: 8218 8218 38
Width: 415
GlyphClass: 2
Flags: W
HStem: -317 637<167.812 235.822>
VStem: 167 198<-155.958 94.168>
LayerCount: 2
Fore
SplineSet
216 320 m 128,-1,1
 238 320 238 320 263 297 c 0,2,3
 365 203 365 203 365 32 c 0,4,5
 365 -157 365 -157 213 -296 c 0,6,7
 190 -317 190 -317 167 -317 c 0,8,9
 149 -317 149 -317 129 -302 c 2,10,-1
 102 -282 l 2,11,12
 82 -267 82 -267 82 -249 c 0,13,14
 82 -233 82 -233 97 -218 c 0,15,16
 167 -144 167 -144 167 -66 c 0,17,18
 167 72 167 72 75 149 c 0,19,20
 50 172 50 172 50 195 c 0,21,22
 50 221 50 221 83 244 c 2,23,-1
 175 307 l 2,24,0
 194 320 194 320 216 320 c 128,-1,1
EndSplineSet
Validated: 1
EndChar

StartChar: quotereversed
Encoding: 8219 8219 39
Width: 415
GlyphClass: 2
Flags: W
HStem: 973 637<179.178 247.188>
VStem: 50 198<1134.04 1384.17>
LayerCount: 2
Fore
SplineSet
199 1610 m 128,-1,1
 221 1610 221 1610 240 1597 c 2,2,-1
 332 1534 l 2,3,4
 365 1511 365 1511 365 1485 c 0,5,6
 365 1462 365 1462 340 1439 c 0,7,8
 248 1362 248 1362 248 1224 c 0,9,10
 248 1146 248 1146 318 1072 c 0,11,12
 333 1057 333 1057 333 1041 c 0,13,14
 333 1023 333 1023 313 1008 c 2,15,-1
 286 988 l 2,16,17
 266 973 266 973 248 973 c 0,18,19
 225 973 225 973 202 994 c 0,20,21
 50 1133 50 1133 50 1322 c 0,22,23
 50 1493 50 1493 152 1587 c 0,24,0
 177 1610 177 1610 199 1610 c 128,-1,1
EndSplineSet
Validated: 1
EndChar

StartChar: quotedblleft
Encoding: 8220 8220 40
Width: 785
GlyphClass: 2
Flags: W
HStem: 973 637<179.178 247.188 549.178 617.188>
VStem: 50 198<1198.83 1448.96> 420 198<1198.83 1448.96>
LayerCount: 2
Fore
SplineSet
199 973 m 128,-1,1
 177 973 177 973 152 996 c 0,2,3
 50 1090 50 1090 50 1261 c 0,4,5
 50 1450 50 1450 202 1589 c 0,6,7
 225 1610 225 1610 248 1610 c 0,8,9
 266 1610 266 1610 286 1595 c 2,10,-1
 313 1575 l 2,11,12
 333 1560 333 1560 333 1542 c 0,13,14
 333 1526 333 1526 318 1511 c 0,15,16
 248 1437 248 1437 248 1359 c 0,17,18
 248 1221 248 1221 340 1144 c 0,19,20
 365 1121 365 1121 365 1098 c 0,21,22
 365 1072 365 1072 332 1049 c 2,23,-1
 240 986 l 2,24,0
 221 973 221 973 199 973 c 128,-1,1
569 973 m 128,-1,26
 547 973 547 973 522 996 c 0,27,28
 420 1090 420 1090 420 1261 c 0,29,30
 420 1450 420 1450 572 1589 c 0,31,32
 595 1610 595 1610 618 1610 c 0,33,34
 636 1610 636 1610 656 1595 c 2,35,-1
 683 1575 l 2,36,37
 703 1560 703 1560 703 1542 c 0,38,39
 703 1526 703 1526 688 1511 c 0,40,41
 618 1437 618 1437 618 1359 c 0,42,43
 618 1221 618 1221 710 1144 c 0,44,45
 735 1121 735 1121 735 1098 c 0,46,47
 735 1072 735 1072 702 1049 c 2,48,-1
 610 986 l 2,49,25
 591 973 591 973 569 973 c 128,-1,26
EndSplineSet
Validated: 1
EndChar

StartChar: quotedblright
Encoding: 8221 8221 41
Width: 785
GlyphClass: 2
Flags: W
HStem: 973 637<167.812 235.822 537.812 605.822>
VStem: 167 198<1134.04 1384.17> 537 198<1134.04 1384.17>
LayerCount: 2
Fore
SplineSet
586 1610 m 128,-1,1
 608 1610 608 1610 633 1587 c 0,2,3
 735 1493 735 1493 735 1322 c 0,4,5
 735 1133 735 1133 583 994 c 0,6,7
 560 973 560 973 537 973 c 0,8,9
 519 973 519 973 499 988 c 2,10,-1
 472 1008 l 2,11,12
 452 1023 452 1023 452 1041 c 0,13,14
 452 1057 452 1057 467 1072 c 0,15,16
 537 1146 537 1146 537 1224 c 0,17,18
 537 1362 537 1362 445 1439 c 0,19,20
 420 1462 420 1462 420 1485 c 0,21,22
 420 1511 420 1511 453 1534 c 2,23,-1
 545 1597 l 2,24,0
 564 1610 564 1610 586 1610 c 128,-1,1
216 1610 m 128,-1,26
 238 1610 238 1610 263 1587 c 0,27,28
 365 1493 365 1493 365 1322 c 0,29,30
 365 1133 365 1133 213 994 c 0,31,32
 190 973 190 973 167 973 c 0,33,34
 149 973 149 973 129 988 c 2,35,-1
 102 1008 l 2,36,37
 82 1023 82 1023 82 1041 c 0,38,39
 82 1057 82 1057 97 1072 c 0,40,41
 167 1146 167 1146 167 1224 c 0,42,43
 167 1362 167 1362 75 1439 c 0,44,45
 50 1462 50 1462 50 1485 c 0,46,47
 50 1511 50 1511 83 1534 c 2,48,-1
 175 1597 l 2,49,25
 194 1610 194 1610 216 1610 c 128,-1,26
EndSplineSet
Validated: 1
EndChar

StartChar: quotedblbase
Encoding: 8222 8222 42
Width: 785
GlyphClass: 2
Flags: W
HStem: -317 637<167.812 235.822 537.812 605.822>
VStem: 167 198<-155.958 94.168> 537 198<-155.958 94.168>
LayerCount: 2
Fore
SplineSet
586 320 m 128,-1,1
 608 320 608 320 633 297 c 0,2,3
 735 203 735 203 735 32 c 0,4,5
 735 -157 735 -157 583 -296 c 0,6,7
 560 -317 560 -317 537 -317 c 0,8,9
 519 -317 519 -317 499 -302 c 2,10,-1
 472 -282 l 2,11,12
 452 -267 452 -267 452 -249 c 0,13,14
 452 -233 452 -233 467 -218 c 0,15,16
 537 -144 537 -144 537 -66 c 0,17,18
 537 72 537 72 445 149 c 0,19,20
 420 172 420 172 420 195 c 0,21,22
 420 221 420 221 453 244 c 2,23,-1
 545 307 l 2,24,0
 564 320 564 320 586 320 c 128,-1,1
216 320 m 128,-1,26
 238 320 238 320 263 297 c 0,27,28
 365 203 365 203 365 32 c 0,29,30
 365 -157 365 -157 213 -296 c 0,31,32
 190 -317 190 -317 167 -317 c 0,33,34
 149 -317 149 -317 129 -302 c 2,35,-1
 102 -282 l 2,36,37
 82 -267 82 -267 82 -249 c 0,38,39
 82 -233 82 -233 97 -218 c 0,40,41
 167 -144 167 -144 167 -66 c 0,42,43
 167 72 167 72 75 149 c 0,44,45
 50 172 50 172 50 195 c 0,46,47
 50 221 50 221 83 244 c 2,48,-1
 175 307 l 2,49,25
 194 320 194 320 216 320 c 128,-1,26
EndSplineSet
Validated: 1
EndChar

StartChar: dagger
Encoding: 8224 8224 43
Width: 1150
GlyphClass: 2
Flags: W
HStem: 0 21G<455 695> 978 180<91.1865 415 735 1058.81> 1490 20G<455 695>
VStem: 415 320<4.9375 978 1158 1505.06>
LayerCount: 2
Fore
SplineSet
495 0 m 2,0,1
 415 0 415 0 415 79 c 2,2,-1
 415 978 l 1,3,-1
 150 978 l 2,4,5
 90 978 90 978 90 1037 c 2,6,-1
 90 1099 l 2,7,8
 90 1158 90 1158 150 1158 c 2,9,-1
 415 1158 l 1,10,-1
 415 1431 l 2,11,12
 415 1510 415 1510 495 1510 c 2,13,-1
 655 1510 l 2,14,15
 735 1510 735 1510 735 1431 c 2,16,-1
 735 1158 l 1,17,-1
 1000 1158 l 2,18,19
 1060 1158 1060 1158 1060 1099 c 2,20,-1
 1060 1037 l 2,21,22
 1060 978 1060 978 1000 978 c 2,23,-1
 735 978 l 1,24,-1
 735 79 l 2,25,26
 735 0 735 0 655 0 c 2,27,-1
 495 0 l 2,0,1
EndSplineSet
Validated: 1
EndChar

StartChar: daggerdbl
Encoding: 8225 8225 44
Width: 1150
GlyphClass: 2
Flags: W
HStem: 0 21G<455 695> 352 180<91.1865 415 735 1058.81> 978 180<91.1865 415 735 1058.81> 1490 20G<455 695>
VStem: 415 320<4.9375 352 532 978 1158 1505.06>
LayerCount: 2
Fore
SplineSet
655 0 m 2,0,-1
 495 0 l 2,1,2
 415 0 415 0 415 79 c 2,3,-1
 415 352 l 1,4,-1
 150 352 l 2,5,6
 90 352 90 352 90 411 c 2,7,-1
 90 473 l 2,8,9
 90 532 90 532 150 532 c 2,10,-1
 415 532 l 1,11,-1
 415 978 l 1,12,-1
 150 978 l 2,13,14
 90 978 90 978 90 1037 c 2,15,-1
 90 1099 l 2,16,17
 90 1158 90 1158 150 1158 c 2,18,-1
 415 1158 l 1,19,-1
 415 1431 l 2,20,21
 415 1510 415 1510 495 1510 c 2,22,-1
 655 1510 l 2,23,24
 735 1510 735 1510 735 1431 c 2,25,-1
 735 1158 l 1,26,-1
 1000 1158 l 2,27,28
 1060 1158 1060 1158 1060 1099 c 2,29,-1
 1060 1037 l 2,30,31
 1060 978 1060 978 1000 978 c 2,32,-1
 735 978 l 1,33,-1
 735 532 l 1,34,-1
 1000 532 l 2,35,36
 1060 532 1060 532 1060 473 c 2,37,-1
 1060 411 l 2,38,39
 1060 352 1060 352 1000 352 c 2,40,-1
 735 352 l 1,41,-1
 735 79 l 2,42,43
 735 0 735 0 655 0 c 2,0,-1
EndSplineSet
Validated: 1
EndChar

StartChar: bullet
Encoding: 8226 8226 45
Width: 888
GlyphClass: 2
Flags: W
HStem: 385 740<268.128 619.872>
VStem: 80 728<576.566 933.434>
LayerCount: 2
Fore
SplineSet
444 1125 m 128,-1,1
 596 1125 596 1125 702 1017 c 128,-1,2
 808 909 808 909 808 755 c 128,-1,3
 808 601 808 601 702 493 c 128,-1,4
 596 385 596 385 444 385 c 128,-1,5
 292 385 292 385 186 493 c 128,-1,6
 80 601 80 601 80 755 c 128,-1,7
 80 909 80 909 186 1017 c 128,-1,0
 292 1125 292 1125 444 1125 c 128,-1,1
EndSplineSet
Validated: 1
EndChar

StartChar: ellipsis
Encoding: 8230 8230 46
Width: 1332
GlyphClass: 2
Flags: W
HStem: -20 365<112.131 346.878 548.131 782.878 984.131 1218.88>
VStem: 50 360<42.5657 282.578> 486 360<42.5657 282.578> 922 360<42.5657 282.578>
CounterMasks: 1 70
LayerCount: 2
Fore
SplineSet
1102 -20 m 0,0,1
 1026 -20 1026 -20 974 34 c 128,-1,2
 922 88 922 88 922 162 c 0,3,4
 922 238 922 238 974 291 c 0,5,6
 1027 345 1027 345 1102 345 c 128,-1,7
 1177 345 1177 345 1229.5 291.5 c 128,-1,8
 1282 238 1282 238 1282 163 c 128,-1,9
 1282 88 1282 88 1229 34 c 128,-1,10
 1176 -20 1176 -20 1102 -20 c 0,0,1
666 -20 m 0,11,12
 590 -20 590 -20 538 34 c 128,-1,13
 486 88 486 88 486 162 c 0,14,15
 486 238 486 238 538 291 c 0,16,17
 591 345 591 345 666 345 c 128,-1,18
 741 345 741 345 793.5 291.5 c 128,-1,19
 846 238 846 238 846 163 c 128,-1,20
 846 88 846 88 793 34 c 128,-1,21
 740 -20 740 -20 666 -20 c 0,11,12
230 -20 m 0,22,23
 154 -20 154 -20 102 34 c 128,-1,24
 50 88 50 88 50 162 c 0,25,26
 50 238 50 238 102 291 c 0,27,28
 155 345 155 345 230 345 c 128,-1,29
 305 345 305 345 357.5 291.5 c 128,-1,30
 410 238 410 238 410 163 c 128,-1,31
 410 88 410 88 357 34 c 128,-1,32
 304 -20 304 -20 230 -20 c 0,22,23
EndSplineSet
Validated: 1
EndChar

StartChar: perthousand
Encoding: 8240 8240 47
Width: 2586
GlyphClass: 2
Flags: W
HStem: -20 78<1266.52 1407.74 2066.52 2207.74> 645 77<1267.06 1408.28 2067.06 2208.28> 788 78<378.494 521.923> 1453 77<379.032 520.253>
VStem: 80 228<982.835 1338.15> 590 227<980.36 1336.22> 969 227<173.172 530.148> 1478 228<172.36 527.991> 1769 227<173.172 530.148> 2278 228<172.36 527.991>
DStem2: 369 129 593 0 0.512391 0.858752<-42.1899 1653.77>
LayerCount: 2
Fore
SplineSet
2138 645 m 128,-1,1
 2078 645 2078 645 2037 560.5 c 128,-1,2
 1996 476 1996 476 1996 351.5 c 128,-1,3
 1996 227 1996 227 2037 142.5 c 128,-1,4
 2078 58 2078 58 2138 58 c 128,-1,5
 2198 58 2198 58 2238 142.5 c 128,-1,6
 2278 227 2278 227 2278 352 c 128,-1,7
 2278 477 2278 477 2238 561 c 128,-1,0
 2198 645 2198 645 2138 645 c 128,-1,1
2137 -20 m 0,8,9
 1982 -20 1982 -20 1877 89 c 0,10,11
 1769 199 1769 199 1769 352 c 0,12,13
 1769 506 1769 506 1877 613 c 0,14,15
 1985 722 1985 722 2137 722 c 0,16,17
 2292 722 2292 722 2398 613 c 0,18,19
 2506 502 2506 502 2506 350 c 0,20,21
 2506 196 2506 196 2398 89 c 0,22,23
 2289 -20 2289 -20 2137 -20 c 0,8,9
1338 645 m 128,-1,25
 1278 645 1278 645 1237 560.5 c 128,-1,26
 1196 476 1196 476 1196 351.5 c 128,-1,27
 1196 227 1196 227 1237 142.5 c 128,-1,28
 1278 58 1278 58 1338 58 c 128,-1,29
 1398 58 1398 58 1438 142.5 c 128,-1,30
 1478 227 1478 227 1478 352 c 128,-1,31
 1478 477 1478 477 1438 561 c 128,-1,24
 1398 645 1398 645 1338 645 c 128,-1,25
1337 -20 m 0,32,33
 1182 -20 1182 -20 1077 89 c 0,34,35
 969 199 969 199 969 352 c 0,36,37
 969 506 969 506 1077 613 c 0,38,39
 1185 722 1185 722 1337 722 c 0,40,41
 1492 722 1492 722 1598 613 c 0,42,43
 1706 502 1706 502 1706 350 c 0,44,45
 1706 196 1706 196 1598 89 c 0,46,47
 1489 -20 1489 -20 1337 -20 c 0,32,33
450 1453 m 128,-1,49
 390 1453 390 1453 349 1368.5 c 128,-1,50
 308 1284 308 1284 308 1159.5 c 128,-1,51
 308 1035 308 1035 349 950.5 c 128,-1,52
 390 866 390 866 450 866 c 128,-1,53
 510 866 510 866 550 950.5 c 128,-1,54
 590 1035 590 1035 590 1160 c 128,-1,55
 590 1285 590 1285 550 1369 c 128,-1,48
 510 1453 510 1453 450 1453 c 128,-1,49
449 1530 m 0,56,57
 604 1530 604 1530 709 1421 c 0,58,59
 817 1311 817 1311 817 1158 c 0,60,61
 817 1004 817 1004 709 897 c 0,62,63
 601 788 601 788 449 788 c 0,64,65
 294 788 294 788 188 897 c 0,66,67
 80 1008 80 1008 80 1160 c 0,68,69
 80 1314 80 1314 188 1421 c 0,70,71
 297 1530 297 1530 449 1530 c 0,56,57
1250 1550 m 0,72,73
 1269 1550 1269 1550 1292 1537 c 2,74,-1
 1390 1481 l 2,75,76
 1429 1459 1429 1459 1429 1423 c 0,77,78
 1429 1401 1429 1401 1417 1381 c 2,79,-1
 593 0 l 2,80,81
 569 -40 569 -40 538 -40 c 0,82,83
 516 -40 516 -40 493 -27 c 2,84,-1
 395 29 l 2,85,86
 356 51 356 51 356 87 c 0,87,88
 356 107 356 107 369 129 c 2,89,-1
 1193 1510 l 2,90,91
 1217 1550 1217 1550 1250 1550 c 0,72,73
EndSplineSet
Validated: 1
EndChar

StartChar: minute
Encoding: 8242 8242 48
Width: 410
GlyphClass: 2
Flags: W
HStem: 1089 441
VStem: 89 271<1366.22 1529.46>
LayerCount: 2
Fore
SplineSet
143 1530 m 2,0,1
 324 1530 l 2,2,3
 360 1530 360 1530 360 1507 c 0,4,5
 360 1497 360 1497 356 1485 c 2,6,-1
 234 1123 l 2,7,8
 222 1089 222 1089 183 1089 c 2,9,-1
 90 1090 l 2,10,11
 50 1090 50 1090 50 1121 c 0,12,13
 51 1130 l 2,14,-1
 89 1485 l 2,15,16
 94 1530 94 1530 143 1530 c 2,0,1
EndSplineSet
Validated: 1
EndChar

StartChar: second
Encoding: 8243 8243 49
Width: 760
GlyphClass: 2
Flags: W
HStem: 1090 440<89.001 237.812 439.001 587.812>
VStem: 89 271<1366.22 1529.46> 439 271<1366.22 1529.46>
LayerCount: 2
Fore
SplineSet
493 1530 m 2,0,1
 674 1530 l 2,2,3
 710 1530 710 1530 710 1507 c 0,4,5
 710 1497 710 1497 706 1485 c 2,6,-1
 584 1123 l 2,7,8
 572 1089 572 1089 533 1089 c 2,9,-1
 440 1090 l 2,10,11
 400 1090 400 1090 400 1121 c 0,12,13
 401 1130 l 2,14,-1
 439 1485 l 2,15,16
 444 1530 444 1530 493 1530 c 2,0,1
143 1530 m 2,17,-1
 324 1530 l 2,18,19
 360 1530 360 1530 360 1507 c 0,20,21
 360 1497 360 1497 356 1485 c 2,22,-1
 234 1123 l 2,23,24
 222 1089 222 1089 183 1089 c 2,25,-1
 90 1090 l 2,26,27
 50 1090 50 1090 50 1121 c 0,28,-1
 51 1130 l 2,29,-1
 89 1485 l 2,30,31
 94 1530 94 1530 143 1530 c 2,17,-1
EndSplineSet
Validated: 1
EndChar

StartChar: guilsinglleft
Encoding: 8249 8249 50
Width: 784
GlyphClass: 2
Flags: W
VStem: 80 564
DStem2: 92 791 275 851 0.576683 0.816968<154.551 653.262> 275 851 92 720 0.575413 -0.817863<0 644.641>
LayerCount: 2
Fore
SplineSet
80 756 m 0,0,1
 80 774 80 774 92 791 c 2,2,-1
 452 1301 l 2,3,4
 468 1323 468 1323 490 1323 c 0,5,6
 506 1323 506 1323 522 1310 c 2,7,-1
 538 1297 l 2,8,9
 561 1278 561 1278 561 1260 c 0,10,11
 561 1246 561 1246 547 1227 c 2,12,-1
 275 851 l 1,13,-1
 630 355 l 2,14,15
 644 335 644 335 644 322 c 0,16,17
 644 303 644 303 621 285 c 2,18,-1
 518 205 l 2,19,20
 501 192 501 192 486 192 c 0,21,22
 463 192 463 192 448 214 c 2,23,-1
 92 720 l 2,24,25
 80 737 80 737 80 756 c 0,0,1
EndSplineSet
Validated: 1
EndChar

StartChar: guilsinglright
Encoding: 8250 8250 51
Width: 784
GlyphClass: 2
Flags: W
VStem: 140 564
DStem2: 336 1301 154 1160 0.575413 -0.817863<-24.1162 620.525> 509 664 332 214 0.576683 0.816968<-498.711 0>
LayerCount: 2
Fore
SplineSet
704 759 m 0,0,1
 704 741 704 741 692 724 c 2,2,-1
 332 214 l 2,3,4
 316 192 316 192 294 192 c 0,5,6
 278 192 278 192 262 205 c 2,7,-1
 246 218 l 2,8,9
 223 237 223 237 223 255 c 0,10,11
 223 269 223 269 237 288 c 2,12,-1
 509 664 l 1,13,-1
 154 1160 l 2,14,15
 140 1180 140 1180 140 1193 c 0,16,17
 140 1212 140 1212 163 1230 c 2,18,-1
 266 1310 l 2,19,20
 283 1323 283 1323 298 1323 c 0,21,22
 321 1323 321 1323 336 1301 c 2,23,-1
 692 795 l 2,24,25
 704 778 704 778 704 759 c 0,0,1
EndSplineSet
Validated: 1
EndChar

StartChar: fraction
Encoding: 8260 8260 52
Width: 1093
GlyphClass: 2
Flags: W
DStem2: 23 129 247 0 0.512391 0.858752<-42.1899 1653.77>
LayerCount: 2
Fore
SplineSet
904 1550 m 0,0,1
 923 1550 923 1550 946 1537 c 2,2,-1
 1044 1481 l 2,3,4
 1083 1459 1083 1459 1083 1423 c 0,5,6
 1083 1401 1083 1401 1071 1381 c 2,7,-1
 247 0 l 2,8,9
 223 -40 223 -40 192 -40 c 0,10,11
 170 -40 170 -40 147 -27 c 2,12,-1
 49 29 l 2,13,14
 10 51 10 51 10 87 c 0,15,16
 10 107 10 107 23 129 c 2,17,-1
 847 1510 l 2,18,19
 871 1550 871 1550 904 1550 c 0,0,1
EndSplineSet
Validated: 1
EndChar

StartChar: Euro
Encoding: 8364 8364 53
Width: 1510
GlyphClass: 2
Flags: W
HStem: -20 120<756.91 1128.19> 519 180<50 162 529 1004> 811 180<50 161 530 1004> 1410 120<751.344 1129.68>
VStem: 189 340<396.012 519 991 1115.41> 1305 85<309.25 487 1027 1203>
LayerCount: 2
Fore
SplineSet
877 -20 m 0,0,1
 549 -20 549 -20 351 211 c 0,2,3
 235 347 235 347 189 519 c 1,4,-1
 95 519 l 2,5,6
 50 519 50 519 50 564 c 2,7,-1
 50 654 l 2,8,9
 50 699 50 699 95 699 c 2,10,-1
 162 699 l 1,11,12
 160 727 160 727 160 755 c 128,-1,13
 160 783 160 783 161 811 c 1,14,-1
 95 811 l 2,15,16
 50 811 50 811 50 856 c 2,17,-1
 50 946 l 2,18,19
 50 991 50 991 95 991 c 2,20,-1
 189 991 l 1,21,22
 234 1164 234 1164 351 1299 c 0,23,24
 550 1530 550 1530 877 1530 c 0,25,26
 1175 1530 1175 1530 1356 1392 c 0,27,28
 1390 1366 1390 1366 1390 1318 c 2,29,-1
 1390 1042 l 2,30,31
 1390 1027 1390 1027 1375 1027 c 2,32,-1
 1320 1027 l 2,33,34
 1307 1027 1307 1027 1305 1042 c 0,35,36
 1255 1410 1255 1410 948 1410 c 0,37,38
 722 1410 722 1410 621 1240 c 0,39,40
 558 1132 558 1132 530 991 c 1,41,-1
 959 991 l 2,42,43
 1004 991 1004 991 1004 946 c 2,44,-1
 1004 856 l 2,45,46
 1004 811 1004 811 959 811 c 2,47,-1
 510 811 l 1,48,49
 509 783 509 783 509 754.5 c 128,-1,50
 509 726 509 726 510 699 c 1,51,-1
 959 699 l 2,52,53
 1004 699 1004 699 1004 654 c 2,54,-1
 1004 564 l 2,55,56
 1004 519 1004 519 959 519 c 2,57,-1
 529 519 l 1,58,59
 556 374 556 374 621 270 c 0,60,61
 726 100 726 100 948 100 c 0,62,63
 1255 100 1255 100 1305 472 c 0,64,65
 1307 487 1307 487 1320 487 c 2,66,-1
 1375 487 l 2,67,68
 1390 487 1390 487 1390 472 c 2,69,-1
 1390 196 l 2,70,71
 1390 148 1390 148 1356 122 c 0,72,73
 1169 -20 1169 -20 877 -20 c 0,0,1
EndSplineSet
Validated: 1
EndChar

StartChar: afii61248
Encoding: 8453 8453 54
Width: 1826
GlyphClass: 2
Flags: W
HStem: -10 100<1268.67 1445.91> 684 100<1266 1445.47> 726 100<380.324 614.084> 1420 100<380.348 614.756>
VStem: 90 214<929.004 1318.15> 662 82<878.855 1019 1229 1368.34> 978 215<193.004 582.147> 1521 215<193.603 581.025>
DStem2: 375 129 599 0 0.512391 0.858752<-42.1899 1653.77>
LayerCount: 2
Fore
SplineSet
1355.5 684 m 128,-1,1
 1290 684 1290 684 1246 612 c 0,2,3
 1193 525 1193 525 1193 385 c 128,-1,4
 1193 245 1193 245 1246 162 c 0,5,6
 1293 90 1293 90 1358.5 90 c 128,-1,7
 1424 90 1424 90 1468 162 c 0,8,9
 1521 249 1521 249 1521 389 c 128,-1,10
 1521 529 1521 529 1468 612 c 0,11,0
 1421 684 1421 684 1355.5 684 c 128,-1,1
1357 -10 m 128,-1,13
 1184 -10 1184 -10 1079 109 c 0,14,15
 978 224 978 224 978 387.5 c 128,-1,16
 978 551 978 551 1079 665 c 0,17,18
 1185 784 1185 784 1357.5 784 c 128,-1,19
 1530 784 1530 784 1635 665 c 0,20,21
 1736 550 1736 550 1736 387 c 128,-1,22
 1736 224 1736 224 1635 109 c 0,23,12
 1530 -10 1530 -10 1357 -10 c 128,-1,13
468 1520 m 0,24,25
 634 1520 634 1520 721 1448 c 24,26,27
 744 1429 744 1429 744 1394 c 2,28,-1
 744 1256 l 2,29,30
 744 1229 744 1229 718 1229 c 2,31,-1
 689 1229 l 2,32,33
 665 1229 665 1229 662 1253 c 0,34,35
 652 1329 652 1329 619 1371 c 0,36,37
 580 1420 580 1420 504 1420 c 0,38,39
 402 1420 402 1420 357 1348 c 0,40,41
 304 1261 304 1261 304 1121 c 128,-1,42
 304 981 304 981 357 898 c 0,43,44
 403 826 403 826 504 826 c 0,45,46
 580 826 580 826 619 876 c 0,47,48
 642 905 642 905 662 996 c 0,49,50
 667 1019 667 1019 689 1019 c 2,51,-1
 718 1019 l 2,52,53
 744 1019 744 1019 744 992 c 2,54,-1
 744 854 l 2,55,56
 744 818 744 818 721 800 c 24,57,58
 626 726 626 726 468 726 c 0,59,60
 295 726 295 726 190 845 c 0,61,62
 90 960 90 960 90 1123.5 c 128,-1,63
 90 1287 90 1287 190 1401 c 0,64,65
 296 1520 296 1520 468 1520 c 0,24,25
1256 1550 m 0,66,67
 1275 1550 1275 1550 1298 1537 c 2,68,-1
 1396 1481 l 2,69,70
 1435 1459 1435 1459 1435 1423 c 0,71,72
 1435 1401 1435 1401 1423 1381 c 2,73,-1
 599 0 l 2,74,75
 575 -40 575 -40 544 -40 c 0,76,77
 522 -40 522 -40 499 -27 c 2,78,-1
 401 29 l 2,79,80
 362 51 362 51 362 87 c 0,81,82
 362 107 362 107 375 129 c 2,83,-1
 1199 1510 l 2,84,85
 1223 1550 1223 1550 1256 1550 c 0,66,67
EndSplineSet
Validated: 1
EndChar

StartChar: afii61289
Encoding: 8467 8467 55
Width: 1197
GlyphClass: 2
Flags: W
HStem: 0 1G<80 456.273 606 715> 1510 20G<774.5 872>
LayerCount: 2
Fore
SplineSet
660 -20 m 0,0,1
 552 -20 552 -20 471 44 c 1,2,-1
 444 0 l 1,3,-1
 80 0 l 1,4,5
 242 162 242 162 345 325 c 1,6,7
 334 420 334 420 334 524 c 0,8,9
 334 686 334 686 381 865 c 0,10,11
 479 1240 479 1240 631 1423 c 0,12,13
 719 1530 719 1530 830 1530 c 0,14,15
 914 1530 914 1530 964 1480 c 0,16,17
 1028 1416 1028 1416 1028 1281 c 0,18,19
 1028 1186 1028 1186 999 1041 c 0,20,21
 929 688 929 688 646 272 c 1,22,23
 648 216 648 216 669 216 c 128,-1,24
 690 216 690 216 715 260 c 0,25,26
 730 286 730 286 741 319 c 1,27,-1
 1057 319 l 1,28,29
 964 144 964 144 867 62 c 128,-1,30
 770 -20 770 -20 660 -20 c 0,0,1
EndSplineSet
Validated: 1
EndChar

StartChar: trademark
Encoding: 8482 8482 56
Width: 1811
GlyphClass: 2
Flags: W
HStem: 744 80<740 804.812 1661 1721> 1410 110<147.75 338 538 728.25> 1438 80<817 876.936 1584.06 1643>
VStem: 338 200<727.167 1410>
DStem2: 800 825 913 799 0.125236 0.992127<-8.64271 381.673> 1082 1466 964 1189 0.287695 -0.957722<231.341 528.337> 1234 960 1298 798 0.308321 0.951282<0 264.419> 1584 1435 1419 1178 0.125236 -0.992127<234.313 623.215>
LayerCount: 2
Fore
SplineSet
834 744 m 2,0,1
 767 744 l 2,2,3
 740 744 740 744 740 772 c 2,4,-1
 740 796 l 2,5,6
 740 824 740 824 767 824 c 2,7,-1
 790 824 l 2,8,9
 800 824 800 824 800 825 c 0,10,11
 877 1435 l 1,12,13
 875 1438 875 1438 867 1438 c 2,14,-1
 845 1438 l 2,15,16
 817 1438 817 1438 817 1466 c 2,17,-1
 817 1491 l 2,18,19
 817 1518 817 1518 845 1518 c 2,20,-1
 1004 1518 l 2,21,22
 1066 1518 1066 1518 1082 1466 c 2,23,-1
 1234 960 l 1,24,-1
 1398 1466 l 2,25,26
 1415 1518 1415 1518 1476 1518 c 2,27,-1
 1615 1518 l 2,28,29
 1643 1518 1643 1518 1643 1491 c 2,30,-1
 1643 1466 l 2,31,32
 1643 1438 1643 1438 1615 1438 c 2,33,-1
 1593 1438 l 2,34,35
 1586 1438 1586 1438 1584 1435 c 1,36,-1
 1661 825 l 1,37,38
 1665 824 1665 824 1671 824 c 2,39,-1
 1694 824 l 2,40,41
 1721 824 1721 824 1721 795 c 2,42,-1
 1721 771 l 2,43,44
 1721 744 1721 744 1694 744 c 2,45,-1
 1547 744 l 2,46,47
 1475 744 1475 744 1468 799 c 2,48,-1
 1419 1178 l 1,49,-1
 1298 798 l 2,50,51
 1281 744 1281 744 1222 744 c 2,52,-1
 1158 744 l 2,53,54
 1096 744 1096 744 1080 798 c 2,55,-1
 964 1189 l 1,56,-1
 913 799 l 2,57,58
 906 744 906 744 834 744 c 2,0,1
398 726 m 2,59,60
 338 726 338 726 338 785 c 2,61,-1
 338 1410 l 1,62,-1
 248 1410 l 2,63,64
 170 1410 170 1410 137 1349 c 0,65,66
 128 1332 128 1332 115 1332 c 0,67,68
 107 1332 107 1332 98 1338 c 2,69,-1
 75 1350 l 2,70,71
 60 1358 60 1358 60 1373 c 0,72,73
 60 1381 60 1381 66 1390 c 2,74,-1
 118 1479 l 2,75,76
 142 1520 142 1520 189 1520 c 2,77,-1
 687 1520 l 2,78,79
 734 1520 734 1520 758 1479 c 2,80,-1
 810 1390 l 2,81,82
 816 1381 816 1381 816 1373 c 0,83,84
 816 1358 816 1358 801 1350 c 2,85,-1
 778 1338 l 2,86,87
 769 1332 769 1332 761 1332 c 0,88,89
 748 1332 748 1332 739 1349 c 0,90,91
 706 1410 706 1410 628 1410 c 2,92,-1
 538 1410 l 1,93,-1
 538 785 l 2,94,95
 538 726 538 726 478 726 c 2,96,-1
 398 726 l 2,59,60
EndSplineSet
Validated: 1
EndChar

StartChar: uni2126
Encoding: 8486 8486 57
Width: 1702
GlyphClass: 2
Flags: W
HStem: 0 140<196.381 395 1307 1505.62> 1410 120<711.656 989.186>
VStem: 134 349<473.384 1041.14> 1219 349<463.421 1038.67>
LayerCount: 2
Fore
SplineSet
239 0 m 2,0,1
 170 0 170 0 132 63 c 2,2,-1
 22 247 l 2,3,4
 20 250 20 250 20 254 c 0,5,6
 20 261 20 261 29 266 c 2,7,-1
 80 294 l 2,8,9
 84 296 84 296 87 296 c 0,10,11
 94 296 94 296 100 286 c 0,12,13
 188 140 188 140 357 140 c 2,14,-1
 395 140 l 1,15,16
 347 184 347 184 325 211 c 0,17,18
 134 445 134 445 134 755 c 0,19,20
 134 1077 134 1077 325 1299 c 0,21,22
 524 1530 524 1530 851 1530 c 0,23,24
 1180 1530 1180 1530 1377 1299 c 0,25,26
 1568 1075 1568 1075 1568 751.5 c 128,-1,27
 1568 428 1568 428 1377 211 c 0,28,29
 1348 178 1348 178 1307 140 c 1,30,-1
 1345 140 l 2,31,32
 1514 140 1514 140 1602 286 c 0,33,34
 1608 296 1608 296 1615 296 c 0,35,36
 1618 296 1618 296 1622 294 c 2,37,-1
 1673 266 l 2,38,39
 1682 261 1682 261 1682 254 c 0,40,41
 1682 250 1682 250 1680 247 c 2,42,-1
 1570 63 l 2,43,44
 1532 0 1532 0 1463 0 c 2,45,-1
 992 0 l 2,46,47
 930 0 930 0 930 58 c 0,48,49
 930 106 930 106 949 117 c 16,50,51
 1051 176 1051 176 1107 270 c 0,52,53
 1219 460 1219 460 1219 755 c 0,54,55
 1219 1059 1219 1059 1107 1240 c 0,56,57
 1001 1410 1001 1410 850 1410 c 0,58,59
 696 1410 696 1410 595 1240 c 24,60,61
 483 1050 483 1050 483 755 c 0,62,63
 483 436 483 436 595 270 c 0,64,65
 672 157 672 157 754 119 c 8,66,67
 773 110 773 110 773 60 c 0,68,69
 773 0 773 0 710 0 c 2,70,-1
 239 0 l 2,0,1
EndSplineSet
Validated: 1
EndChar

StartChar: estimated
Encoding: 8494 8494 58
Width: 1261
GlyphClass: 2
Flags: W
HStem: -20 183<451.95 808.867> 491 189<403 855> 935 185<449.039 809.176>
VStem: 70 333<316.826 491 680 791.88>
LayerCount: 2
Fore
SplineSet
629 -20 m 0,0,1
 378 -20 378 -20 224 145 c 128,-1,2
 70 310 70 310 70 553 c 0,3,4
 70 802 70 802 226 960 c 0,5,6
 384 1120 384 1120 626 1120 c 0,7,8
 869 1120 869 1120 1017 974 c 0,9,10
 1191 802 1191 802 1191 491 c 1,11,-1
 403 491 l 1,12,-1
 403 239 l 1,13,14
 498 163 498 163 629 163 c 0,15,16
 837 163 837 163 955 351 c 1,17,-1
 1119 255 l 1,18,19
 995 85 995 85 876 32.5 c 128,-1,20
 757 -20 757 -20 629 -20 c 0,0,1
855 680 m 1,21,-1
 855 862 l 1,22,23
 757 935 757 935 627 935 c 0,24,25
 495 935 495 935 403 861 c 1,26,-1
 403 680 l 1,27,-1
 855 680 l 1,21,-1
EndSplineSet
Validated: 1
EndChar

StartChar: partialdiff
Encoding: 8706 8706 59
Width: 1265
GlyphClass: 2
Flags: W
HStem: -20 273<422.903 636.396> 823 260<547.1 796.76> 1257 273<472.596 796.913>
VStem: 80 305<291.814 617.824> 876 309<1024 1178.17>
LayerCount: 2
Fore
SplineSet
502 -20 m 0,0,1
 232 -20 232 -20 133 171 c 0,2,3
 80 273 80 273 80 416 c 0,4,5
 80 673 80 673 234 878 c 128,-1,6
 388 1083 388 1083 660 1083 c 0,7,8
 779 1083 779 1083 876 1024 c 1,9,10
 873 1115 873 1115 835 1173 c 0,11,12
 778 1257 778 1257 656 1257 c 0,13,14
 501 1257 501 1257 350 1132 c 1,15,-1
 350 1443 l 1,16,17
 496 1530 496 1530 693 1530 c 0,18,19
 1010 1530 1010 1530 1126 1271 c 0,20,21
 1185 1139 1185 1139 1185 950 c 0,22,23
 1185 563 1185 563 1002 272 c 0,24,25
 821 -20 821 -20 502 -20 c 0,0,1
849 699 m 1,26,27
 828 756 828 756 785 788 c 0,28,29
 738 823 738 823 670 823 c 0,30,31
 561 823 561 823 480 706 c 0,32,33
 385 567 385 567 385 431 c 0,34,35
 385 344 385 344 423 295 c 0,36,37
 455 253 455 253 515 253 c 0,38,39
 622 253 622 253 717 376 c 128,-1,40
 812 499 812 499 849 699 c 1,26,27
EndSplineSet
Validated: 1
EndChar

StartChar: uni2206
Encoding: 8710 8710 60
Width: 1596
GlyphClass: 2
Flags: W
HStem: 0 140<303 1118> 0 80<20 139.997 1456 1576> 1490 20G<642 954.5>
DStem2: 140 120 303 140 0.323837 0.946113<71.7077 1330.33> 1456 120 1118 140 0.323421 -0.946255<-1387.19 -128.242>
LayerCount: 2
Fore
SplineSet
35 0 m 2,0,1
 20 0 20 0 20 15 c 2,2,-1
 20 65 l 2,3,4
 20 80 20 80 35 80 c 2,5,-1
 80 80 l 2,6,7
 126 80 126 80 140 120 c 2,8,-1
 599 1461 l 2,9,10
 616 1510 616 1510 668 1510 c 2,11,-1
 928 1510 l 2,12,13
 981 1510 981 1510 998 1460 c 2,14,-1
 1456 120 l 2,15,16
 1470 80 1470 80 1516 80 c 2,17,-1
 1561 80 l 2,18,19
 1576 80 1576 80 1576 65 c 2,20,-1
 1576 15 l 2,21,22
 1576 0 1576 0 1561 0 c 2,23,-1
 35 0 l 2,0,1
710 1331 m 1,24,-1
 303 140 l 1,25,-1
 1118 140 l 1,26,-1
 710 1331 l 1,24,-1
EndSplineSet
Validated: 1
EndChar

StartChar: product
Encoding: 8719 8719 61
Width: 1609
GlyphClass: 2
Flags: W
HStem: -410 80<20 159.365 1449.63 1589> 1430 80<20 159.365 1449.63 1589>
VStem: 170 320<-321.099 1368.28> 1119 320<-321.099 1368.28>
LayerCount: 2
Fore
SplineSet
350 -410 m 2,0,-1
 35 -410 l 2,1,2
 20 -410 20 -410 20 -395 c 2,3,-1
 20 -345 l 2,4,5
 20 -330 20 -330 35 -330 c 2,6,-1
 80 -330 l 2,7,8
 170 -330 170 -330 170 -240 c 2,9,-1
 170 1340 l 2,10,11
 170 1430 170 1430 80 1430 c 2,12,-1
 35 1430 l 2,13,14
 20 1430 20 1430 20 1445 c 2,15,-1
 20 1495 l 2,16,17
 20 1510 20 1510 35 1510 c 2,18,-1
 1574 1510 l 2,19,20
 1589 1510 1589 1510 1589 1495 c 2,21,-1
 1589 1445 l 2,22,23
 1589 1430 1589 1430 1574 1430 c 2,24,-1
 1529 1430 l 2,25,26
 1439 1430 1439 1430 1439 1340 c 2,27,-1
 1439 -240 l 2,28,29
 1439 -330 1439 -330 1529 -330 c 2,30,-1
 1574 -330 l 2,31,32
 1589 -330 1589 -330 1589 -345 c 2,33,-1
 1589 -395 l 2,34,35
 1589 -410 1589 -410 1574 -410 c 2,36,-1
 1259 -410 l 2,37,38
 1119 -410 1119 -410 1119 -270 c 2,39,-1
 1119 1370 l 1,40,-1
 490 1370 l 1,41,-1
 490 -270 l 2,42,43
 490 -410 490 -410 350 -410 c 2,0,-1
EndSplineSet
Validated: 1
EndChar

StartChar: summation
Encoding: 8721 8721 62
Width: 1294
GlyphClass: 2
Flags: W
HStem: -410 140<456 1067.62> 1370 140<449 1043.62>
DStem2: 449 1370 62 1441 0.481088 -0.876672<0 722.291> 85 -341 456 -270 0.43046 0.902609<223.786 1031.45>
LayerCount: 2
Fore
SplineSet
127 -410 m 2,0,1
 75 -410 75 -410 75 -376 c 0,2,3
 75 -362 75 -362 85 -341 c 2,4,-1
 529 590 l 1,5,-1
 62 1441 l 2,6,7
 50 1463 50 1463 50 1477 c 0,8,9
 50 1510 50 1510 103 1510 c 2,10,-1
 1001 1510 l 2,11,12
 1070 1510 1070 1510 1108 1447 c 2,13,-1
 1218 1263 l 2,14,15
 1220 1260 1220 1260 1220 1256 c 0,16,17
 1220 1249 1220 1249 1211 1244 c 2,18,-1
 1160 1216 l 2,19,20
 1156 1214 1156 1214 1153 1214 c 0,21,22
 1146 1214 1146 1214 1140 1224 c 0,23,24
 1052 1370 1052 1370 883 1370 c 2,25,-1
 449 1370 l 1,26,-1
 857 636 l 2,27,28
 868 616 868 616 868 594 c 128,-1,29
 868 572 868 572 859 554 c 2,30,-1
 456 -270 l 1,31,-1
 907 -270 l 2,32,33
 1076 -270 1076 -270 1164 -124 c 0,34,35
 1170 -114 1170 -114 1177 -114 c 0,36,37
 1180 -114 1180 -114 1184 -116 c 2,38,-1
 1235 -144 l 2,39,40
 1244 -149 1244 -149 1244 -156 c 0,41,42
 1244 -160 1244 -160 1242 -163 c 2,43,-1
 1132 -347 l 2,44,45
 1094 -410 1094 -410 1025 -410 c 2,46,-1
 127 -410 l 2,0,1
EndSplineSet
Validated: 1
EndChar

StartChar: minus
Encoding: 8722 8722 63
Width: 1133
GlyphClass: 2
Flags: W
HStem: 630 250<91.9202 1041.08>
LayerCount: 2
Fore
SplineSet
155 880 m 2,0,-1
 978 880 l 2,1,2
 1043 880 1043 880 1043 815 c 2,3,-1
 1043 695 l 2,4,5
 1043 630 1043 630 978 630 c 2,6,-1
 155 630 l 2,7,8
 90 630 90 630 90 695 c 2,9,-1
 90 815 l 2,10,11
 90 880 90 880 155 880 c 2,0,-1
EndSplineSet
Validated: 1
EndChar

StartChar: uni2215
Encoding: 8725 8725 64
Width: 1093
GlyphClass: 2
Flags: W
DStem2: 23 129 247 0 0.512391 0.858752<-42.1899 1653.77>
LayerCount: 2
Fore
SplineSet
904 1550 m 0,0,1
 923 1550 923 1550 946 1537 c 2,2,-1
 1044 1481 l 2,3,4
 1083 1459 1083 1459 1083 1423 c 0,5,6
 1083 1401 1083 1401 1071 1381 c 2,7,-1
 247 0 l 2,8,9
 223 -40 223 -40 192 -40 c 0,10,11
 170 -40 170 -40 147 -27 c 2,12,-1
 49 29 l 2,13,14
 10 51 10 51 10 87 c 0,15,16
 10 107 10 107 23 129 c 2,17,-1
 847 1510 l 2,18,19
 871 1550 871 1550 904 1550 c 0,0,1
EndSplineSet
Validated: 1
EndChar

StartChar: uni2219
Encoding: 8729 8729 65
Width: 460
GlyphClass: 2
Flags: W
HStem: 573 365<112.131 346.878>
VStem: 50 360<635.566 875.578>
LayerCount: 2
Fore
SplineSet
230 938 m 128,-1,1
 305 938 305 938 357.5 884.5 c 128,-1,2
 410 831 410 831 410 756 c 128,-1,3
 410 681 410 681 357 627 c 128,-1,4
 304 573 304 573 230 573 c 0,5,6
 154 573 154 573 102 627 c 128,-1,7
 50 681 50 681 50 755 c 0,8,9
 50 831 50 831 102 884 c 0,10,0
 155 938 155 938 230 938 c 128,-1,1
EndSplineSet
Validated: 1
EndChar

StartChar: radical
Encoding: 8730 8730 66
Width: 1228
GlyphClass: 2
Flags: W
HStem: 0 21G<412 657> 700 80<20 150.652> 1430 80<1074.7 1208>
DStem2: 436 726 174 612 0.322847 -0.946451<-71.6845 543.297> 612 212 702 55 0.263815 0.964573<0 1306.26>
LayerCount: 2
Fore
SplineSet
441 0 m 2,0,1
 383 0 383 0 364 55 c 2,2,-1
 174 612 l 2,3,4
 144 700 144 700 80 700 c 2,5,-1
 35 700 l 2,6,7
 20 700 20 700 20 715 c 2,8,-1
 20 765 l 2,9,10
 20 780 20 780 35 780 c 2,11,-1
 360 780 l 2,12,13
 418 780 418 780 436 726 c 2,14,-1
 612 212 l 1,15,-1
 955 1455 l 2,16,17
 970 1510 970 1510 1030 1510 c 2,18,-1
 1193 1510 l 2,19,20
 1208 1510 1208 1510 1208 1495 c 2,21,-1
 1208 1445 l 2,22,23
 1208 1430 1208 1430 1193 1430 c 2,24,-1
 1148 1430 l 2,25,26
 1078 1430 1078 1430 1054 1342 c 2,27,-1
 702 55 l 2,28,29
 687 0 687 0 627 0 c 2,30,-1
 441 0 l 2,0,1
EndSplineSet
Validated: 1
EndChar

StartChar: infinity
Encoding: 8734 8734 67
Width: 1405
GlyphClass: 2
Flags: W
HStem: 382 78<377.521 520.017 887.404 1027.74> 1047 77<378.059 520.58 887.942 1028.28>
VStem: 80 227<575.172 932.148> 589 227<536.764 968.168> 1098 228<574.36 929.991>
LayerCount: 2
Fore
SplineSet
958 1047 m 128,-1,1
 898 1047 898 1047 857 962.5 c 128,-1,2
 816 878 816 878 816 753.5 c 128,-1,3
 816 629 816 629 857 544.5 c 128,-1,4
 898 460 898 460 958 460 c 128,-1,5
 1018 460 1018 460 1058 544.5 c 128,-1,6
 1098 629 1098 629 1098 754 c 128,-1,7
 1098 879 1098 879 1058 963 c 128,-1,0
 1018 1047 1018 1047 958 1047 c 128,-1,1
448 1124 m 0,8,9
 599 1124 599 1124 703 1021 c 1,10,11
 809 1124 809 1124 957 1124 c 0,12,13
 1112 1124 1112 1124 1218 1015 c 0,14,15
 1326 904 1326 904 1326 752 c 0,16,17
 1326 598 1326 598 1218 491 c 0,18,19
 1109 382 1109 382 957 382 c 0,20,21
 806 382 806 382 703 485 c 1,22,23
 596 382 596 382 448 382 c 0,24,25
 293 382 293 382 188 491 c 0,26,27
 80 601 80 601 80 754 c 0,28,29
 80 908 80 908 188 1015 c 0,30,31
 296 1124 296 1124 448 1124 c 0,8,9
449 1047 m 128,-1,33
 389 1047 389 1047 348 962.5 c 128,-1,34
 307 878 307 878 307 753.5 c 128,-1,35
 307 629 307 629 348 544.5 c 128,-1,36
 389 460 389 460 449 460 c 128,-1,37
 509 460 509 460 549 544.5 c 128,-1,38
 589 629 589 629 589 754 c 128,-1,39
 589 879 589 879 549 963 c 128,-1,32
 509 1047 509 1047 449 1047 c 128,-1,33
EndSplineSet
Validated: 1
EndChar

StartChar: approxequal
Encoding: 8776 8776 68
Width: 1158
GlyphClass: 2
Flags: W
HStem: 206 219<724.405 849.303> 469 219<288.697 413.565> 705 219<744.405 868.669> 968 219<308.697 433.565>
VStem: 90 178<228.891 455.286> 110 178<727.891 954.286> 870 178<438.714 665.109> 890 178<937.714 1164.11>
LayerCount: 2
Fore
SplineSet
404 688 m 0,0,1
 558 688 558 688 669 537 c 0,2,3
 751 425 751 425 790 425 c 0,4,5
 870 425 870 425 870 603 c 0,6,7
 870 667 870 667 935 667 c 2,8,-1
 983 667 l 2,9,10
 1048 667 1048 667 1048 603 c 0,11,12
 1048 206 1048 206 734 206 c 0,13,14
 579 206 579 206 469 357 c 0,15,16
 387 469 387 469 348 469 c 0,17,18
 268 469 268 469 268 291 c 0,19,20
 268 227 268 227 203 227 c 2,21,-1
 155 227 l 2,22,23
 90 227 90 227 90 291 c 0,24,25
 90 688 90 688 404 688 c 0,0,1
424 1187 m 0,26,27
 578 1187 578 1187 689 1036 c 0,28,29
 771 924 771 924 810 924 c 0,30,31
 890 924 890 924 890 1102 c 0,32,33
 890 1166 890 1166 955 1166 c 2,34,-1
 1003 1166 l 2,35,36
 1068 1166 1068 1166 1068 1102 c 0,37,38
 1068 705 1068 705 754 705 c 0,39,40
 599 705 599 705 489 856 c 0,41,42
 407 968 407 968 368 968 c 0,43,44
 288 968 288 968 288 790 c 0,45,46
 288 726 288 726 223 726 c 2,47,-1
 175 726 l 2,48,49
 110 726 110 726 110 790 c 0,50,51
 110 1187 110 1187 424 1187 c 0,26,27
EndSplineSet
Validated: 1
EndChar

StartChar: notequal
Encoding: 8800 8800 69
Width: 1133
GlyphClass: 2
Flags: W
HStem: 430 250<91.9202 303 598 1041.08> 830 250<91.9202 534 829 1041.08>
DStem2: 162 186 275 121 0.500242 0.865886<-20.9135 281.81 645.853 743.72 1107.76 1410.51>
LayerCount: 2
Fore
SplineSet
155 1080 m 2,0,-1
 678 1080 l 1,1,-1
 857 1389 l 2,2,3
 868 1408 868 1408 885 1408 c 0,4,5
 894 1408 894 1408 905 1402 c 2,6,-1
 957 1372 l 2,7,8
 976 1361 976 1361 976 1345 c 0,9,10
 976 1336 976 1336 970 1324 c 2,11,-1
 829 1080 l 1,12,-1
 978 1080 l 2,13,14
 1043 1080 1043 1080 1043 1015 c 2,15,-1
 1043 895 l 2,16,17
 1043 830 1043 830 978 830 c 2,18,-1
 685 830 l 1,19,-1
 598 680 l 1,20,-1
 978 680 l 2,21,22
 1043 680 1043 680 1043 615 c 2,23,-1
 1043 495 l 2,24,25
 1043 430 1043 430 978 430 c 2,26,-1
 454 430 l 1,27,-1
 275 121 l 2,28,29
 264 102 264 102 247 102 c 0,30,31
 238 102 238 102 227 108 c 2,32,-1
 175 138 l 2,33,34
 156 149 156 149 156 165 c 0,35,36
 156 175 156 175 162 186 c 2,37,-1
 303 430 l 1,38,-1
 155 430 l 2,39,40
 90 430 90 430 90 495 c 2,41,-1
 90 615 l 2,42,43
 90 680 90 680 155 680 c 2,44,-1
 447 680 l 1,45,-1
 534 830 l 1,46,-1
 155 830 l 2,47,48
 90 830 90 830 90 895 c 2,49,-1
 90 1015 l 2,50,51
 90 1080 90 1080 155 1080 c 2,0,-1
EndSplineSet
Validated: 1
EndChar

StartChar: lessequal
Encoding: 8804 8804 70
Width: 1173
GlyphClass: 2
Flags: W
HStem: 97 250<81.9202 1031.08>
DStem2: 130 1014 270 946 0.878199 0.478295<90.4239 909.651> 270 946 130 773 0.878218 -0.478261<0 819.32>
LayerCount: 2
Fore
SplineSet
80 944 m 2,0,1
 80 987 80 987 130 1014 c 2,2,-1
 903 1435 l 2,3,4
 920 1444 920 1444 932 1444 c 0,5,6
 955 1444 955 1444 971 1417 c 2,7,-1
 990 1384 l 2,8,9
 1000 1367 1000 1367 1000 1354 c 0,10,11
 1000 1331 1000 1331 972 1316 c 2,12,-1
 270 946 l 1,13,-1
 972 574 l 2,14,15
 1000 559 1000 559 1000 536 c 0,16,17
 1000 524 1000 524 990 506 c 2,18,-1
 927 394 l 2,19,20
 912 367 912 367 888 367 c 0,21,22
 876 367 876 367 859 376 c 2,23,-1
 130 773 l 2,24,25
 80 800 80 800 80 843 c 2,26,-1
 80 944 l 2,0,1
145 347 m 2,27,-1
 968 347 l 2,28,29
 1033 347 1033 347 1033 282 c 2,30,-1
 1033 162 l 2,31,32
 1033 97 1033 97 968 97 c 2,33,-1
 145 97 l 2,34,35
 80 97 80 97 80 162 c 2,36,-1
 80 282 l 2,37,38
 80 347 80 347 145 347 c 2,27,-1
EndSplineSet
Validated: 1
EndChar

StartChar: greaterequal
Encoding: 8805 8805 71
Width: 1173
GlyphClass: 2
Flags: W
HStem: 97 250<141.92 1091.08>
DStem2: 168 495 237 376 0.878199 0.478295<-25.7623 793.465> 1010 1038 870 865 0.878218 -0.478261<-859.532 -40.2113>
LayerCount: 2
Fore
SplineSet
1060 867 m 2,0,1
 1060 824 1060 824 1010 797 c 2,2,-1
 237 376 l 2,3,4
 220 367 220 367 208 367 c 0,5,6
 185 367 185 367 169 394 c 2,7,-1
 150 427 l 2,8,9
 140 444 140 444 140 457 c 0,10,11
 140 480 140 480 168 495 c 2,12,-1
 870 865 l 1,13,-1
 168 1237 l 2,14,15
 140 1252 140 1252 140 1275 c 0,16,17
 140 1287 140 1287 150 1305 c 2,18,-1
 213 1417 l 2,19,20
 228 1444 228 1444 252 1444 c 0,21,22
 264 1444 264 1444 281 1435 c 2,23,-1
 1010 1038 l 2,24,25
 1060 1011 1060 1011 1060 968 c 2,26,-1
 1060 867 l 2,0,1
205 347 m 2,27,-1
 1028 347 l 2,28,29
 1093 347 1093 347 1093 282 c 2,30,-1
 1093 162 l 2,31,32
 1093 97 1093 97 1028 97 c 2,33,-1
 205 97 l 2,34,35
 140 97 140 97 140 162 c 2,36,-1
 140 282 l 2,37,38
 140 347 140 347 205 347 c 2,27,-1
EndSplineSet
Validated: 1
EndChar

StartChar: lozenge
Encoding: 9674 9674 72
Width: 1198
GlyphClass: 2
Flags: W
HStem: -20 21G<585.042 612.903> 1510 20G<585.641 612.409>
DStem2: 70 738 314 846 0.555427 0.831565<225.333 601.697> 314 846 70 738 0.5723 -0.820044<0 633.596> 599 1530 523 1159 0.556885 -0.83059<265.826 902.637> 676 326 599 -20 0.57078 0.821103<0 369.659>
LayerCount: 2
Fore
SplineSet
676 326 m 1,0,-1
 882 633 l 1,1,-1
 523 1159 l 1,2,-1
 314 846 l 1,3,-1
 676 326 l 1,0,-1
599 -20 m 1,4,-1
 70 738 l 1,5,-1
 599 1530 l 1,6,-1
 1128 741 l 1,7,-1
 599 -20 l 1,4,-1
EndSplineSet
Validated: 1
EndChar

StartChar: uni1E02
Encoding: 7682 7682 73
Width: 1320
Flags: W
HStem: 0 121<490 760.476> 0 80<20 159.365> 776 120<490 738.749> 1389 121<490 738.749> 1430 80<20 159.365> 1590 364<469.131 703.338>
VStem: 170 320<122.539 776 896 1387.46> 407 360<1654.3 1891.73> 840 329<996.526 1288.7> 930 330<280.796 616.597>
LayerCount: 2
Fore
SplineSet
587 1954 m 0,0,1
 663 1954 663 1954 715 1901 c 128,-1,2
 767 1848 767 1848 767 1773 c 0,3,4
 767 1699 767 1699 714 1644 c 0,5,6
 662 1590 662 1590 587 1590 c 0,7,8
 510 1590 510 1590 458.5 1644 c 128,-1,9
 407 1698 407 1698 407 1772 c 0,10,11
 407 1848 407 1848 459 1900 c 0,12,13
 512 1954 512 1954 587 1954 c 0,0,1
490 1389 m 1,14,-1
 490 896 l 1,15,-1
 545 896 l 2,16,17
 714 896 714 896 782 978 c 0,18,19
 840 1048 840 1048 840 1143 c 0,20,21
 840 1237 840 1237 782 1307 c 0,22,23
 714 1389 714 1389 545 1389 c 2,24,-1
 490 1389 l 1,14,-1
490 121 m 1,25,-1
 545 121 l 2,26,27
 741 121 741 121 840 221 c 0,28,29
 930 313 930 313 930 450 c 0,30,31
 930 584 930 584 840 676 c 0,32,33
 741 776 741 776 545 776 c 2,34,-1
 490 776 l 1,35,-1
 490 121 l 1,25,-1
755 0 m 2,36,-1
 35 0 l 2,37,38
 20 0 20 0 20 15 c 2,39,-1
 20 65 l 2,40,41
 20 80 20 80 35 80 c 2,42,-1
 80 80 l 2,43,44
 170 80 170 80 170 170 c 2,45,-1
 170 1340 l 2,46,47
 170 1430 170 1430 80 1430 c 2,48,-1
 35 1430 l 2,49,50
 20 1430 20 1430 20 1445 c 2,51,-1
 20 1495 l 2,52,53
 20 1510 20 1510 35 1510 c 2,54,-1
 755 1510 l 2,55,56
 925 1510 925 1510 1038 1422 c 0,57,58
 1169 1320 1169 1320 1169 1158 c 0,59,60
 1169 959 1169 959 967 855 c 1,61,62
 1045 833 1045 833 1108 785 c 0,63,64
 1260 669 1260 669 1260 463 c 0,65,66
 1260 264 1260 264 1132 137 c 0,67,68
 995 0 995 0 755 0 c 2,36,-1
EndSplineSet
Validated: 1
EndChar

StartChar: uni1E03
Encoding: 7683 7683 74
Width: 1272
Flags: W
HStem: -20 111<559.587 773.194> 0 21G<210 430> 1009 111<561.625 766.757> 1180 364<644.131 878.338> 1430 80<20 159.365>
VStem: 170 300<5.57397 80 187.009 908.225 1022 1421.1> 582 360<1244.3 1481.73> 899 313<307.882 786.224>
LayerCount: 2
Fore
SplineSet
762 1544 m 0,0,1
 838 1544 838 1544 890 1491 c 128,-1,2
 942 1438 942 1438 942 1363 c 0,3,4
 942 1289 942 1289 889 1234 c 0,5,6
 837 1180 837 1180 762 1180 c 0,7,8
 685 1180 685 1180 633.5 1234 c 128,-1,9
 582 1288 582 1288 582 1362 c 0,10,11
 582 1438 582 1438 634 1490 c 0,12,13
 687 1544 687 1544 762 1544 c 0,0,1
250 0 m 2,14,15
 170 0 170 0 170 79 c 2,16,-1
 170 1340 l 2,17,18
 170 1430 170 1430 80 1430 c 2,19,-1
 35 1430 l 2,20,21
 20 1430 20 1430 20 1445 c 2,22,-1
 20 1495 l 2,23,24
 20 1510 20 1510 35 1510 c 2,25,-1
 330 1510 l 2,26,27
 470 1510 470 1510 470 1370 c 2,28,-1
 470 1022 l 1,29,30
 546 1120 546 1120 689 1120 c 0,31,32
 895 1120 895 1120 1041 977 c 0,33,34
 1212 808 1212 808 1212 550 c 0,35,36
 1212 283 1212 283 1041 124 c 0,37,38
 886 -20 886 -20 689 -20 c 0,39,40
 548 -20 548 -20 470 80 c 1,41,42
 470 0 470 0 390 0 c 2,43,-1
 250 0 l 2,14,15
659 1009 m 0,44,45
 581 1009 581 1009 512 905 c 0,46,47
 485 865 485 865 470 795 c 1,48,-1
 470 305 l 1,49,50
 486 230 486 230 515 187 c 0,51,52
 579 91 579 91 660 91 c 0,53,54
 755 91 755 91 818 187 c 0,55,56
 899 309 899 309 899 550 c 0,57,58
 899 792 899 792 821 905 c 0,59,60
 749 1009 749 1009 659 1009 c 0,44,45
EndSplineSet
Validated: 1
EndChar

StartChar: uni1E0A
Encoding: 7690 7690 75
Width: 1497
Flags: W
HStem: 0 121<490 857.279> 0 80<20 159.365> 1389 121<490 857.621> 1430 80<20 159.365> 1590 364<519.131 753.338>
VStem: 170 320<122.539 1387.46> 457 360<1654.3 1891.73> 1088 349<485.833 1029.07>
LayerCount: 2
Fore
SplineSet
637 1954 m 0,0,1
 713 1954 713 1954 765 1901 c 128,-1,2
 817 1848 817 1848 817 1773 c 0,3,4
 817 1699 817 1699 764 1644 c 0,5,6
 712 1590 712 1590 637 1590 c 0,7,8
 560 1590 560 1590 508.5 1644 c 128,-1,9
 457 1698 457 1698 457 1772 c 0,10,11
 457 1848 457 1848 509 1900 c 0,12,13
 562 1954 562 1954 637 1954 c 0,0,1
700 121 m 2,14,15
 876 121 876 121 976 290 c 0,16,17
 1088 480 1088 480 1088 755 c 0,18,19
 1088 1039 1088 1039 976 1220 c 0,20,21
 871 1389 871 1389 700 1389 c 2,22,-1
 490 1389 l 1,23,-1
 490 121 l 1,24,-1
 700 121 l 2,14,15
720 0 m 2,25,-1
 35 0 l 2,26,27
 20 0 20 0 20 15 c 2,28,-1
 20 60 l 2,29,30
 20 80 20 80 35 80 c 2,31,-1
 80 80 l 2,32,33
 170 80 170 80 170 170 c 2,34,-1
 170 1340 l 2,35,36
 170 1430 170 1430 80 1430 c 2,37,-1
 35 1430 l 2,38,39
 20 1430 20 1430 20 1445 c 2,40,-1
 20 1495 l 2,41,42
 20 1510 20 1510 35 1510 c 2,43,-1
 720 1510 l 2,44,45
 1049 1510 1049 1510 1246 1279 c 0,46,47
 1437 1055 1437 1055 1437 765 c 0,48,49
 1437 455 1437 455 1246 231 c 0,50,51
 1048 0 1048 0 720 0 c 2,25,-1
EndSplineSet
Validated: 1
EndChar

StartChar: uni1E0B
Encoding: 7691 7691 76
Width: 1272
Flags: W
HStem: -20 111<505.243 710.858> 0 80<1112.63 1252> 1009 111<498.806 712.413> 1180 364<274.131 508.338> 1430 80<652 791.365>
VStem: 60 313<313.776 792.118> 212 360<1244.3 1481.73> 802 300<191.775 912.991 1020 1421.1>
LayerCount: 2
Fore
SplineSet
392 1544 m 0,0,1
 468 1544 468 1544 520 1491 c 128,-1,2
 572 1438 572 1438 572 1363 c 0,3,4
 572 1289 572 1289 519 1234 c 0,5,6
 467 1180 467 1180 392 1180 c 0,7,8
 315 1180 315 1180 263.5 1234 c 128,-1,9
 212 1288 212 1288 212 1362 c 0,10,11
 212 1438 212 1438 264 1490 c 0,12,13
 317 1544 317 1544 392 1544 c 0,0,1
942 0 m 2,14,15
 832 0 832 0 808 87 c 1,16,17
 732 -20 732 -20 583 -20 c 0,18,19
 377 -20 377 -20 231 123 c 0,20,21
 60 292 60 292 60 550 c 0,22,23
 60 817 60 817 231 976 c 0,24,25
 386 1120 386 1120 583 1120 c 0,26,27
 724 1120 724 1120 802 1020 c 1,28,-1
 802 1340 l 2,29,30
 802 1430 802 1430 712 1430 c 2,31,-1
 667 1430 l 2,32,33
 652 1430 652 1430 652 1445 c 2,34,-1
 652 1495 l 2,35,36
 652 1510 652 1510 667 1510 c 2,37,-1
 962 1510 l 2,38,39
 1102 1510 1102 1510 1102 1370 c 2,40,-1
 1102 170 l 2,41,42
 1102 80 1102 80 1192 80 c 2,43,-1
 1237 80 l 2,44,45
 1252 80 1252 80 1252 65 c 2,46,-1
 1252 15 l 2,47,48
 1252 0 1252 0 1237 0 c 2,49,-1
 942 0 l 2,14,15
613 91 m 0,50,51
 691 91 691 91 760 195 c 0,52,53
 787 235 787 235 802 305 c 1,54,-1
 802 795 l 1,55,56
 786 870 786 870 757 913 c 0,57,58
 693 1009 693 1009 612 1009 c 0,59,60
 517 1009 517 1009 454 913 c 0,61,62
 373 791 373 791 373 550 c 0,63,64
 373 308 373 308 451 195 c 0,65,66
 523 91 523 91 613 91 c 0,50,51
EndSplineSet
Validated: 1
EndChar

StartChar: uni1E1E
Encoding: 7710 7710 77
Width: 1199
Flags: W
HStem: 0 21G<210 450> 685 140<490 828.267> 1370 140<490 1012.62> 1430 80<20 159.365> 1590 364<469.131 703.338>
VStem: 170 320<4.9375 685 825 1368.28> 407 360<1654.3 1891.73> 842 80<531 670.82 839.18 979>
LayerCount: 2
Fore
SplineSet
587 1954 m 0,0,1
 663 1954 663 1954 715 1901 c 128,-1,2
 767 1848 767 1848 767 1773 c 0,3,4
 767 1699 767 1699 714 1644 c 0,5,6
 662 1590 662 1590 587 1590 c 0,7,8
 510 1590 510 1590 458.5 1644 c 128,-1,9
 407 1698 407 1698 407 1772 c 0,10,11
 407 1848 407 1848 459 1900 c 0,12,13
 512 1954 512 1954 587 1954 c 0,0,1
250 0 m 2,14,15
 170 0 170 0 170 79 c 2,16,-1
 170 1340 l 2,17,18
 170 1430 170 1430 80 1430 c 2,19,-1
 35 1430 l 2,20,21
 20 1430 20 1430 20 1445 c 2,22,-1
 20 1495 l 2,23,24
 20 1510 20 1510 35 1510 c 2,25,-1
 970 1510 l 2,26,27
 1039 1510 1039 1510 1077 1447 c 2,28,-1
 1187 1263 l 2,29,30
 1189 1260 1189 1260 1189 1256 c 0,31,32
 1189 1249 1189 1249 1180 1244 c 2,33,-1
 1129 1216 l 2,34,35
 1125 1214 1125 1214 1122 1214 c 0,36,37
 1115 1214 1115 1214 1109 1224 c 0,38,39
 1021 1370 1021 1370 852 1370 c 2,40,-1
 490 1370 l 1,41,-1
 490 825 l 1,42,-1
 752 825 l 2,43,44
 842 825 842 825 842 945 c 2,45,-1
 842 965 l 2,46,47
 842 979 842 979 856 979 c 2,48,-1
 906 979 l 2,49,50
 922 979 922 979 922 965 c 2,51,-1
 922 545 l 2,52,53
 922 531 922 531 906 531 c 2,54,-1
 856 531 l 2,55,56
 842 531 842 531 842 545 c 2,57,-1
 842 565 l 2,58,59
 842 685 842 685 752 685 c 2,60,-1
 490 685 l 1,61,-1
 490 79 l 2,62,63
 490 0 490 0 410 0 c 2,64,-1
 250 0 l 2,14,15
EndSplineSet
Validated: 1
EndChar

StartChar: uni1E1F
Encoding: 7711 7711 78
Width: 995
Flags: W
HStem: 0 21G<210 430> 710 120<20 170 470 760> 1420 110<564.911 806.844> 1590 364<369.131 603.338>
VStem: 170 300<4.9375 710 830 1314.79> 307 360<1654.3 1891.73> 892 83<1146 1318.83>
LayerCount: 2
Fore
SplineSet
487 1954 m 0,0,1
 563 1954 563 1954 615 1901 c 128,-1,2
 667 1848 667 1848 667 1773 c 0,3,4
 667 1699 667 1699 614 1644 c 0,5,6
 562 1590 562 1590 487 1590 c 0,7,8
 410 1590 410 1590 358.5 1644 c 128,-1,9
 307 1698 307 1698 307 1772 c 0,10,11
 307 1848 307 1848 359 1900 c 0,12,13
 412 1954 412 1954 487 1954 c 0,0,1
390 0 m 2,14,-1
 250 0 l 2,15,16
 170 0 170 0 170 79 c 2,17,-1
 170 710 l 1,18,-1
 35 710 l 2,19,20
 20 710 20 710 20 725 c 2,21,-1
 20 815 l 2,22,23
 20 830 20 830 35 830 c 2,24,-1
 170 830 l 1,25,-1
 170 1130 l 2,26,27
 170 1312 170 1312 300 1431 c 0,28,29
 408 1530 408 1530 617 1530 c 0,30,31
 817 1530 817 1530 951 1429 c 0,32,33
 975 1411 975 1411 975 1377 c 2,34,-1
 975 1161 l 2,35,36
 975 1146 975 1146 964 1146 c 2,37,-1
 907 1146 l 2,38,39
 894 1146 894 1146 892 1161 c 0,40,41
 864 1420 864 1420 692 1420 c 0,42,43
 592 1420 592 1420 534 1346 c 0,44,45
 470 1265 470 1265 470 1070 c 2,46,-1
 470 830 l 1,47,-1
 745 830 l 2,48,49
 760 830 760 830 760 815 c 2,50,-1
 760 725 l 2,51,52
 760 710 760 710 745 710 c 2,53,-1
 470 710 l 1,54,-1
 470 79 l 2,55,56
 470 0 470 0 390 0 c 2,14,-1
EndSplineSet
Validated: 1
EndChar

StartChar: uni1E41
Encoding: 7745 7745 79
Width: 2056
Flags: W
HStem: 0 80<1896.63 2036> 951 169<701.506 939.5 1409.51 1647.5> 1020 80<20 159.365> 1180 364<924.131 1158.34>
VStem: 170 300<6.24902 439.85 574 1008.9> 862 360<1244.3 1481.73> 878 300<6.24902 439.85 574 901.552> 1586 300<88.9014 901.552>
LayerCount: 2
Fore
SplineSet
1042 1544 m 0,0,1
 1118 1544 1118 1544 1170 1491 c 128,-1,2
 1222 1438 1222 1438 1222 1363 c 0,3,4
 1222 1289 1222 1289 1169 1234 c 0,5,6
 1117 1180 1117 1180 1042 1180 c 0,7,8
 965 1180 965 1180 913.5 1234 c 128,-1,9
 862 1288 862 1288 862 1362 c 0,10,11
 862 1438 862 1438 914 1490 c 0,12,13
 967 1544 967 1544 1042 1544 c 0,0,1
250 0 m 2,14,15
 170 0 170 0 170 79 c 2,16,-1
 170 930 l 2,17,18
 170 1020 170 1020 80 1020 c 2,19,-1
 35 1020 l 2,20,21
 20 1020 20 1020 20 1035 c 2,22,-1
 20 1085 l 2,23,24
 20 1100 20 1100 35 1100 c 2,25,-1
 330 1100 l 2,26,27
 470 1100 470 1100 470 962 c 2,28,-1
 470 574 l 1,29,30
 531 1120 531 1120 868 1120 c 0,31,32
 1011 1120 1011 1120 1092 1036 c 0,33,34
 1178 947 1178 947 1178 770 c 2,35,-1
 1178 574 l 1,36,37
 1239 1120 1239 1120 1576 1120 c 0,38,39
 1719 1120 1719 1120 1800 1036 c 0,40,41
 1886 947 1886 947 1886 770 c 2,42,-1
 1886 170 l 2,43,44
 1886 80 1886 80 1976 80 c 2,45,-1
 2021 80 l 2,46,47
 2036 80 2036 80 2036 65 c 2,48,-1
 2036 15 l 2,49,50
 2036 0 2036 0 2021 0 c 2,51,-1
 1726 0 l 2,52,53
 1586 0 1586 0 1586 140 c 2,54,-1
 1586 770 l 2,55,56
 1586 857 1586 857 1563 903 c 0,57,58
 1539 951 1539 951 1485 951 c 0,59,60
 1256 951 1256 951 1178 79 c 0,61,62
 1171 0 1171 0 1098 0 c 2,63,-1
 958 0 l 2,64,65
 878 0 878 0 878 79 c 2,66,-1
 878 770 l 2,67,68
 878 857 878 857 855 903 c 0,69,70
 831 951 831 951 777 951 c 0,71,72
 548 951 548 951 470 79 c 0,73,74
 463 0 463 0 390 0 c 2,75,-1
 250 0 l 2,14,15
EndSplineSet
Validated: 1
EndChar

StartChar: uni1E56
Encoding: 7766 7766 80
Width: 1258
Flags: W
HStem: 0 21G<210 450> 548 121<490 719.107> 1389 121<490 717.679> 1430 80<20 159.365> 1590 364<469.131 703.338>
VStem: 170 320<4.9375 548 669 1387.46> 407 360<1654.3 1891.73> 868 330<831.405 1226.94>
LayerCount: 2
Fore
SplineSet
587 1954 m 0,0,1
 663 1954 663 1954 715 1901 c 128,-1,2
 767 1848 767 1848 767 1773 c 0,3,4
 767 1699 767 1699 714 1644 c 0,5,6
 662 1590 662 1590 587 1590 c 0,7,8
 510 1590 510 1590 458.5 1644 c 128,-1,9
 407 1698 407 1698 407 1772 c 0,10,11
 407 1848 407 1848 459 1900 c 0,12,13
 512 1954 512 1954 587 1954 c 0,0,1
250 0 m 2,14,15
 170 0 170 0 170 79 c 2,16,-1
 170 1340 l 2,17,18
 170 1430 170 1430 80 1430 c 2,19,-1
 35 1430 l 2,20,21
 20 1430 20 1430 20 1445 c 2,22,-1
 20 1495 l 2,23,24
 20 1510 20 1510 35 1510 c 2,25,-1
 713 1510 l 2,26,27
 937 1510 937 1510 1075 1361 c 0,28,29
 1198 1229 1198 1229 1198 1029 c 128,-1,30
 1198 829 1198 829 1075 697 c 0,31,32
 937 548 937 548 713 548 c 2,33,-1
 490 548 l 1,34,-1
 490 79 l 2,35,36
 490 0 490 0 410 0 c 2,37,-1
 250 0 l 2,14,15
490 1389 m 1,38,-1
 490 669 l 1,39,-1
 533 669 l 2,40,41
 718 669 718 669 797 785 c 0,42,43
 868 889 868 889 868 1029 c 0,44,45
 868 1171 868 1171 797 1273 c 0,46,47
 715 1389 715 1389 533 1389 c 2,48,-1
 490 1389 l 1,38,-1
EndSplineSet
Validated: 1
EndChar

StartChar: uni1E57
Encoding: 7767 7767 81
Width: 1272
Flags: W
HStem: -410 21G<210 430> -20 111<559.587 773.194> 1009 111<561.142 766.757> 1020 80<20 159.365> 1180 364<524.131 758.338>
VStem: 170 300<-405.062 80 187.009 908.225> 462 360<1244.3 1481.73> 899 313<307.882 786.224>
LayerCount: 2
Fore
SplineSet
642 1544 m 0,0,1
 718 1544 718 1544 770 1491 c 128,-1,2
 822 1438 822 1438 822 1363 c 0,3,4
 822 1289 822 1289 769 1234 c 0,5,6
 717 1180 717 1180 642 1180 c 0,7,8
 565 1180 565 1180 513.5 1234 c 128,-1,9
 462 1288 462 1288 462 1362 c 0,10,11
 462 1438 462 1438 514 1490 c 0,12,13
 567 1544 567 1544 642 1544 c 0,0,1
689 -20 m 0,14,15
 548 -20 548 -20 470 80 c 1,16,-1
 470 -331 l 2,17,18
 470 -410 470 -410 390 -410 c 2,19,-1
 250 -410 l 2,20,21
 170 -410 170 -410 170 -331 c 2,22,-1
 170 930 l 2,23,24
 170 1020 170 1020 80 1020 c 2,25,-1
 35 1020 l 2,26,27
 20 1020 20 1020 20 1035 c 2,28,-1
 20 1085 l 2,29,30
 20 1100 20 1100 35 1100 c 2,31,-1
 330 1100 l 2,32,33
 440 1100 440 1100 464 1013 c 1,34,35
 540 1120 540 1120 689 1120 c 0,36,37
 895 1120 895 1120 1041 977 c 0,38,39
 1212 808 1212 808 1212 550 c 0,40,41
 1212 283 1212 283 1041 124 c 0,42,43
 886 -20 886 -20 689 -20 c 0,14,15
659 1009 m 0,44,45
 581 1009 581 1009 512 905 c 0,46,47
 485 865 485 865 470 795 c 1,48,-1
 470 305 l 1,49,50
 486 230 486 230 515 187 c 0,51,52
 579 91 579 91 660 91 c 0,53,54
 755 91 755 91 818 187 c 0,55,56
 899 309 899 309 899 550 c 0,57,58
 899 792 899 792 821 905 c 0,59,60
 749 1009 749 1009 659 1009 c 0,44,45
EndSplineSet
Validated: 1
EndChar

StartChar: uni1E60
Encoding: 7776 7776 82
Width: 1200
Flags: W
HStem: -20 120<290.47 647.077> 1399 131<490.491 778.33> 1590 364<469.131 703.338>
VStem: 40 85<298.465 483> 139 296<1099.36 1318.27> 407 360<1654.3 1891.73> 807 313<291.213 551.734> 908 83<1080 1248.71>
DStem2: 826 919 425 748 0.91982 -0.39234<-414.269 79.0375>
LayerCount: 2
Fore
SplineSet
587 1954 m 0,0,1
 663 1954 663 1954 715 1901 c 128,-1,2
 767 1848 767 1848 767 1773 c 0,3,4
 767 1699 767 1699 714 1644 c 0,5,6
 662 1590 662 1590 587 1590 c 0,7,8
 510 1590 510 1590 458.5 1644 c 128,-1,9
 407 1698 407 1698 407 1772 c 0,10,11
 407 1848 407 1848 459 1900 c 0,12,13
 512 1954 512 1954 587 1954 c 0,0,1
526 -20 m 0,14,15
 255 -20 255 -20 74 118 c 0,16,17
 40 144 40 144 40 192 c 2,18,-1
 40 468 l 2,19,20
 40 483 40 483 55 483 c 2,21,-1
 110 483 l 2,22,23
 123 483 123 483 125 468 c 0,24,25
 174 100 174 100 455 100 c 0,26,27
 624 100 624 100 722 200 c 0,28,29
 807 286 807 286 807 402 c 0,30,31
 807 483 807 483 763 552 c 0,32,33
 721 620 721 620 619 664 c 2,34,-1
 425 748 l 2,35,36
 298 803 298 803 230 882 c 0,37,38
 139 987 139 987 139 1136 c 0,39,40
 139 1221 139 1221 171 1293 c 0,41,42
 211 1383 211 1383 300 1450 c 0,43,44
 408 1530 408 1530 585 1530 c 0,45,46
 795 1530 795 1530 957 1406 c 0,47,48
 991 1380 991 1380 991 1332 c 2,49,-1
 991 1095 l 2,50,51
 991 1080 991 1080 976 1080 c 2,52,-1
 923 1080 l 2,53,54
 910 1080 910 1080 908 1095 c 0,55,56
 868 1399 868 1399 627 1399 c 0,57,58
 532 1399 532 1399 482 1346 c 0,59,60
 435 1295 435 1295 435 1215 c 0,61,62
 435 1143 435 1143 489 1089 c 0,63,64
 533 1044 533 1044 615 1009 c 2,65,-1
 826 919 l 2,66,67
 976 855 976 855 1056 729 c 0,68,69
 1120 628 1120 628 1120 488 c 0,70,71
 1120 304 1120 304 981 155 c 0,72,73
 819 -20 819 -20 526 -20 c 0,14,15
EndSplineSet
Validated: 1
EndChar

StartChar: uni1E61
Encoding: 7777 7777 83
Width: 996
Flags: W
HStem: -20 111<252.904 556.411> 1010 110<436.957 659.883> 1180 364<374.131 608.338>
VStem: 40 83<248.047 410> 110 287<782.383 967.001> 312 360<1244.3 1481.73> 639 277<190.153 401.608> 738 83<748 908.631>
LayerCount: 2
Fore
SplineSet
492 1544 m 0,0,1
 568 1544 568 1544 620 1491 c 128,-1,2
 672 1438 672 1438 672 1363 c 0,3,4
 672 1289 672 1289 619 1234 c 0,5,6
 567 1180 567 1180 492 1180 c 0,7,8
 415 1180 415 1180 363.5 1234 c 128,-1,9
 312 1288 312 1288 312 1362 c 0,10,11
 312 1438 312 1438 364 1490 c 0,12,13
 417 1544 417 1544 492 1544 c 0,0,1
446 -20 m 0,14,15
 236 -20 236 -20 74 104 c 0,16,17
 40 130 40 130 40 178 c 2,18,-1
 40 395 l 2,19,20
 40 410 40 410 55 410 c 2,21,-1
 108 410 l 2,22,23
 121 410 121 410 123 395 c 0,24,25
 164 91 164 91 404 91 c 0,26,27
 527 91 527 91 588 165 c 0,28,29
 639 227 639 227 639 291.5 c 128,-1,30
 639 356 639 356 602 394 c 0,31,32
 568 429 568 429 511 448 c 2,33,-1
 403 484 l 2,34,35
 274 527 274 527 202 594 c 0,36,37
 110 679 110 679 110 822 c 0,38,39
 110 952 110 952 229 1045 c 0,40,41
 325 1120 325 1120 483 1120 c 0,42,43
 678 1120 678 1120 797 1031 c 0,44,45
 821 1013 821 1013 821 979 c 2,46,-1
 821 763 l 2,47,48
 821 748 821 748 810 748 c 2,49,-1
 753 748 l 2,50,51
 740 748 740 748 738 763 c 0,52,53
 703 1010 703 1010 558 1010 c 0,54,55
 478 1010 478 1010 437.5 971 c 128,-1,56
 397 932 397 932 397 875 c 128,-1,57
 397 818 397 818 432 785 c 0,58,59
 458 760 458 760 520 739 c 2,60,-1
 654 693 l 2,61,62
 768 654 768 654 835 587 c 0,63,64
 916 505 916 505 916 363 c 0,65,66
 916 201 916 201 789 94 c 0,67,68
 653 -20 653 -20 446 -20 c 0,14,15
EndSplineSet
Validated: 1
EndChar

StartChar: uni1E6A
Encoding: 7786 7786 84
Width: 1454
Flags: W
HStem: 0 21G<607 847> 1370 140<186.381 567 887 1267.62> 1590 364<599.131 833.338>
VStem: 537 360<1654.3 1891.73> 567 320<4.9375 1370>
LayerCount: 2
Fore
SplineSet
717 1954 m 0,0,1
 793 1954 793 1954 845 1901 c 128,-1,2
 897 1848 897 1848 897 1773 c 0,3,4
 897 1699 897 1699 844 1644 c 0,5,6
 792 1590 792 1590 717 1590 c 0,7,8
 640 1590 640 1590 588.5 1644 c 128,-1,9
 537 1698 537 1698 537 1772 c 0,10,11
 537 1848 537 1848 589 1900 c 0,12,13
 642 1954 642 1954 717 1954 c 0,0,1
647 0 m 2,14,15
 567 0 567 0 567 79 c 2,16,-1
 567 1370 l 1,17,-1
 347 1370 l 2,18,19
 178 1370 178 1370 90 1224 c 0,20,21
 84 1214 84 1214 77 1214 c 0,22,23
 74 1214 74 1214 70 1216 c 2,24,-1
 19 1244 l 2,25,26
 10 1249 10 1249 10 1256 c 0,27,28
 10 1260 10 1260 12 1263 c 2,29,-1
 122 1447 l 2,30,31
 160 1510 160 1510 229 1510 c 2,32,-1
 1225 1510 l 2,33,34
 1294 1510 1294 1510 1332 1447 c 2,35,-1
 1442 1263 l 2,36,37
 1444 1260 1444 1260 1444 1256 c 0,38,39
 1444 1249 1444 1249 1435 1244 c 2,40,-1
 1384 1216 l 2,41,42
 1380 1214 1380 1214 1377 1214 c 0,43,44
 1370 1214 1370 1214 1364 1224 c 0,45,46
 1276 1370 1276 1370 1107 1370 c 2,47,-1
 887 1370 l 1,48,-1
 887 79 l 2,49,50
 887 0 887 0 807 0 c 2,51,-1
 647 0 l 2,14,15
EndSplineSet
Validated: 1
EndChar

StartChar: uni1E6B
Encoding: 7787 7787 85
Width: 780
Flags: W
HStem: 0 80<540.635 680> 980 120<20 230 530 760> 1430 80<80 219.365> 1590 364<239.131 473.338>
VStem: 177 360<1654.3 1891.73> 230 300<88.9014 980 1100 1421.1>
LayerCount: 2
Fore
SplineSet
357 1954 m 0,0,1
 433 1954 433 1954 485 1901 c 128,-1,2
 537 1848 537 1848 537 1773 c 0,3,4
 537 1699 537 1699 484 1644 c 0,5,6
 432 1590 432 1590 357 1590 c 0,7,8
 280 1590 280 1590 228.5 1644 c 128,-1,9
 177 1698 177 1698 177 1772 c 0,10,11
 177 1848 177 1848 229 1900 c 0,12,13
 282 1954 282 1954 357 1954 c 0,0,1
370 0 m 2,14,15
 230 0 230 0 230 140 c 2,16,-1
 230 980 l 1,17,-1
 35 980 l 2,18,19
 20 980 20 980 20 995 c 2,20,-1
 20 1085 l 2,21,22
 20 1100 20 1100 35 1100 c 2,23,-1
 230 1100 l 1,24,-1
 230 1340 l 2,25,26
 230 1430 230 1430 140 1430 c 2,27,-1
 95 1430 l 2,28,29
 80 1430 80 1430 80 1445 c 2,30,-1
 80 1495 l 2,31,32
 80 1510 80 1510 95 1510 c 2,33,-1
 390 1510 l 2,34,35
 530 1510 530 1510 530 1370 c 2,36,-1
 530 1100 l 1,37,-1
 745 1100 l 2,38,39
 760 1100 760 1100 760 1085 c 2,40,-1
 760 995 l 2,41,42
 760 980 760 980 745 980 c 2,43,-1
 530 980 l 1,44,-1
 530 170 l 2,45,46
 530 80 530 80 620 80 c 2,47,-1
 665 80 l 2,48,49
 680 80 680 80 680 65 c 2,50,-1
 680 15 l 2,51,52
 680 0 680 0 665 0 c 2,53,-1
 370 0 l 2,14,15
EndSplineSet
Validated: 1
EndChar

StartChar: Wgrave
Encoding: 7808 7808 86
Width: 2164
Flags: W
HStem: 0 21G<662.5 928.5 1239.5 1505.5> 1430 80<20 139.997 597 716.997 1447 1567 2024 2144>
DStem2: 458 1434 140 1390 0.3251 -0.94568<-88.6897 1325.08> 1025 1434 717 1390 0.3251 -0.94568<-89.3969 450.324 675.486 842.452 1067.61 1325.35> 887 180 999 80 0.323586 0.946199<0 200.622 875.351 1382.6> 1454 180 1576 80 0.323586 0.946199<0 1386.28>
LayerCount: 2
Fore
SplineSet
912 1961 m 2,0,1
 1083 1961 l 2,2,3
 1128 1961 1128 1961 1143 1920 c 2,4,-1
 1256 1616 l 2,5,6
 1261 1603 1261 1603 1261 1593 c 0,7,8
 1261 1570 1261 1570 1231 1570 c 2,9,-1
 1162 1570 l 2,10,11
 1123 1570 1123 1570 1096 1610 c 2,12,-1
 889 1916 l 2,13,14
 879 1931 879 1931 879 1940 c 0,15,16
 879 1961 879 1961 912 1961 c 2,0,1
707 0 m 2,17,18
 618 0 618 0 590 81 c 2,19,-1
 140 1390 l 2,20,21
 126 1430 126 1430 80 1430 c 2,22,-1
 35 1430 l 2,23,24
 20 1430 20 1430 20 1445 c 2,25,-1
 20 1495 l 2,26,27
 20 1510 20 1510 35 1510 c 2,28,-1
 340 1510 l 2,29,30
 432 1510 432 1510 458 1434 c 2,31,-1
 887 180 l 1,32,-1
 1010 538 l 1,33,-1
 717 1390 l 2,34,35
 703 1430 703 1430 657 1430 c 2,36,-1
 612 1430 l 2,37,38
 597 1430 597 1430 597 1445 c 2,39,-1
 597 1495 l 2,40,41
 597 1510 597 1510 612 1510 c 2,42,-1
 907 1510 l 2,43,44
 999 1510 999 1510 1025 1434 c 2,45,-1
 1171 1008 l 1,46,-1
 1317 1434 l 2,47,48
 1343 1510 1343 1510 1435 1510 c 2,49,-1
 1552 1510 l 2,50,51
 1567 1510 1567 1510 1567 1495 c 2,52,-1
 1567 1445 l 2,53,54
 1567 1430 1567 1430 1552 1430 c 2,55,-1
 1507 1430 l 2,56,57
 1461 1430 1461 1430 1447 1390 c 2,58,-1
 1244 795 l 1,59,-1
 1454 180 l 1,60,-1
 1884 1434 l 2,61,62
 1910 1510 1910 1510 2002 1510 c 2,63,-1
 2129 1510 l 2,64,65
 2144 1510 2144 1510 2144 1495 c 2,66,-1
 2144 1445 l 2,67,68
 2144 1430 2144 1430 2129 1430 c 2,69,-1
 2084 1430 l 2,70,71
 2038 1430 2038 1430 2024 1390 c 2,72,-1
 1576 80 l 2,73,74
 1549 0 1549 0 1462 0 c 2,75,-1
 1284 0 l 2,76,77
 1195 0 1195 0 1167 81 c 2,78,-1
 1083 325 l 1,79,-1
 999 80 l 2,80,81
 972 0 972 0 885 0 c 2,82,-1
 707 0 l 2,17,18
EndSplineSet
Validated: 1
EndChar

StartChar: wgrave
Encoding: 7809 7809 87
Width: 1835
Flags: W
HStem: 0 21G<555 767 1072 1284> 1020 80<20 139.997 537 656.997 1179.23 1298 1695 1815>
DStem2: 435 1024 140 980 0.354654 -0.934998<-91.7597 887.764> 942 1024 657 980 0.354654 -0.934998<-92.1942 172.169 357.33 490.745 676.841 887.764> 750 194 839 80 0.35249 0.935815<0 149.992 715.241 945.254> 1257 194 1356 80 0.35249 0.935815<0 949.02>
LayerCount: 2
Fore
SplineSet
706 1551 m 2,0,1
 877 1551 l 2,2,3
 922 1551 922 1551 937 1510 c 2,4,-1
 1050 1206 l 2,5,6
 1055 1193 1055 1193 1055 1183 c 0,7,8
 1055 1160 1055 1160 1025 1160 c 2,9,-1
 956 1160 l 2,10,11
 917 1160 917 1160 890 1200 c 2,12,-1
 683 1506 l 2,13,14
 673 1521 673 1521 673 1530 c 0,15,16
 673 1551 673 1551 706 1551 c 2,0,1
598 0 m 2,17,18
 512 0 512 0 481 81 c 2,19,-1
 140 980 l 2,20,21
 125 1020 125 1020 80 1020 c 2,22,-1
 35 1020 l 2,23,24
 20 1020 20 1020 20 1035 c 2,25,-1
 20 1085 l 2,26,27
 20 1100 20 1100 35 1100 c 2,28,-1
 317 1100 l 2,29,30
 406 1100 406 1100 435 1024 c 2,31,-1
 750 194 l 1,32,-1
 852 465 l 1,33,-1
 657 980 l 2,34,35
 642 1020 642 1020 597 1020 c 2,36,-1
 552 1020 l 2,37,38
 537 1020 537 1020 537 1035 c 2,39,-1
 537 1085 l 2,40,41
 537 1100 537 1100 552 1100 c 2,42,-1
 824 1100 l 2,43,44
 913 1100 913 1100 942 1024 c 2,45,-1
 1003 863 l 1,46,-1
 1064 1024 l 2,47,48
 1093 1100 1093 1100 1182 1100 c 2,49,-1
 1283 1100 l 2,50,51
 1298 1100 1298 1100 1298 1085 c 2,52,-1
 1298 1035 l 2,53,54
 1298 1020 1298 1020 1283 1020 c 2,55,-1
 1238 1020 l 2,56,57
 1193 1020 1193 1020 1178 980 c 2,58,-1
 1069 690 l 1,59,-1
 1257 194 l 1,60,-1
 1571 1024 l 2,61,62
 1600 1100 1600 1100 1689 1100 c 2,63,-1
 1800 1100 l 2,64,65
 1815 1100 1815 1100 1815 1085 c 2,66,-1
 1815 1035 l 2,67,68
 1815 1020 1815 1020 1800 1020 c 2,69,-1
 1755 1020 l 2,70,71
 1710 1020 1710 1020 1695 980 c 2,72,-1
 1356 80 l 2,73,74
 1326 0 1326 0 1242 0 c 2,75,-1
 1115 0 l 2,76,77
 1029 0 1029 0 998 81 c 2,78,-1
 918 291 l 1,79,-1
 839 80 l 2,80,81
 809 0 809 0 725 0 c 2,82,-1
 598 0 l 2,17,18
EndSplineSet
Validated: 1
EndChar

StartChar: Wacute
Encoding: 7810 7810 88
Width: 2164
Flags: W
HStem: 0 21G<662.5 928.5 1239.5 1505.5> 1430 80<20 139.997 597 716.997 1447 1567 2024 2144>
DStem2: 458 1434 140 1390 0.3251 -0.94568<-88.6897 1325.08> 1025 1434 717 1390 0.3251 -0.94568<-89.3969 450.324 675.486 842.452 1067.61 1325.35> 887 180 999 80 0.323586 0.946199<0 200.622 875.351 1382.6> 1454 180 1576 80 0.323586 0.946199<0 1386.28>
LayerCount: 2
Fore
SplineSet
1443 1961 m 2,0,1
 1476 1961 1476 1961 1476 1940 c 0,2,3
 1476 1931 1476 1931 1466 1916 c 2,4,-1
 1259 1610 l 2,5,6
 1232 1570 1232 1570 1193 1570 c 2,7,-1
 1124 1570 l 2,8,9
 1094 1570 1094 1570 1094 1593 c 0,10,11
 1094 1603 1094 1603 1099 1616 c 2,12,-1
 1212 1920 l 2,13,14
 1227 1961 1227 1961 1272 1961 c 2,15,-1
 1443 1961 l 2,0,1
707 0 m 2,16,17
 618 0 618 0 590 81 c 2,18,-1
 140 1390 l 2,19,20
 126 1430 126 1430 80 1430 c 2,21,-1
 35 1430 l 2,22,23
 20 1430 20 1430 20 1445 c 2,24,-1
 20 1495 l 2,25,26
 20 1510 20 1510 35 1510 c 2,27,-1
 340 1510 l 2,28,29
 432 1510 432 1510 458 1434 c 2,30,-1
 887 180 l 1,31,-1
 1010 538 l 1,32,-1
 717 1390 l 2,33,34
 703 1430 703 1430 657 1430 c 2,35,-1
 612 1430 l 2,36,37
 597 1430 597 1430 597 1445 c 2,38,-1
 597 1495 l 2,39,40
 597 1510 597 1510 612 1510 c 2,41,-1
 907 1510 l 2,42,43
 999 1510 999 1510 1025 1434 c 2,44,-1
 1171 1008 l 1,45,-1
 1317 1434 l 2,46,47
 1343 1510 1343 1510 1435 1510 c 2,48,-1
 1552 1510 l 2,49,50
 1567 1510 1567 1510 1567 1495 c 2,51,-1
 1567 1445 l 2,52,53
 1567 1430 1567 1430 1552 1430 c 2,54,-1
 1507 1430 l 2,55,56
 1461 1430 1461 1430 1447 1390 c 2,57,-1
 1244 795 l 1,58,-1
 1454 180 l 1,59,-1
 1884 1434 l 2,60,61
 1910 1510 1910 1510 2002 1510 c 2,62,-1
 2129 1510 l 2,63,64
 2144 1510 2144 1510 2144 1495 c 2,65,-1
 2144 1445 l 2,66,67
 2144 1430 2144 1430 2129 1430 c 2,68,-1
 2084 1430 l 2,69,70
 2038 1430 2038 1430 2024 1390 c 2,71,-1
 1576 80 l 2,72,73
 1549 0 1549 0 1462 0 c 2,74,-1
 1284 0 l 2,75,76
 1195 0 1195 0 1167 81 c 2,77,-1
 1083 325 l 1,78,-1
 999 80 l 2,79,80
 972 0 972 0 885 0 c 2,81,-1
 707 0 l 2,16,17
EndSplineSet
Validated: 1
EndChar

StartChar: wacute
Encoding: 7811 7811 89
Width: 1835
Flags: W
HStem: 0 21G<555 767 1072 1284> 1020 80<20 139.997 537 656.997 1179.23 1298 1695 1815>
DStem2: 435 1024 140 980 0.354654 -0.934998<-91.7597 887.764> 942 1024 657 980 0.354654 -0.934998<-92.1942 172.169 357.33 490.745 676.841 887.764> 750 194 839 80 0.35249 0.935815<0 149.992 715.241 945.254> 1257 194 1356 80 0.35249 0.935815<0 949.02>
LayerCount: 2
Fore
SplineSet
1232 1551 m 2,0,1
 1265 1551 1265 1551 1265 1530 c 0,2,3
 1265 1521 1265 1521 1255 1506 c 2,4,-1
 1048 1200 l 2,5,6
 1021 1160 1021 1160 982 1160 c 2,7,-1
 913 1160 l 2,8,9
 883 1160 883 1160 883 1183 c 0,10,11
 883 1193 883 1193 888 1206 c 2,12,-1
 1001 1510 l 2,13,14
 1016 1551 1016 1551 1061 1551 c 2,15,-1
 1232 1551 l 2,0,1
598 0 m 2,16,17
 512 0 512 0 481 81 c 2,18,-1
 140 980 l 2,19,20
 125 1020 125 1020 80 1020 c 2,21,-1
 35 1020 l 2,22,23
 20 1020 20 1020 20 1035 c 2,24,-1
 20 1085 l 2,25,26
 20 1100 20 1100 35 1100 c 2,27,-1
 317 1100 l 2,28,29
 406 1100 406 1100 435 1024 c 2,30,-1
 750 194 l 1,31,-1
 852 465 l 1,32,-1
 657 980 l 2,33,34
 642 1020 642 1020 597 1020 c 2,35,-1
 552 1020 l 2,36,37
 537 1020 537 1020 537 1035 c 2,38,-1
 537 1085 l 2,39,40
 537 1100 537 1100 552 1100 c 2,41,-1
 824 1100 l 2,42,43
 913 1100 913 1100 942 1024 c 2,44,-1
 1003 863 l 1,45,-1
 1064 1024 l 2,46,47
 1093 1100 1093 1100 1182 1100 c 2,48,-1
 1283 1100 l 2,49,50
 1298 1100 1298 1100 1298 1085 c 2,51,-1
 1298 1035 l 2,52,53
 1298 1020 1298 1020 1283 1020 c 2,54,-1
 1238 1020 l 2,55,56
 1193 1020 1193 1020 1178 980 c 2,57,-1
 1069 690 l 1,58,-1
 1257 194 l 1,59,-1
 1571 1024 l 2,60,61
 1600 1100 1600 1100 1689 1100 c 2,62,-1
 1800 1100 l 2,63,64
 1815 1100 1815 1100 1815 1085 c 2,65,-1
 1815 1035 l 2,66,67
 1815 1020 1815 1020 1800 1020 c 2,68,-1
 1755 1020 l 2,69,70
 1710 1020 1710 1020 1695 980 c 2,71,-1
 1356 80 l 2,72,73
 1326 0 1326 0 1242 0 c 2,74,-1
 1115 0 l 2,75,76
 1029 0 1029 0 998 81 c 2,77,-1
 918 291 l 1,78,-1
 839 80 l 2,79,80
 809 0 809 0 725 0 c 2,81,-1
 598 0 l 2,16,17
EndSplineSet
Validated: 1
EndChar

StartChar: Wdieresis
Encoding: 7812 7812 90
Width: 2164
Flags: W
HStem: 0 21G<662.5 928.5 1239.5 1505.5> 1430 80<20 139.997 597 716.997 1447 1567 2024 2144> 1620 297<907.833 1111.65 1245.83 1450.17>
VStem: 864 292<1665.38 1871.62> 1202 292<1665.38 1871.62>
DStem2: 458 1434 140 1390 0.3251 -0.94568<-88.6897 1325.08> 1025 1434 717 1390 0.3251 -0.94568<-89.3969 450.324 675.486 842.452 1067.61 1325.35> 887 180 999 80 0.323586 0.946199<0 200.622 875.351 1382.6> 1454 180 1576 80 0.323586 0.946199<0 1386.28>
LayerCount: 2
Fore
SplineSet
1348.5 1917 m 128,-1,1
 1409 1917 1409 1917 1451.5 1873 c 128,-1,2
 1494 1829 1494 1829 1494 1768.5 c 128,-1,3
 1494 1708 1494 1708 1451.5 1664 c 128,-1,4
 1409 1620 1409 1620 1348 1620 c 128,-1,5
 1287 1620 1287 1620 1244.5 1664 c 128,-1,6
 1202 1708 1202 1708 1202 1768 c 0,7,8
 1202 1829 1202 1829 1245 1872 c 0,9,0
 1288 1917 1288 1917 1348.5 1917 c 128,-1,1
1009.5 1917 m 128,-1,11
 1070 1917 1070 1917 1113 1873 c 128,-1,12
 1156 1829 1156 1829 1156 1768.5 c 128,-1,13
 1156 1708 1156 1708 1113 1664 c 128,-1,14
 1070 1620 1070 1620 1010 1620 c 0,15,16
 949 1620 949 1620 906.5 1664 c 128,-1,17
 864 1708 864 1708 864 1768 c 0,18,19
 864 1829 864 1829 906 1872 c 0,20,10
 949 1917 949 1917 1009.5 1917 c 128,-1,11
707 0 m 2,21,22
 618 0 618 0 590 81 c 2,23,-1
 140 1390 l 2,24,25
 126 1430 126 1430 80 1430 c 2,26,-1
 35 1430 l 2,27,28
 20 1430 20 1430 20 1445 c 2,29,-1
 20 1495 l 2,30,31
 20 1510 20 1510 35 1510 c 2,32,-1
 340 1510 l 2,33,34
 432 1510 432 1510 458 1434 c 2,35,-1
 887 180 l 1,36,-1
 1010 538 l 1,37,-1
 717 1390 l 2,38,39
 703 1430 703 1430 657 1430 c 2,40,-1
 612 1430 l 2,41,42
 597 1430 597 1430 597 1445 c 2,43,-1
 597 1495 l 2,44,45
 597 1510 597 1510 612 1510 c 2,46,-1
 907 1510 l 2,47,48
 999 1510 999 1510 1025 1434 c 2,49,-1
 1171 1008 l 1,50,-1
 1317 1434 l 2,51,52
 1343 1510 1343 1510 1435 1510 c 2,53,-1
 1552 1510 l 2,54,55
 1567 1510 1567 1510 1567 1495 c 2,56,-1
 1567 1445 l 2,57,58
 1567 1430 1567 1430 1552 1430 c 2,59,-1
 1507 1430 l 2,60,61
 1461 1430 1461 1430 1447 1390 c 2,62,-1
 1244 795 l 1,63,-1
 1454 180 l 1,64,-1
 1884 1434 l 2,65,66
 1910 1510 1910 1510 2002 1510 c 2,67,-1
 2129 1510 l 2,68,69
 2144 1510 2144 1510 2144 1495 c 2,70,-1
 2144 1445 l 2,71,72
 2144 1430 2144 1430 2129 1430 c 2,73,-1
 2084 1430 l 2,74,75
 2038 1430 2038 1430 2024 1390 c 2,76,-1
 1576 80 l 2,77,78
 1549 0 1549 0 1462 0 c 2,79,-1
 1284 0 l 2,80,81
 1195 0 1195 0 1167 81 c 2,82,-1
 1083 325 l 1,83,-1
 999 80 l 2,84,85
 972 0 972 0 885 0 c 2,86,-1
 707 0 l 2,21,22
EndSplineSet
Validated: 1
EndChar

StartChar: wdieresis
Encoding: 7813 7813 91
Width: 1835
Flags: W
HStem: 0 21G<555 767 1072 1284> 1020 80<20 139.997 537 656.997 1179.23 1298 1695 1815> 1210 297<706.833 910.652 1044.83 1249.17>
VStem: 663 292<1255.38 1461.62> 1001 292<1255.38 1461.62>
DStem2: 435 1024 140 980 0.354654 -0.934998<-91.7597 887.764> 942 1024 657 980 0.354654 -0.934998<-92.1942 172.169 357.33 490.745 676.841 887.764> 750 194 839 80 0.35249 0.935815<0 149.992 715.241 945.254> 1257 194 1356 80 0.35249 0.935815<0 949.02>
LayerCount: 2
Fore
SplineSet
1147.5 1507 m 128,-1,1
 1208 1507 1208 1507 1250.5 1463 c 128,-1,2
 1293 1419 1293 1419 1293 1358.5 c 128,-1,3
 1293 1298 1293 1298 1250.5 1254 c 128,-1,4
 1208 1210 1208 1210 1147 1210 c 128,-1,5
 1086 1210 1086 1210 1043.5 1254 c 128,-1,6
 1001 1298 1001 1298 1001 1358 c 0,7,8
 1001 1419 1001 1419 1044 1462 c 0,9,0
 1087 1507 1087 1507 1147.5 1507 c 128,-1,1
808.5 1507 m 128,-1,11
 869 1507 869 1507 912 1463 c 128,-1,12
 955 1419 955 1419 955 1358.5 c 128,-1,13
 955 1298 955 1298 912 1254 c 128,-1,14
 869 1210 869 1210 809 1210 c 0,15,16
 748 1210 748 1210 705.5 1254 c 128,-1,17
 663 1298 663 1298 663 1358 c 0,18,19
 663 1419 663 1419 705 1462 c 0,20,10
 748 1507 748 1507 808.5 1507 c 128,-1,11
598 0 m 2,21,22
 512 0 512 0 481 81 c 2,23,-1
 140 980 l 2,24,25
 125 1020 125 1020 80 1020 c 2,26,-1
 35 1020 l 2,27,28
 20 1020 20 1020 20 1035 c 2,29,-1
 20 1085 l 2,30,31
 20 1100 20 1100 35 1100 c 2,32,-1
 317 1100 l 2,33,34
 406 1100 406 1100 435 1024 c 2,35,-1
 750 194 l 1,36,-1
 852 465 l 1,37,-1
 657 980 l 2,38,39
 642 1020 642 1020 597 1020 c 2,40,-1
 552 1020 l 2,41,42
 537 1020 537 1020 537 1035 c 2,43,-1
 537 1085 l 2,44,45
 537 1100 537 1100 552 1100 c 2,46,-1
 824 1100 l 2,47,48
 913 1100 913 1100 942 1024 c 2,49,-1
 1003 863 l 1,50,-1
 1064 1024 l 2,51,52
 1093 1100 1093 1100 1182 1100 c 2,53,-1
 1283 1100 l 2,54,55
 1298 1100 1298 1100 1298 1085 c 2,56,-1
 1298 1035 l 2,57,58
 1298 1020 1298 1020 1283 1020 c 2,59,-1
 1238 1020 l 2,60,61
 1193 1020 1193 1020 1178 980 c 2,62,-1
 1069 690 l 1,63,-1
 1257 194 l 1,64,-1
 1571 1024 l 2,65,66
 1600 1100 1600 1100 1689 1100 c 2,67,-1
 1800 1100 l 2,68,69
 1815 1100 1815 1100 1815 1085 c 2,70,-1
 1815 1035 l 2,71,72
 1815 1020 1815 1020 1800 1020 c 2,73,-1
 1755 1020 l 2,74,75
 1710 1020 1710 1020 1695 980 c 2,76,-1
 1356 80 l 2,77,78
 1326 0 1326 0 1242 0 c 2,79,-1
 1115 0 l 2,80,81
 1029 0 1029 0 998 81 c 2,82,-1
 918 291 l 1,83,-1
 839 80 l 2,84,85
 809 0 809 0 725 0 c 2,86,-1
 598 0 l 2,21,22
EndSplineSet
Validated: 1
EndChar

StartChar: Ygrave
Encoding: 7922 7922 92
Width: 1428
Flags: W
HStem: 0 21G<596 836> 1430 80<20 139.996 1288 1408>
VStem: 556 320<4.9375 640>
DStem2: 446 1434 140 1390 0.485049 -0.874487<-106.234 744.394> 807 783 876 640 0.48147 0.876463<0 832.65>
LayerCount: 2
Fore
SplineSet
562 1961 m 2,0,1
 733 1961 l 2,2,3
 778 1961 778 1961 793 1920 c 2,4,-1
 906 1616 l 2,5,6
 911 1603 911 1603 911 1593 c 0,7,8
 911 1570 911 1570 881 1570 c 2,9,-1
 812 1570 l 2,10,11
 773 1570 773 1570 746 1610 c 2,12,-1
 539 1916 l 2,13,14
 529 1931 529 1931 529 1940 c 0,15,16
 529 1961 529 1961 562 1961 c 2,0,1
636 0 m 2,17,18
 556 0 556 0 556 79 c 2,19,-1
 556 640 l 1,20,-1
 140 1390 l 2,21,22
 118 1430 118 1430 80 1430 c 2,23,-1
 35 1430 l 2,24,25
 20 1430 20 1430 20 1445 c 2,26,-1
 20 1495 l 2,27,28
 20 1510 20 1510 35 1510 c 2,29,-1
 313 1510 l 2,30,31
 404 1510 404 1510 446 1434 c 2,32,-1
 807 783 l 1,33,-1
 1160 1434 l 2,34,35
 1201 1510 1201 1510 1278 1510 c 2,36,-1
 1393 1510 l 2,37,38
 1408 1510 1408 1510 1408 1495 c 2,39,-1
 1408 1445 l 2,40,41
 1408 1430 1408 1430 1393 1430 c 2,42,-1
 1348 1430 l 2,43,44
 1310 1430 1310 1430 1288 1390 c 2,45,-1
 876 640 l 1,46,-1
 876 79 l 2,47,48
 876 0 876 0 796 0 c 2,49,-1
 636 0 l 2,17,18
EndSplineSet
Validated: 1
EndChar

StartChar: ygrave
Encoding: 7923 7923 93
Width: 1342
Flags: W
HStem: -410 80<463 582.997> 1020 80<20 139.997 1202 1322>
DStem2: 435 1024 140 980 0.354654 -0.934998<-91.7597 908.638> 583 -290 707 -334 0.352528 0.935801<-59.0736 309.808 495.552 1465.76>
LayerCount: 2
Fore
SplineSet
506 1551 m 2,0,1
 677 1551 l 2,2,3
 722 1551 722 1551 737 1510 c 2,4,-1
 850 1206 l 2,5,6
 855 1193 855 1193 855 1183 c 0,7,8
 855 1160 855 1160 825 1160 c 2,9,-1
 756 1160 l 2,10,11
 717 1160 717 1160 690 1200 c 2,12,-1
 483 1506 l 2,13,14
 473 1521 473 1521 473 1530 c 0,15,16
 473 1551 473 1551 506 1551 c 2,0,1
598 0 m 2,17,18
 512 0 512 0 481 81 c 2,19,-1
 140 980 l 2,20,21
 125 1020 125 1020 80 1020 c 2,22,-1
 35 1020 l 2,23,24
 20 1020 20 1020 20 1035 c 2,25,-1
 20 1085 l 2,26,27
 20 1100 20 1100 35 1100 c 2,28,-1
 317 1100 l 2,29,30
 406 1100 406 1100 435 1024 c 2,31,-1
 757 174 l 1,32,-1
 1078 1024 l 2,33,34
 1107 1100 1107 1100 1196 1100 c 2,35,-1
 1307 1100 l 2,36,37
 1322 1100 1322 1100 1322 1085 c 2,38,-1
 1322 1035 l 2,39,40
 1322 1020 1322 1020 1307 1020 c 2,41,-1
 1262 1020 l 2,42,43
 1217 1020 1217 1020 1202 980 c 2,44,-1
 707 -334 l 2,45,46
 678 -410 678 -410 589 -410 c 2,47,-1
 478 -410 l 2,48,49
 463 -410 463 -410 463 -395 c 2,50,-1
 463 -345 l 2,51,52
 463 -330 463 -330 478 -330 c 2,53,-1
 523 -330 l 2,54,55
 568 -330 568 -330 583 -290 c 2,56,-1
 692 0 l 1,57,-1
 598 0 l 2,17,18
EndSplineSet
Validated: 1
EndChar

StartChar: uni1E40
Encoding: 7744 7744 94
Width: 1923
Flags: W
HStem: 0 80<20 139.832 1783.17 1903> 1430 80<175 294.616 1626.45 1746> 1590 364<849.131 1083.34>
VStem: 787 360<1654.3 1891.73>
DStem2: 140 120 286 76 0.121148 0.992634<-44.1579 949.154> 626 1434 412 1043 0.287735 -0.95771<312.889 1185.12> 967 299 1058 80 0.308423 0.951249<0 798.86> 1626 1390 1355 1013 0.122688 -0.992445<340.903 1323.89>
LayerCount: 2
Fore
SplineSet
967 1954 m 0,0,1
 1043 1954 1043 1954 1095 1901 c 128,-1,2
 1147 1848 1147 1848 1147 1773 c 0,3,4
 1147 1699 1147 1699 1094 1644 c 0,5,6
 1042 1590 1042 1590 967 1590 c 0,7,8
 890 1590 890 1590 838.5 1644 c 128,-1,9
 787 1698 787 1698 787 1772 c 0,10,11
 787 1848 787 1848 839 1900 c 0,12,13
 892 1954 892 1954 967 1954 c 0,0,1
168 0 m 2,14,-1
 35 0 l 2,15,16
 20 0 20 0 20 15 c 2,17,-1
 20 65 l 2,18,19
 20 80 20 80 35 80 c 2,20,-1
 80 80 l 2,21,22
 135 80 135 80 140 120 c 2,23,-1
 295 1390 l 1,24,25
 283 1430 283 1430 235 1430 c 2,26,-1
 190 1430 l 2,27,28
 175 1430 175 1430 175 1445 c 2,29,-1
 175 1495 l 2,30,31
 175 1510 175 1510 190 1510 c 2,32,-1
 508 1510 l 2,33,34
 603 1510 603 1510 626 1434 c 2,35,-1
 967 299 l 1,36,-1
 1335 1434 l 2,37,38
 1360 1510 1360 1510 1453 1510 c 2,39,-1
 1731 1510 l 2,40,41
 1746 1510 1746 1510 1746 1495 c 2,42,-1
 1746 1445 l 2,43,44
 1746 1430 1746 1430 1731 1430 c 2,45,-1
 1686 1430 l 2,46,47
 1640 1430 1640 1430 1626 1390 c 1,48,-1
 1783 120 l 2,49,50
 1788 80 1788 80 1843 80 c 2,51,-1
 1888 80 l 2,52,53
 1903 80 1903 80 1903 65 c 2,54,-1
 1903 15 l 2,55,56
 1903 0 1903 0 1888 0 c 2,57,-1
 1595 0 l 2,58,59
 1487 0 1487 0 1477 76 c 2,60,-1
 1355 1013 l 1,61,-1
 1058 80 l 2,62,63
 1033 0 1033 0 944 0 c 2,64,-1
 816 0 l 2,65,66
 723 0 723 0 699 81 c 2,67,-1
 412 1043 l 1,68,-1
 286 76 l 2,69,70
 276 0 276 0 168 0 c 2,14,-1
EndSplineSet
Validated: 1
EndChar

StartChar: p
Encoding: 112 112 95
Width: 1272
Flags: W
HStem: -410 21G<210 430> -20 111<559.587 773.194> 1009 111<561.142 766.757> 1020 80<20 159.365>
VStem: 170 300<-405.062 80 187.009 908.225> 899 313<307.882 786.224>
LayerCount: 2
Fore
SplineSet
689 -20 m 0,0,1
 548 -20 548 -20 470 80 c 1,2,-1
 470 -331 l 2,3,4
 470 -410 470 -410 390 -410 c 2,5,-1
 250 -410 l 2,6,7
 170 -410 170 -410 170 -331 c 2,8,-1
 170 930 l 2,9,10
 170 1020 170 1020 80 1020 c 2,11,-1
 35 1020 l 2,12,13
 20 1020 20 1020 20 1035 c 2,14,-1
 20 1085 l 2,15,16
 20 1100 20 1100 35 1100 c 2,17,-1
 330 1100 l 2,18,19
 440 1100 440 1100 464 1013 c 1,20,21
 540 1120 540 1120 689 1120 c 0,22,23
 895 1120 895 1120 1041 977 c 0,24,25
 1212 808 1212 808 1212 550 c 0,26,27
 1212 283 1212 283 1041 124 c 0,28,29
 886 -20 886 -20 689 -20 c 0,0,1
659 1009 m 0,30,31
 581 1009 581 1009 512 905 c 0,32,33
 485 865 485 865 470 795 c 1,34,-1
 470 305 l 1,35,36
 486 230 486 230 515 187 c 0,37,38
 579 91 579 91 660 91 c 0,39,40
 755 91 755 91 818 187 c 0,41,42
 899 309 899 309 899 550 c 0,43,44
 899 792 899 792 821 905 c 0,45,46
 749 1009 749 1009 659 1009 c 0,30,31
EndSplineSet
Validated: 1
EndChar

StartChar: b
Encoding: 98 98 96
Width: 1272
Flags: W
HStem: -20 111<559.587 773.194> 0 21G<210 430> 1009 111<561.625 766.757> 1430 80<20 159.365>
VStem: 170 300<5.57397 80 187.009 908.225 1022 1421.1> 899 313<307.882 786.224>
LayerCount: 2
Fore
SplineSet
250 0 m 2,0,1
 170 0 170 0 170 79 c 2,2,-1
 170 1340 l 2,3,4
 170 1430 170 1430 80 1430 c 2,5,-1
 35 1430 l 2,6,7
 20 1430 20 1430 20 1445 c 2,8,-1
 20 1495 l 2,9,10
 20 1510 20 1510 35 1510 c 2,11,-1
 330 1510 l 2,12,13
 470 1510 470 1510 470 1370 c 2,14,-1
 470 1022 l 1,15,16
 546 1120 546 1120 689 1120 c 0,17,18
 895 1120 895 1120 1041 977 c 0,19,20
 1212 808 1212 808 1212 550 c 0,21,22
 1212 283 1212 283 1041 124 c 0,23,24
 886 -20 886 -20 689 -20 c 0,25,26
 548 -20 548 -20 470 80 c 1,27,28
 470 0 470 0 390 0 c 2,29,-1
 250 0 l 2,0,1
659 1009 m 0,30,31
 581 1009 581 1009 512 905 c 0,32,33
 485 865 485 865 470 795 c 1,34,-1
 470 305 l 1,35,36
 486 230 486 230 515 187 c 0,37,38
 579 91 579 91 660 91 c 0,39,40
 755 91 755 91 818 187 c 0,41,42
 899 309 899 309 899 550 c 0,43,44
 899 792 899 792 821 905 c 0,45,46
 749 1009 749 1009 659 1009 c 0,30,31
EndSplineSet
Validated: 1
EndChar

StartChar: q
Encoding: 113 113 97
Width: 1272
Flags: W
HStem: -410 80<1112.63 1252> -20 111<505.243 710.375> 1009 111<498.806 712.413> 1080 20G<842 1062>
VStem: 60 313<313.776 792.118> 802 300<-321.099 78 191.775 912.991 1020 1094.43>
LayerCount: 2
Fore
SplineSet
583 -20 m 0,0,1
 377 -20 377 -20 231 123 c 0,2,3
 60 292 60 292 60 550 c 0,4,5
 60 817 60 817 231 976 c 0,6,7
 386 1120 386 1120 583 1120 c 0,8,9
 724 1120 724 1120 802 1020 c 1,10,11
 802 1100 802 1100 882 1100 c 2,12,-1
 1022 1100 l 2,13,14
 1102 1100 1102 1100 1102 1021 c 2,15,-1
 1102 -240 l 2,16,17
 1102 -330 1102 -330 1192 -330 c 2,18,-1
 1237 -330 l 2,19,20
 1252 -330 1252 -330 1252 -345 c 2,21,-1
 1252 -395 l 2,22,23
 1252 -410 1252 -410 1237 -410 c 2,24,-1
 942 -410 l 2,25,26
 802 -410 802 -410 802 -270 c 2,27,-1
 802 78 l 1,28,29
 726 -20 726 -20 583 -20 c 0,0,1
613 91 m 0,30,31
 691 91 691 91 760 195 c 0,32,33
 787 235 787 235 802 305 c 1,34,-1
 802 795 l 1,35,36
 786 870 786 870 757 913 c 0,37,38
 693 1009 693 1009 612 1009 c 0,39,40
 517 1009 517 1009 454 913 c 0,41,42
 373 791 373 791 373 550 c 0,43,44
 373 308 373 308 451 195 c 0,45,46
 523 91 523 91 613 91 c 0,30,31
EndSplineSet
Validated: 1
EndChar

StartChar: g
Encoding: 103 103 98
Width: 1262
Flags: W
HStem: -430 111<359.662 640.239> -20 111<505.243 710.375> 1009 111<498.806 712.413> 1080 20G<842 1062>
VStem: 60 313<313.776 792.118> 178 83<-198 -48> 802 300<-95.75 78 191.775 912.991 1020 1094.43>
LayerCount: 2
Fore
SplineSet
583 -20 m 0,0,1
 377 -20 377 -20 231 123 c 0,2,3
 60 292 60 292 60 550 c 0,4,5
 60 817 60 817 231 976 c 0,6,7
 386 1120 386 1120 583 1120 c 0,8,9
 724 1120 724 1120 802 1020 c 1,10,11
 802 1100 802 1100 882 1100 c 2,12,-1
 1022 1100 l 2,13,14
 1102 1100 1102 1100 1102 1021 c 2,15,-1
 1102 140 l 2,16,17
 1102 -118 1102 -118 931 -287 c 0,18,19
 785 -430 785 -430 549 -430 c 0,20,21
 348 -430 348 -430 212 -354 c 0,22,23
 178 -334 178 -334 178 -280 c 2,24,-1
 178 -63 l 2,25,26
 178 -48 178 -48 193 -48 c 2,27,-1
 246 -48 l 2,28,29
 259 -48 259 -48 261 -63 c 0,30,31
 301 -319 301 -319 488 -319 c 0,32,33
 628 -319 628 -319 716 -203 c 0,34,35
 802 -89 802 -89 802 78 c 1,36,37
 726 -20 726 -20 583 -20 c 0,0,1
613 91 m 0,38,39
 691 91 691 91 760 195 c 0,40,41
 787 235 787 235 802 305 c 1,42,-1
 802 795 l 1,43,44
 786 870 786 870 757 913 c 0,45,46
 693 1009 693 1009 612 1009 c 0,47,48
 517 1009 517 1009 454 913 c 0,49,50
 373 791 373 791 373 550 c 0,51,52
 373 308 373 308 451 195 c 0,53,54
 523 91 523 91 613 91 c 0,38,39
EndSplineSet
Validated: 1
EndChar

StartChar: f
Encoding: 102 102 99
Width: 995
Flags: W
HStem: 0 21G<210 430> 710 120<20 170 470 760> 1420 110<564.911 806.844>
VStem: 170 300<4.9375 710 830 1314.79> 892 83<1146 1318.83>
LayerCount: 2
Fore
SplineSet
390 0 m 2,0,-1
 250 0 l 2,1,2
 170 0 170 0 170 79 c 2,3,-1
 170 710 l 1,4,-1
 35 710 l 2,5,6
 20 710 20 710 20 725 c 2,7,-1
 20 815 l 2,8,9
 20 830 20 830 35 830 c 2,10,-1
 170 830 l 1,11,-1
 170 1130 l 2,12,13
 170 1312 170 1312 300 1431 c 0,14,15
 408 1530 408 1530 617 1530 c 0,16,17
 817 1530 817 1530 951 1429 c 0,18,19
 975 1411 975 1411 975 1377 c 2,20,-1
 975 1161 l 2,21,22
 975 1146 975 1146 964 1146 c 2,23,-1
 907 1146 l 2,24,25
 894 1146 894 1146 892 1161 c 0,26,27
 864 1420 864 1420 692 1420 c 0,28,29
 592 1420 592 1420 534 1346 c 0,30,31
 470 1265 470 1265 470 1070 c 2,32,-1
 470 830 l 1,33,-1
 745 830 l 2,34,35
 760 830 760 830 760 815 c 2,36,-1
 760 725 l 2,37,38
 760 710 760 710 745 710 c 2,39,-1
 470 710 l 1,40,-1
 470 79 l 2,41,42
 470 0 470 0 390 0 c 2,0,-1
EndSplineSet
Validated: 1
EndChar

StartChar: a
Encoding: 97 97 100
Width: 1225
Flags: W
HStem: -20 110<456.651 692.408> 0 80<1065.63 1205> 584 110<456.352 693.147> 1010 110<390.68 646.19>
VStem: 60 318<176.539 498.981> 217 83<736 898.458> 755 300<153.916 523.054 624 879.288>
LayerCount: 2
Fore
SplineSet
895 0 m 2,0,1
 810 0 810 0 779 72 c 1,2,3
 744 40 744 40 687 15 c 0,4,5
 607 -20 607 -20 498 -20 c 0,6,7
 303 -20 303 -20 195 67 c 0,8,9
 60 176 60 176 60 337 c 0,10,11
 60 507 60 507 196 607 c 0,12,13
 314 694 314 694 498 694 c 0,14,15
 607 694 607 694 693 658 c 0,16,17
 722 646 722 646 755 624 c 1,18,-1
 755 665 l 2,19,20
 755 855 755 855 679 938 c 0,21,22
 612 1010 612 1010 507 1010 c 0,23,24
 335 1010 335 1010 300 751 c 0,25,26
 298 736 298 736 285 736 c 2,27,-1
 228 736 l 2,28,29
 217 736 217 736 217 751 c 2,30,-1
 217 967 l 2,31,32
 217 1001 217 1001 241 1019 c 0,33,34
 375 1120 375 1120 575 1120 c 0,35,36
 784 1120 784 1120 914 1007 c 0,37,38
 1055 886 1055 886 1055 662 c 2,39,-1
 1055 170 l 2,40,41
 1055 80 1055 80 1145 80 c 2,42,-1
 1190 80 l 2,43,44
 1205 80 1205 80 1205 65 c 2,45,-1
 1205 15 l 2,46,47
 1205 0 1205 0 1190 0 c 2,48,-1
 895 0 l 2,0,1
755 247 m 1,49,-1
 755 428 l 1,50,51
 742 492 742 492 705 529 c 0,52,53
 648 584 648 584 579 584 c 0,54,55
 492 584 492 584 445 530 c 0,56,57
 378 454 378 454 378 338 c 0,58,59
 378 224 378 224 442 150 c 0,60,61
 493 90 493 90 573 90 c 0,62,63
 655 90 655 90 708 150 c 0,64,65
 748 194 748 194 755 247 c 1,49,-1
EndSplineSet
Validated: 1
EndChar

StartChar: s
Encoding: 115 115 101
Width: 996
Flags: W
HStem: -20 111<252.904 556.411> 1010 110<436.957 659.883>
VStem: 40 83<248.047 410> 110 287<782.383 967.001> 639 277<190.153 401.608> 738 83<748 908.631>
LayerCount: 2
Fore
SplineSet
446 -20 m 0,0,1
 236 -20 236 -20 74 104 c 0,2,3
 40 130 40 130 40 178 c 2,4,-1
 40 395 l 2,5,6
 40 410 40 410 55 410 c 2,7,-1
 108 410 l 2,8,9
 121 410 121 410 123 395 c 0,10,11
 164 91 164 91 404 91 c 0,12,13
 527 91 527 91 588 165 c 0,14,15
 639 227 639 227 639 291.5 c 128,-1,16
 639 356 639 356 602 394 c 0,17,18
 568 429 568 429 511 448 c 2,19,-1
 403 484 l 2,20,21
 274 527 274 527 202 594 c 0,22,23
 110 679 110 679 110 822 c 0,24,25
 110 952 110 952 229 1045 c 0,26,27
 325 1120 325 1120 483 1120 c 0,28,29
 678 1120 678 1120 797 1031 c 0,30,31
 821 1013 821 1013 821 979 c 2,32,-1
 821 763 l 2,33,34
 821 748 821 748 810 748 c 2,35,-1
 753 748 l 2,36,37
 740 748 740 748 738 763 c 0,38,39
 703 1010 703 1010 558 1010 c 0,40,41
 478 1010 478 1010 437.5 971 c 128,-1,42
 397 932 397 932 397 875 c 128,-1,43
 397 818 397 818 432 785 c 0,44,45
 458 760 458 760 520 739 c 2,46,-1
 654 693 l 2,47,48
 768 654 768 654 835 587 c 0,49,50
 916 505 916 505 916 363 c 0,51,52
 916 201 916 201 789 94 c 0,53,54
 653 -20 653 -20 446 -20 c 0,0,1
EndSplineSet
Validated: 1
EndChar

StartChar: x
Encoding: 120 120 102
Width: 1088
Flags: W
HStem: 0 80<30 139.994 958.005 1068> 1020 80<20 129.995 958.006 1068>
DStem2: 427 1024 130 980 0.506478 -0.862253<-108.443 355.015 588.978 1044.37> 140 120 252 76 0.615509 0.78813<-84.9553 413.324 758.744 1266.23>
LayerCount: 2
Fore
SplineSet
141 0 m 2,0,-1
 45 0 l 2,1,2
 30 0 30 0 30 15 c 2,3,-1
 30 65 l 2,4,5
 30 80 30 80 45 80 c 2,6,-1
 80 80 l 2,7,8
 109 80 109 80 140 120 c 2,9,-1
 423 482 l 1,10,-1
 130 980 l 2,11,12
 107 1020 107 1020 70 1020 c 2,13,-1
 35 1020 l 2,14,15
 20 1020 20 1020 20 1035 c 2,16,-1
 20 1085 l 2,17,18
 20 1100 20 1100 35 1100 c 2,19,-1
 292 1100 l 2,20,21
 382 1100 382 1100 427 1024 c 2,22,-1
 607 718 l 1,23,-1
 846 1024 l 2,24,25
 905 1100 905 1100 957 1100 c 2,26,-1
 1053 1100 l 2,27,28
 1068 1100 1068 1100 1068 1085 c 2,29,-1
 1068 1035 l 2,30,31
 1068 1020 1068 1020 1053 1020 c 2,32,-1
 1018 1020 l 2,33,34
 989 1020 989 1020 958 980 c 2,35,-1
 670 611 l 1,36,-1
 958 120 l 2,37,38
 981 80 981 80 1018 80 c 2,39,-1
 1053 80 l 2,40,41
 1068 80 1068 80 1068 65 c 2,42,-1
 1068 15 l 2,43,44
 1068 0 1068 0 1053 0 c 2,45,-1
 796 0 l 2,46,47
 706 0 706 0 661 76 c 2,48,-1
 485 375 l 1,49,-1
 252 76 l 2,50,51
 193 0 193 0 141 0 c 2,0,-1
EndSplineSet
Validated: 1
EndChar

StartChar: K
Encoding: 75 75 103
Width: 1331
Flags: W
HStem: 0 80<20 159.365 1177 1311> 1430 80<20 159.365 1160.01 1270>
VStem: 170 320<88.9014 462 692 1421.1>
DStem2: 490 692 605 622 0.585363 0.810771<0 10.5627 365.82 1038.62> 813 910 605 622 0.418475 -0.908228<174.527 875.228>
LayerCount: 2
Fore
SplineSet
350 0 m 2,0,1
 35 0 l 2,2,3
 20 0 20 0 20 15 c 2,4,-1
 20 65 l 2,5,6
 20 80 20 80 35 80 c 2,7,-1
 80 80 l 2,8,9
 170 80 170 80 170 170 c 2,10,-1
 170 1340 l 2,11,12
 170 1430 170 1430 80 1430 c 2,13,-1
 35 1430 l 2,14,15
 20 1430 20 1430 20 1445 c 2,16,-1
 20 1495 l 2,17,18
 20 1510 20 1510 35 1510 c 2,19,-1
 350 1510 l 2,20,21
 490 1510 490 1510 490 1370 c 2,22,-1
 490 692 l 1,23,-1
 1026 1434 l 2,24,25
 1081 1510 1081 1510 1144 1510 c 2,26,-1
 1255 1510 l 2,27,28
 1270 1510 1270 1510 1270 1495 c 2,29,-1
 1270 1445 l 2,30,31
 1270 1430 1270 1430 1255 1430 c 2,32,-1
 1220 1430 l 2,33,34
 1189 1430 1189 1430 1160 1390 c 2,35,-1
 813 910 l 1,36,-1
 1177 120 l 2,37,38
 1195 80 1195 80 1251 80 c 2,39,-1
 1296 80 l 2,40,41
 1311 80 1311 80 1311 65 c 2,42,-1
 1311 15 l 2,43,44
 1311 0 1311 0 1296 0 c 2,45,-1
 972 0 l 2,46,47
 889 0 889 0 854 76 c 2,48,-1
 605 622 l 1,49,-1
 490 462 l 1,50,-1
 490 140 l 2,51,52
 490 0 490 0 350 0 c 2,0,1
EndSplineSet
Validated: 1
EndChar

StartChar: D
Encoding: 68 68 104
Width: 1497
Flags: W
HStem: 0 121<490 857.279> 0 80<20 159.365> 1389 121<490 857.621> 1430 80<20 159.365>
VStem: 170 320<122.539 1387.46> 1088 349<485.833 1029.07>
LayerCount: 2
Fore
SplineSet
700 121 m 2,0,1
 876 121 876 121 976 290 c 0,2,3
 1088 480 1088 480 1088 755 c 0,4,5
 1088 1039 1088 1039 976 1220 c 0,6,7
 871 1389 871 1389 700 1389 c 2,8,-1
 490 1389 l 1,9,-1
 490 121 l 1,10,-1
 700 121 l 2,0,1
720 0 m 2,11,-1
 35 0 l 2,12,13
 20 0 20 0 20 15 c 2,14,-1
 20 60 l 2,15,16
 20 80 20 80 35 80 c 2,17,-1
 80 80 l 2,18,19
 170 80 170 80 170 170 c 2,20,-1
 170 1340 l 2,21,22
 170 1430 170 1430 80 1430 c 2,23,-1
 35 1430 l 2,24,25
 20 1430 20 1430 20 1445 c 2,26,-1
 20 1495 l 2,27,28
 20 1510 20 1510 35 1510 c 2,29,-1
 720 1510 l 2,30,31
 1049 1510 1049 1510 1246 1279 c 0,32,33
 1437 1055 1437 1055 1437 765 c 0,34,35
 1437 455 1437 455 1246 231 c 0,36,37
 1048 0 1048 0 720 0 c 2,11,-1
EndSplineSet
Validated: 1
EndChar

StartChar: C
Encoding: 67 67 105
Width: 1400
Flags: W
HStem: -20 120<656.91 1028.19> 1410 120<651.344 1029.68>
VStem: 60 349<470.863 1041.14> 1205 85<309.25 487 1027 1203>
LayerCount: 2
Fore
SplineSet
777 -20 m 0,0,1
 449 -20 449 -20 251 211 c 0,2,3
 60 435 60 435 60 755 c 0,4,5
 60 1077 60 1077 251 1299 c 0,6,7
 450 1530 450 1530 777 1530 c 0,8,9
 1075 1530 1075 1530 1256 1392 c 0,10,11
 1290 1366 1290 1366 1290 1318 c 2,12,-1
 1290 1042 l 2,13,14
 1290 1027 1290 1027 1275 1027 c 2,15,-1
 1220 1027 l 2,16,17
 1207 1027 1207 1027 1205 1042 c 0,18,19
 1155 1410 1155 1410 848 1410 c 0,20,21
 622 1410 622 1410 521 1240 c 0,22,23
 409 1050 409 1050 409 755 c 0,24,25
 409 451 409 451 521 270 c 0,26,27
 626 100 626 100 848 100 c 0,28,29
 1155 100 1155 100 1205 472 c 0,30,31
 1207 487 1207 487 1220 487 c 2,32,-1
 1275 487 l 2,33,34
 1290 487 1290 487 1290 472 c 2,35,-1
 1290 196 l 2,36,37
 1290 148 1290 148 1256 122 c 0,38,39
 1069 -20 1069 -20 777 -20 c 0,0,1
EndSplineSet
Validated: 1
EndChar

StartChar: G
Encoding: 71 71 106
Width: 1531
Flags: W
HStem: -20 120<656.91 994.604> 746 80<921 1060.37> 1410 120<651.344 1029.68>
VStem: 60 349<470.863 1041.14> 1071 320<193.179 737.099> 1205 85<1027 1203>
LayerCount: 2
Fore
SplineSet
777 -20 m 0,0,1
 449 -20 449 -20 251 211 c 0,2,3
 60 435 60 435 60 755 c 0,4,5
 60 1077 60 1077 251 1299 c 0,6,7
 450 1530 450 1530 777 1530 c 0,8,9
 1075 1530 1075 1530 1256 1392 c 0,10,11
 1290 1366 1290 1366 1290 1318 c 2,12,-1
 1290 1042 l 2,13,14
 1290 1027 1290 1027 1275 1027 c 2,15,16
 1220 1027 l 2,17,18
 1207 1027 1207 1027 1205 1042 c 0,19,20
 1155 1410 1155 1410 848 1410 c 0,21,22
 622 1410 622 1410 521 1240 c 0,23,24
 409 1050 409 1050 409 755 c 0,25,26
 409 451 409 451 521 270 c 0,27,28
 626 100 626 100 848 100 c 0,29,30
 958 100 958 100 1036 178 c 0,31,32
 1071 213 1071 213 1071 246 c 2,33,-1
 1071 656 l 2,34,35
 1071 746 1071 746 981 746 c 2,36,-1
 936 746 l 2,37,38
 921 746 921 746 921 761 c 2,39,-1
 921 811 l 2,40,41
 921 826 921 826 936 826 c 2,42,-1
 1251 826 l 2,43,44
 1391 826 1391 826 1391 686 c 2,45,-1
 1391 274 l 2,46,47
 1391 231 1391 231 1357 200 c 0,48,49
 1128 -20 1128 -20 777 -20 c 0,0,1
EndSplineSet
Validated: 1
EndChar

StartChar: T
Encoding: 84 84 107
Width: 1454
Flags: W
HStem: 0 21G<607 847> 1370 140<186.381 567 887 1267.62>
VStem: 567 320<4.9375 1370>
LayerCount: 2
Fore
SplineSet
647 0 m 2,0,1
 567 0 567 0 567 79 c 2,2,-1
 567 1370 l 1,3,-1
 347 1370 l 2,4,5
 178 1370 178 1370 90 1224 c 0,6,7
 84 1214 84 1214 77 1214 c 0,8,9
 74 1214 74 1214 70 1216 c 2,10,-1
 19 1244 l 2,11,12
 10 1249 10 1249 10 1256 c 0,13,14
 10 1260 10 1260 12 1263 c 2,15,-1
 122 1447 l 2,16,17
 160 1510 160 1510 229 1510 c 2,18,-1
 1225 1510 l 2,19,20
 1294 1510 1294 1510 1332 1447 c 2,21,-1
 1442 1263 l 2,22,23
 1444 1260 1444 1260 1444 1256 c 0,24,25
 1444 1249 1444 1249 1435 1244 c 2,26,-1
 1384 1216 l 2,27,28
 1380 1214 1380 1214 1377 1214 c 0,29,30
 1370 1214 1370 1214 1364 1224 c 0,31,32
 1276 1370 1276 1370 1107 1370 c 2,33,-1
 887 1370 l 1,34,-1
 887 79 l 2,35,36
 887 0 887 0 807 0 c 2,37,-1
 647 0 l 2,0,1
EndSplineSet
Validated: 1
EndChar

StartChar: S
Encoding: 83 83 108
Width: 1200
Flags: W
HStem: -20 120<290.47 647.077> 1399 131<490.491 778.33>
VStem: 40 85<298.465 483> 139 296<1099.36 1318.27> 807 313<291.213 551.734> 908 83<1080 1248.71>
DStem2: 826 919 425 748 0.91982 -0.39234<-414.269 79.0375>
LayerCount: 2
Fore
SplineSet
526 -20 m 0,0,1
 255 -20 255 -20 74 118 c 0,2,3
 40 144 40 144 40 192 c 2,4,-1
 40 468 l 2,5,6
 40 483 40 483 55 483 c 2,7,-1
 110 483 l 2,8,9
 123 483 123 483 125 468 c 0,10,11
 174 100 174 100 455 100 c 0,12,13
 624 100 624 100 722 200 c 0,14,15
 807 286 807 286 807 402 c 0,16,17
 807 483 807 483 763 552 c 0,18,19
 721 620 721 620 619 664 c 2,20,-1
 425 748 l 2,21,22
 298 803 298 803 230 882 c 0,23,24
 139 987 139 987 139 1136 c 0,25,26
 139 1221 139 1221 171 1293 c 0,27,28
 211 1383 211 1383 300 1450 c 0,29,30
 408 1530 408 1530 585 1530 c 0,31,32
 795 1530 795 1530 957 1406 c 0,33,34
 991 1380 991 1380 991 1332 c 2,35,-1
 991 1095 l 2,36,37
 991 1080 991 1080 976 1080 c 2,38,-1
 923 1080 l 2,39,40
 910 1080 910 1080 908 1095 c 0,41,42
 868 1399 868 1399 627 1399 c 0,43,44
 532 1399 532 1399 482 1346 c 0,45,46
 435 1295 435 1295 435 1215 c 0,47,48
 435 1143 435 1143 489 1089 c 0,49,50
 533 1044 533 1044 615 1009 c 2,51,-1
 826 919 l 2,52,53
 976 855 976 855 1056 729 c 0,54,55
 1120 628 1120 628 1120 488 c 0,56,57
 1120 304 1120 304 981 155 c 0,58,59
 819 -20 819 -20 526 -20 c 0,0,1
EndSplineSet
Validated: 1
EndChar

StartChar: U
Encoding: 85 85 109
Width: 1510
Flags: W
HStem: -20 161<657.427 999.628> 1430 80<20 159.365 1354.26 1490>
VStem: 170 320<324.727 1421.1> 1190 150<340.516 1421.1>
LayerCount: 2
Fore
SplineSet
755 -20 m 0,0,1
 510 -20 510 -20 356 114 c 0,2,3
 170 276 170 276 170 528 c 2,4,-1
 170 1340 l 2,5,6
 170 1430 170 1430 80 1430 c 2,7,-1
 35 1430 l 2,8,9
 20 1430 20 1430 20 1445 c 2,10,-1
 20 1495 l 2,11,12
 20 1510 20 1510 35 1510 c 2,13,14
 350 1510 l 2,15,16
 490 1510 490 1510 490 1370 c 2,17,-1
 490 528 l 2,18,19
 490 350 490 350 590 240 c 0,20,21
 680 141 680 141 831 141 c 0,22,23
 971 141 971 141 1072 239 c 0,24,25
 1190 353 1190 353 1190 528 c 2,26,-1
 1190 1370 l 2,27,28
 1190 1510 1190 1510 1390 1510 c 2,29,-1
 1475 1510 l 2,30,31
 1490 1510 1490 1510 1490 1495 c 2,32,-1
 1490 1445 l 2,33,34
 1490 1430 1490 1430 1475 1430 c 2,35,-1
 1430 1430 l 2,36,37
 1340 1430 1340 1430 1340 1340 c 2,38,-1
 1340 528 l 2,39,40
 1340 281 1340 281 1154 114 c 0,41,42
 1004 -20 1004 -20 755 -20 c 0,0,1
EndSplineSet
Validated: 1
EndChar

StartChar: J
Encoding: 74 74 110
Width: 1261
Flags: W
HStem: -20 120<281.813 627.898> 1370 140<250.381 771> 1430 80<1101.63 1241>
VStem: 20 85<309.25 487> 771 320<282.434 1368.28>
LayerCount: 2
Fore
SplineSet
533 -20 m 0,0,1
 241 -20 241 -20 54 122 c 0,2,3
 20 148 20 148 20 196 c 2,4,-1
 20 472 l 2,5,6
 20 487 20 487 35 487 c 2,7,-1
 90 487 l 2,8,9
 103 487 103 487 105 472 c 0,10,11
 155 100 155 100 462 100 c 0,12,13
 618 100 618 100 698 212 c 0,14,15
 771 314 771 314 771 528 c 2,16,-1
 771 1370 l 1,17,-1
 411 1370 l 2,18,19
 242 1370 242 1370 154 1224 c 0,20,21
 148 1214 148 1214 141 1214 c 0,22,23
 138 1214 138 1214 134 1216 c 2,24,-1
 83 1244 l 2,25,26
 74 1249 74 1249 74 1256 c 0,27,28
 74 1260 74 1260 76 1263 c 2,29,-1
 186 1447 l 2,30,31
 224 1510 224 1510 293 1510 c 2,32,-1
 1226 1510 l 2,33,34
 1241 1510 1241 1510 1241 1495 c 2,35,-1
 1241 1445 l 2,36,37
 1241 1430 1241 1430 1226 1430 c 2,38,-1
 1181 1430 l 2,39,40
 1091 1430 1091 1430 1091 1340 c 2,41,-1
 1091 528 l 2,42,43
 1091 269 1091 269 935 114 c 0,44,45
 800 -20 800 -20 533 -20 c 0,0,1
EndSplineSet
Validated: 1
EndChar

StartChar: M
Encoding: 77 77 111
Width: 1923
Flags: W
HStem: 0 80<20 139.832 1783.17 1903> 1430 80<175 294.616 1626.45 1746>
DStem2: 140 120 286 76 0.121148 0.992634<-44.1579 949.154> 626 1434 412 1043 0.287735 -0.95771<312.889 1185.12> 967 299 1058 80 0.308423 0.951249<0 798.86> 1626 1390 1355 1013 0.122688 -0.992445<340.903 1323.89>
LayerCount: 2
Fore
SplineSet
168 0 m 2,0,-1
 35 0 l 2,1,2
 20 0 20 0 20 15 c 2,3,-1
 20 65 l 2,4,5
 20 80 20 80 35 80 c 2,6,-1
 80 80 l 2,7,8
 135 80 135 80 140 120 c 2,9,-1
 295 1390 l 1,10,11
 283 1430 283 1430 235 1430 c 2,12,-1
 190 1430 l 2,13,14
 175 1430 175 1430 175 1445 c 2,15,-1
 175 1495 l 2,16,17
 175 1510 175 1510 190 1510 c 2,18,-1
 508 1510 l 2,19,20
 603 1510 603 1510 626 1434 c 2,21,-1
 967 299 l 1,22,-1
 1335 1434 l 2,23,24
 1360 1510 1360 1510 1453 1510 c 2,25,-1
 1731 1510 l 2,26,27
 1746 1510 1746 1510 1746 1495 c 2,28,-1
 1746 1445 l 2,29,30
 1746 1430 1746 1430 1731 1430 c 2,31,-1
 1686 1430 l 2,32,33
 1640 1430 1640 1430 1626 1390 c 1,34,-1
 1783 120 l 2,35,36
 1788 80 1788 80 1843 80 c 2,37,-1
 1888 80 l 2,38,39
 1903 80 1903 80 1903 65 c 2,40,-1
 1903 15 l 2,41,42
 1903 0 1903 0 1888 0 c 2,43,-1
 1595 0 l 2,44,45
 1487 0 1487 0 1477 76 c 2,46,-1
 1355 1013 l 1,47,-1
 1058 80 l 2,48,49
 1033 0 1033 0 944 0 c 2,50,-1
 816 0 l 2,51,52
 723 0 723 0 699 81 c 2,53,-1
 412 1043 l 1,54,-1
 286 76 l 2,55,56
 276 0 276 0 168 0 c 2,0,-1
EndSplineSet
Validated: 1
EndChar

StartChar: Y
Encoding: 89 89 112
Width: 1428
Flags: W
HStem: 0 21G<596 836> 1430 80<20 139.996 1288 1408>
VStem: 556 320<4.9375 640>
DStem2: 446 1434 140 1390 0.485049 -0.874487<-106.234 744.394> 807 783 876 640 0.48147 0.876463<0 832.65>
LayerCount: 2
Fore
SplineSet
636 0 m 2,0,1
 556 0 556 0 556 79 c 2,2,-1
 556 640 l 1,3,-1
 140 1390 l 2,4,5
 118 1430 118 1430 80 1430 c 2,6,-1
 35 1430 l 2,7,8
 20 1430 20 1430 20 1445 c 2,9,-1
 20 1495 l 2,10,11
 20 1510 20 1510 35 1510 c 2,12,-1
 313 1510 l 2,13,14
 404 1510 404 1510 446 1434 c 2,15,-1
 807 783 l 1,16,-1
 1160 1434 l 2,17,18
 1201 1510 1201 1510 1278 1510 c 2,19,-1
 1393 1510 l 2,20,21
 1408 1510 1408 1510 1408 1495 c 2,22,-1
 1408 1445 l 2,23,24
 1408 1430 1408 1430 1393 1430 c 2,25,-1
 1348 1430 l 2,26,27
 1310 1430 1310 1430 1288 1390 c 2,28,-1
 876 640 l 1,29,-1
 876 79 l 2,30,31
 876 0 876 0 796 0 c 2,32,-1
 636 0 l 2,0,1
EndSplineSet
Validated: 1
EndChar

StartChar: X
Encoding: 88 88 113
Width: 1287
Flags: W
HStem: 0 80<24 138.995 1152 1267> 1430 80<20 129.996 1153.01 1263>
DStem2: 449 1434 130 1390 0.471737 -0.881739<-105.856 540.001 688.53 700.313 847.961 1488.2> 139 120 267 76 0.559061 0.829127<-78.2195 599.773 1010.68 1697.84>
LayerCount: 2
Fore
SplineSet
169 0 m 2,0,-1
 39 0 l 2,1,2
 24 0 24 0 24 15 c 2,3,-1
 24 65 l 2,4,5
 24 80 24 80 39 80 c 2,6,-1
 79 80 l 2,7,8
 112 80 112 80 139 120 c 2,9,-1
 513 674 l 1,10,-1
 130 1390 l 2,11,12
 109 1430 109 1430 70 1430 c 2,13,-1
 35 1430 l 2,14,15
 20 1430 20 1430 20 1445 c 2,16,-1
 20 1495 l 2,17,18
 20 1510 20 1510 35 1510 c 2,19,-1
 331 1510 l 2,20,21
 408 1510 408 1510 449 1434 c 2,22,-1
 704 958 l 1,23,-1
 1025 1434 l 2,24,25
 1076 1510 1076 1510 1143 1510 c 2,26,-1
 1248 1510 l 2,27,28
 1263 1510 1263 1510 1263 1495 c 2,29,-1
 1263 1445 l 2,30,31
 1263 1430 1263 1430 1248 1430 c 2,32,-1
 1213 1430 l 2,33,34
 1180 1430 1180 1430 1153 1390 c 2,35,-1
 774 827 l 1,36,-1
 1152 120 l 2,37,38
 1173 80 1173 80 1212 80 c 2,39,-1
 1252 80 l 2,40,41
 1267 80 1267 80 1267 65 c 2,42,-1
 1267 15 l 2,43,44
 1267 0 1267 0 1252 0 c 2,45,-1
 931 0 l 2,46,47
 874 0 874 0 833 76 c 2,48,-1
 583 544 l 1,49,-1
 267 76 l 2,50,51
 216 0 216 0 169 0 c 2,0,-1
EndSplineSet
Validated: 1
EndChar

StartChar: Q
Encoding: 81 81 114
Width: 1554
Flags: W
HStem: -195 80<1198 1313> -20 120<639.721 772> 290 80<574 683.995> 1410 120<637.656 915.186>
VStem: 60 349<470.863 1041.14> 1145 349<469.36 1039.14>
LayerCount: 2
Fore
SplineSet
777 -20 m 0,0,1
 449 -20 449 -20 251 211 c 0,2,3
 60 435 60 435 60 755 c 0,4,5
 60 1077 60 1077 251 1299 c 0,6,7
 450 1530 450 1530 777 1530 c 0,8,9
 1106 1530 1106 1530 1303 1299 c 0,10,11
 1494 1075 1494 1075 1494 755 c 128,-1,12
 1494 435 1494 435 1303 211 c 0,13,14
 1222 116 1222 116 1119 60 c 1,15,-1
 1198 -75 l 2,16,17
 1221 -115 1221 -115 1258 -115 c 2,18,-1
 1298 -115 l 2,19,20
 1313 -115 1313 -115 1313 -130 c 2,21,-1
 1313 -180 l 2,22,23
 1313 -195 1313 -195 1298 -195 c 2,24,-1
 999 -195 l 2,25,26
 946 -195 946 -195 901 -119 c 2,27,-1
 841 -18 l 1,28,29
 810 -20 810 -20 777 -20 c 0,0,1
772 100 m 1,30,-1
 684 250 l 2,31,32
 660 290 660 290 624 290 c 2,33,-1
 589 290 l 2,34,35
 574 290 574 290 574 305 c 2,36,-1
 574 355 l 2,37,38
 574 370 574 370 589 370 c 2,39,-1
 864 370 l 2,40,41
 938 370 938 370 982 294 c 2,42,-1
 1014 240 l 1,43,44
 1024 254 1024 254 1033 270 c 0,45,46
 1145 460 1145 460 1145 755 c 0,47,48
 1145 1059 1145 1059 1033 1240 c 0,49,50
 927 1410 927 1410 776 1410 c 0,51,52
 622 1410 622 1410 521 1240 c 0,53,54
 409 1050 409 1050 409 755 c 0,55,56
 409 451 409 451 521 270 c 0,57,58
 624 103 624 103 772 100 c 1,30,-1
EndSplineSet
Validated: 1
EndChar

StartChar: N
Encoding: 78 78 115
Width: 1459
Flags: W
HStem: 0 80<20 159.365> 1430 80<50 169.155 1303.26 1439>
VStem: 170 150<88.9014 1240> 1139 150<562 1421.1>
DStem2: 542 1434 320 1240 0.555184 -0.831728<38.1044 1056.71>
LayerCount: 2
Fore
SplineSet
180 0 m 2,0,-1
 35 0 l 2,1,2
 20 0 20 0 20 15 c 2,3,-1
 20 65 l 2,4,5
 20 80 20 80 35 80 c 2,6,-1
 80 80 l 2,7,8
 170 80 170 80 170 170 c 2,9,-1
 170 1390 l 1,10,11
 143 1430 143 1430 110 1430 c 2,12,-1
 65 1430 l 2,13,14
 50 1430 50 1430 50 1445 c 2,15,-1
 50 1495 l 2,16,17
 50 1510 50 1510 65 1510 c 2,18,-1
 409 1510 l 2,19,20
 490 1510 490 1510 542 1434 c 2,21,-1
 1139 562 l 1,22,-1
 1139 1370 l 2,23,24
 1139 1510 1139 1510 1339 1510 c 2,25,-1
 1424 1510 l 2,26,27
 1439 1510 1439 1510 1439 1495 c 2,28,-1
 1439 1445 l 2,29,30
 1439 1430 1439 1430 1424 1430 c 2,31,-1
 1379 1430 l 2,32,33
 1289 1430 1289 1430 1289 1340 c 2,34,-1
 1289 50 l 2,35,36
 1289 0 1289 0 1239 0 c 2,37,-1
 1187 0 l 2,38,39
 1148 0 1148 0 1115 49 c 2,40,-1
 320 1240 l 1,41,-1
 320 140 l 2,42,43
 320 0 320 0 180 0 c 2,0,-1
EndSplineSet
Validated: 1
EndChar

StartChar: B
Encoding: 66 66 116
Width: 1320
Flags: W
HStem: 0 121<490 760.476> 0 80<20 159.365> 776 120<490 738.749> 1389 121<490 738.749> 1430 80<20 159.365>
VStem: 170 320<122.539 776 896 1387.46> 840 329<996.526 1288.7> 930 330<280.796 616.597>
LayerCount: 2
Fore
SplineSet
490 1389 m 1,0,-1
 490 896 l 1,1,-1
 545 896 l 2,2,3
 714 896 714 896 782 978 c 0,4,5
 840 1048 840 1048 840 1143 c 0,6,7
 840 1237 840 1237 782 1307 c 0,8,9
 714 1389 714 1389 545 1389 c 2,10,-1
 490 1389 l 1,0,-1
490 121 m 1,11,-1
 545 121 l 2,12,13
 741 121 741 121 840 221 c 0,14,15
 930 313 930 313 930 450 c 0,16,17
 930 584 930 584 840 676 c 0,18,19
 741 776 741 776 545 776 c 2,20,-1
 490 776 l 1,21,-1
 490 121 l 1,11,-1
755 0 m 2,22,-1
 35 0 l 2,23,24
 20 0 20 0 20 15 c 2,25,-1
 20 65 l 2,26,27
 20 80 20 80 35 80 c 2,28,-1
 80 80 l 2,29,30
 170 80 170 80 170 170 c 2,31,-1
 170 1340 l 2,32,33
 170 1430 170 1430 80 1430 c 2,34,-1
 35 1430 l 2,35,36
 20 1430 20 1430 20 1445 c 2,37,-1
 20 1495 l 2,38,39
 20 1510 20 1510 35 1510 c 2,40,-1
 755 1510 l 2,41,42
 925 1510 925 1510 1038 1422 c 0,43,44
 1169 1320 1169 1320 1169 1158 c 0,45,46
 1169 959 1169 959 967 855 c 1,47,48
 1045 833 1045 833 1108 785 c 0,49,50
 1260 669 1260 669 1260 463 c 0,51,52
 1260 264 1260 264 1132 137 c 0,53,54
 995 0 995 0 755 0 c 2,22,-1
EndSplineSet
Validated: 1
EndChar

StartChar: P
Encoding: 80 80 117
Width: 1258
Flags: W
HStem: 0 21G<210 450> 548 121<490 719.107> 1389 121<490 717.679> 1430 80<20 159.365>
VStem: 170 320<4.9375 548 669 1387.46> 868 330<831.405 1226.94>
LayerCount: 2
Fore
SplineSet
250 0 m 2,0,1
 170 0 170 0 170 79 c 2,2,-1
 170 1340 l 2,3,4
 170 1430 170 1430 80 1430 c 2,5,-1
 35 1430 l 2,6,7
 20 1430 20 1430 20 1445 c 2,8,-1
 20 1495 l 2,9,10
 20 1510 20 1510 35 1510 c 2,11,-1
 713 1510 l 2,12,13
 937 1510 937 1510 1075 1361 c 0,14,15
 1198 1229 1198 1229 1198 1029 c 128,-1,16
 1198 829 1198 829 1075 697 c 0,17,18
 937 548 937 548 713 548 c 2,19,-1
 490 548 l 1,20,-1
 490 79 l 2,21,22
 490 0 490 0 410 0 c 2,23,-1
 250 0 l 2,0,1
490 1389 m 1,24,-1
 490 669 l 1,25,-1
 533 669 l 2,26,27
 718 669 718 669 797 785 c 0,28,29
 868 889 868 889 868 1029 c 0,30,31
 868 1171 868 1171 797 1273 c 0,32,33
 715 1389 715 1389 533 1389 c 2,34,-1
 490 1389 l 1,24,-1
EndSplineSet
Validated: 1
EndChar

StartChar: R
Encoding: 82 82 118
Width: 1354
Flags: W
HStem: 0 80<1214 1334> 548 121<490 610> 1389 121<490 717.679> 1430 80<20 159.365>
VStem: 170 320<4.9375 548 669 1387.46> 868 330<831.405 1226.94>
DStem2: 932 601 610 548 0.505766 -0.862671<0 538.978>
LayerCount: 2
Fore
SplineSet
490 1389 m 1,0,-1
 490 669 l 1,1,-1
 533 669 l 2,2,3
 718 669 718 669 797 785 c 0,4,5
 868 889 868 889 868 1029 c 0,6,7
 868 1171 868 1171 797 1273 c 0,8,9
 715 1389 715 1389 533 1389 c 2,10,-1
 490 1389 l 1,0,-1
250 0 m 2,11,12
 170 0 170 0 170 79 c 2,13,-1
 170 1340 l 2,14,15
 170 1430 170 1430 80 1430 c 2,16,-1
 35 1430 l 2,17,18
 20 1430 20 1430 20 1445 c 2,19,-1
 20 1495 l 2,20,21
 20 1510 20 1510 35 1510 c 2,22,-1
 713 1510 l 2,23,24
 937 1510 937 1510 1075 1361 c 0,25,26
 1198 1229 1198 1229 1198 1029 c 128,-1,27
 1198 829 1198 829 1075 697 c 0,28,29
 1019 637 1019 637 932 601 c 1,30,-1
 1214 120 l 2,31,32
 1237 80 1237 80 1274 80 c 2,33,-1
 1319 80 l 2,34,35
 1334 80 1334 80 1334 65 c 2,36,-1
 1334 15 l 2,37,38
 1334 0 1334 0 1319 0 c 2,39,-1
 1012 0 l 2,40,41
 940 0 940 0 894 76 c 2,42,-1
 610 548 l 1,43,-1
 490 548 l 1,44,-1
 490 79 l 2,45,46
 490 0 490 0 410 0 c 2,47,-1
 250 0 l 2,11,12
EndSplineSet
Validated: 1
EndChar

StartChar: grave
Encoding: 96 96 119
Width: 482
Flags: W
HStem: 1139 391<263.766 313.997>
VStem: 50 382
LayerCount: 2
Fore
SplineSet
83 1530 m 2,0,1
 254 1530 l 2,2,3
 299 1530 299 1530 314 1489 c 2,4,-1
 427 1185 l 2,5,6
 432 1172 432 1172 432 1162 c 0,7,8
 432 1139 432 1139 402 1139 c 2,9,-1
 333 1139 l 2,10,11
 294 1139 294 1139 267 1179 c 2,12,-1
 60 1485 l 2,13,14
 50 1500 50 1500 50 1509 c 0,15,16
 50 1530 50 1530 83 1530 c 2,0,1
EndSplineSet
Validated: 1
EndChar

StartChar: asciitilde
Encoding: 126 126 120
Width: 1138
Flags: W
HStem: 515 219<724.405 849.303> 778 219<288.697 413.565>
VStem: 90 178<537.891 764.286> 870 178<747.714 974.109>
LayerCount: 2
Fore
SplineSet
404 997 m 0,0,1
 558 997 558 997 669 846 c 0,2,3
 751 734 751 734 790 734 c 0,4,5
 870 734 870 734 870 912 c 0,6,7
 870 976 870 976 935 976 c 2,8,-1
 983 976 l 2,9,10
 1048 976 1048 976 1048 912 c 0,11,12
 1048 515 1048 515 734 515 c 0,13,14
 579 515 579 515 469 666 c 0,15,16
 387 778 387 778 348 778 c 0,17,18
 268 778 268 778 268 600 c 0,19,20
 268 536 268 536 203 536 c 2,21,-1
 155 536 l 2,22,23
 90 536 90 536 90 600 c 0,24,25
 90 997 90 997 404 997 c 0,0,1
EndSplineSet
Validated: 1
EndChar

StartChar: braceleft
Encoding: 123 123 121
Width: 825
Flags: W
HStem: -205 140<618.143 805> 685 140<20 215> 1570 140<622.125 805>
VStem: 220 300<30.7974 679.375 830.625 1473.2>
LayerCount: 2
Fore
SplineSet
775 -205 m 0,0,1
 530 -205 530 -205 383 -99 c 0,2,3
 220 19 220 19 220 203 c 2,4,-1
 220 605 l 2,5,6
 220 685 220 685 140 685 c 2,7,-1
 50 685 l 2,8,9
 20 685 20 685 20 715 c 2,10,-1
 20 795 l 2,11,12
 20 825 20 825 50 825 c 2,13,-1
 140 825 l 2,14,15
 220 825 220 825 220 905 c 2,16,-1
 220 1302 l 2,17,18
 220 1484 220 1484 383 1604 c 0,19,20
 524 1710 524 1710 775 1710 c 0,21,22
 805 1710 805 1710 805 1681 c 2,23,-1
 805 1599 l 2,24,25
 805 1570 805 1570 775 1570 c 0,26,27
 670 1570 670 1570 595 1510 c 128,-1,28
 520 1450 520 1450 520 1344 c 2,29,-1
 520 915 l 2,30,31
 520 783 520 783 400 755 c 1,32,33
 520 727 520 727 520 595 c 2,34,-1
 520 161 l 2,35,36
 520 55 520 55 595 -5 c 128,-1,37
 670 -65 670 -65 775 -65 c 0,38,39
 805 -65 805 -65 805 -94 c 2,40,-1
 805 -176 l 2,41,42
 805 -205 805 -205 775 -205 c 0,0,1
EndSplineSet
Validated: 1
EndChar

StartChar: bar
Encoding: 124 124 122
Width: 675
Flags: W
VStem: 200 275<-147.112 1657.11>
LayerCount: 2
Fore
SplineSet
270 1660 m 2,0,-1
 405 1660 l 2,1,2
 475 1660 475 1660 475 1590 c 2,3,-1
 475 -80 l 2,4,5
 475 -150 475 -150 405 -150 c 2,6,-1
 270 -150 l 2,7,8
 200 -150 200 -150 200 -80 c 2,9,-1
 200 1590 l 2,10,11
 200 1660 200 1660 270 1660 c 2,0,-1
EndSplineSet
Validated: 1
EndChar

StartChar: bracketleft
Encoding: 91 91 123
Width: 765
Flags: W
HStem: -205 140<460 745> 1570 140<460 745>
VStem: 160 585<-202.112 -65 1570 1707.11>
LayerCount: 2
Fore
SplineSet
230 1710 m 2,0,1
 700 1710 l 2,2,3
 745 1710 745 1710 745 1665 c 2,4,-1
 745 1615 l 2,5,6
 745 1570 745 1570 700 1570 c 2,7,-1
 460 1570 l 1,8,-1
 460 -65 l 1,9,-1
 700 -65 l 2,10,11
 745 -65 745 -65 745 -110 c 2,12,-1
 745 -160 l 2,13,14
 745 -205 745 -205 700 -205 c 2,15,-1
 230 -205 l 2,16,17
 160 -205 160 -205 160 -135 c 2,18,-1
 160 1640 l 2,19,20
 160 1710 160 1710 230 1710 c 2,0,1
EndSplineSet
Validated: 1
EndChar

StartChar: backslash
Encoding: 92 92 124
Width: 1194
Flags: W
DStem2: 1171 19 947 -110 0.4998 -0.866141<-1892.77 42.3586>
LayerCount: 2
Fore
SplineSet
189 1662 m 0,0,1
 223 1662 223 1662 246 1622 c 2,2,-1
 1171 19 l 2,3,4
 1184 -4 1184 -4 1184 -23 c 0,5,6
 1184 -59 1184 -59 1145 -81 c 2,7,-1
 1047 -137 l 2,8,9
 1024 -150 1024 -150 1002 -150 c 0,10,11
 970 -150 970 -150 947 -110 c 2,12,-1
 22 1493 l 2,13,14
 10 1514 10 1514 10 1535 c 0,15,16
 10 1571 10 1571 49 1593 c 2,17,-1
 147 1649 l 2,18,19
 170 1662 170 1662 189 1662 c 0,0,1
EndSplineSet
Validated: 1
EndChar

StartChar: asciicircum
Encoding: 94 94 125
Width: 1016
Flags: W
HStem: 965 565
DStem2: 59 1069 176 990 0.624695 0.780869<-27.8282 476.642> 957 1120 467 1353 0.624444 -0.78107<-487.706 23.8433>
LayerCount: 2
Fore
SplineSet
468 1530 m 2,0,-1
 589 1530 l 2,1,2
 629 1530 629 1530 654 1499 c 2,3,-1
 957 1120 l 2,4,5
 966 1109 966 1109 966 1091 c 0,6,7
 966 1071 966 1071 939 1052 c 2,8,-1
 828 972 l 2,9,10
 818 965 818 965 802 965 c 0,11,12
 780 965 780 965 760 990 c 2,13,-1
 467 1353 l 1,14,-1
 176 990 l 2,15,16
 156 965 156 965 134 965 c 0,17,18
 115 965 115 965 108 972 c 2,19,-1
 77 1001 l 2,20,21
 50 1026 50 1026 50 1040 c 0,22,23
 50 1058 50 1058 59 1069 c 2,24,-1
 403 1499 l 2,25,26
 428 1530 428 1530 468 1530 c 2,0,-1
EndSplineSet
Validated: 1
EndChar

StartChar: underscore
Encoding: 95 95 126
Width: 1233
Flags: W
HStem: -320 233<92.8882 1140.11>
LayerCount: 2
Fore
SplineSet
160 -87 m 2,0,-1
 1073 -87 l 2,1,2
 1143 -87 1143 -87 1143 -157 c 2,3,4
 1143 -250 l 2,5,6
 1143 -320 1143 -320 1073 -320 c 2,7,-1
 160 -320 l 2,8,9
 90 -320 90 -320 90 -250 c 2,10,-1
 90 -157 l 2,11,12
 90 -87 90 -87 160 -87 c 2,0,-1
EndSplineSet
Validated: 1
EndChar

StartChar: bracketright
Encoding: 93 93 127
Width: 765
Flags: W
HStem: -205 140<20 305> 1570 140<20 305>
VStem: 305 300<-65 1570>
LayerCount: 2
Fore
SplineSet
535 1710 m 2,0,1
 605 1710 605 1710 605 1640 c 2,2,-1
 605 -135 l 2,3,4
 605 -205 605 -205 535 -205 c 2,5,-1
 65 -205 l 2,6,7
 20 -205 20 -205 20 -160 c 2,8,-1
 20 -110 l 2,9,10
 20 -65 20 -65 65 -65 c 2,11,-1
 305 -65 l 1,12,-1
 305 1570 l 1,13,-1
 65 1570 l 2,14,15
 20 1570 20 1570 20 1615 c 2,16,-1
 20 1665 l 2,17,18
 20 1710 20 1710 65 1710 c 2,19,-1
 535 1710 l 2,0,1
EndSplineSet
Validated: 1
EndChar

StartChar: braceright
Encoding: 125 125 128
Width: 825
Flags: W
HStem: -205 140<20 206.857> 685 140<610 805> 1570 140<20 202.875>
VStem: 305 300<30.7974 679.375 830.625 1473.2>
LayerCount: 2
Fore
SplineSet
50 -205 m 0,0,1
 20 -205 20 -205 20 -176 c 2,2,-1
 20 -94 l 2,3,4
 20 -65 20 -65 50 -65 c 0,5,6
 155 -65 155 -65 230 -5 c 128,-1,7
 305 55 305 55 305 161 c 2,8,-1
 305 595 l 2,9,10
 305 727 305 727 425 755 c 1,11,12
 305 783 305 783 305 915 c 2,13,-1
 305 1344 l 2,14,15
 305 1450 305 1450 230 1510 c 128,-1,16
 155 1570 155 1570 50 1570 c 0,17,18
 20 1570 20 1570 20 1599 c 2,19,-1
 20 1681 l 2,20,21
 20 1710 20 1710 50 1710 c 0,22,23
 301 1710 301 1710 442 1604 c 0,24,25
 605 1484 605 1484 605 1302 c 2,26,-1
 605 905 l 2,27,28
 605 825 605 825 685 825 c 2,29,-1
 775 825 l 2,30,31
 805 825 805 825 805 795 c 2,32,-1
 805 715 l 2,33,34
 805 685 805 685 775 685 c 2,35,-1
 685 685 l 2,36,37
 605 685 605 685 605 605 c 2,38,-1
 605 203 l 2,39,40
 605 19 605 19 442 -99 c 0,41,42
 295 -205 295 -205 50 -205 c 0,0,1
EndSplineSet
Validated: 1
EndChar

StartChar: parenleft
Encoding: 40 40 129
Width: 700
Flags: W
VStem: 140 300<414.57 1093.84>
LayerCount: 2
Fore
SplineSet
564 -250 m 2,0,1
 547 -250 547 -250 528 -228 c 0,2,3
 140 221 140 221 140 754 c 0,4,5
 140 1279 140 1279 528 1738 c 0,6,7
 547 1760 547 1760 564 1760 c 2,8,-1
 656 1760 l 2,9,10
 680 1760 680 1760 680 1744 c 0,11,12
 680 1738 680 1738 674 1726 c 0,13,14
 440 1258 440 1258 440 754 c 0,15,16
 440 224 440 224 674 -216 c 0,17,18
 680 -228 680 -228 680 -234 c 0,19,20
 680 -250 680 -250 656 -250 c 2,21,-1
 564 -250 l 2,0,1
EndSplineSet
Validated: 1
EndChar

StartChar: asterisk
Encoding: 42 42 130
Width: 862
Flags: W
HStem: 1490 20G<358 503>
VStem: 336 190<707.011 964 1253 1509.99>
LayerCount: 2
Fore
SplineSet
380 1510 m 2,0,-1
 480 1510 l 2,1,2
 526 1510 526 1510 526 1466 c 2,3,-1
 526 1253 l 1,4,-1
 693 1370 l 2,5,6
 704 1378 704 1378 719 1378 c 0,7,8
 738 1378 738 1378 753 1353 c 2,9,-1
 803 1267 l 2,10,11
 812 1252 812 1252 812 1239 c 0,12,13
 812 1217 812 1217 788 1205 c 2,14,-1
 601 1108 l 1,15,-1
 786 1013 l 2,16,17
 812 1000 812 1000 812 977 c 0,18,19
 812 965 812 965 803 950 c 2,20,-1
 753 864 l 2,21,22
 739 840 739 840 719 840 c 0,23,24
 702 840 702 840 691 848 c 2,25,-1
 526 964 l 1,26,-1
 526 753 l 2,27,28
 526 707 526 707 480 707 c 2,29,-1
 380 707 l 2,30,31
 336 707 336 707 336 753 c 2,32,-1
 336 964 l 1,33,-1
 171 848 l 2,34,35
 160 840 160 840 144 840 c 0,36,37
 122 840 122 840 108 865 c 2,38,-1
 58 952 l 2,39,40
 50 966 50 966 50 977 c 0,41,42
 50 1000 50 1000 76 1013 c 2,43,-1
 261 1108 l 1,44,-1
 74 1205 l 2,45,46
 50 1217 50 1217 50 1239 c 0,47,48
 50 1251 50 1251 58 1265 c 2,49,-1
 108 1352 l 2,50,51
 122 1377 122 1377 144 1377 c 0,52,53
 159 1377 159 1377 169 1370 c 2,54,-1
 336 1253 l 1,55,-1
 336 1466 l 2,56,57
 336 1510 336 1510 380 1510 c 2,0,-1
EndSplineSet
Validated: 1
EndChar

StartChar: plus
Encoding: 43 43 131
Width: 1133
Flags: W
HStem: 630 250<91.9202 442 692 1041.08>
VStem: 442 250<280.32 630 880 1229.68>
LayerCount: 2
Fore
SplineSet
506 1232 m 2,0,-1
 626 1232 l 2,1,2
 692 1232 692 1232 692 1166 c 2,3,-1
 692 880 l 1,4,-1
 978 880 l 2,5,6
 1043 880 1043 880 1043 815 c 2,7,-1
 1043 695 l 2,8,9
 1043 630 1043 630 978 630 c 2,10,-1
 692 630 l 1,11,-1
 692 344 l 2,12,13
 692 278 692 278 626 278 c 2,14,-1
 506 278 l 2,15,16
 442 278 442 278 442 344 c 2,17,-1
 442 630 l 1,18,-1
 155 630 l 2,19,20
 90 630 90 630 90 695 c 2,21,-1
 90 815 l 2,22,23
 90 880 90 880 155 880 c 2,24,-1
 442 880 l 1,25,-1
 442 1166 l 2,26,27
 442 1232 442 1232 506 1232 c 2,0,-1
EndSplineSet
Validated: 1
EndChar

StartChar: comma
Encoding: 44 44 132
Width: 415
Flags: W
HStem: -317 637<167.812 235.822>
VStem: 167 198<-155.958 94.168>
LayerCount: 2
Fore
SplineSet
216 320 m 128,-1,1
 238 320 238 320 263 297 c 0,2,3
 365 203 365 203 365 32 c 0,4,5
 365 -157 365 -157 213 -296 c 0,6,7
 190 -317 190 -317 167 -317 c 0,8,9
 149 -317 149 -317 129 -302 c 2,10,-1
 102 -282 l 2,11,12
 82 -267 82 -267 82 -249 c 0,13,14
 82 -233 82 -233 97 -218 c 0,15,16
 167 -144 167 -144 167 -66 c 0,17,18
 167 72 167 72 75 149 c 0,19,20
 50 172 50 172 50 195 c 0,21,22
 50 221 50 221 83 244 c 2,23,-1
 175 307 l 2,24,0
 194 320 194 320 216 320 c 128,-1,1
EndSplineSet
Validated: 1
EndChar

StartChar: hyphen
Encoding: 45 45 133
Width: 1133
Flags: W
HStem: 630 250<91.9202 1041.08>
LayerCount: 2
Fore
SplineSet
155 880 m 2,0,-1
 978 880 l 2,1,2
 1043 880 1043 880 1043 815 c 2,3,-1
 1043 695 l 2,4,5
 1043 630 1043 630 978 630 c 2,6,-1
 155 630 l 2,7,8
 90 630 90 630 90 695 c 2,9,-1
 90 815 l 2,10,11
 90 880 90 880 155 880 c 2,0,-1
EndSplineSet
Validated: 1
EndChar

StartChar: period
Encoding: 46 46 134
Width: 460
Flags: W
HStem: -20 365<112.131 346.878>
VStem: 50 360<42.5657 282.578>
LayerCount: 2
Fore
SplineSet
230 -20 m 0,0,1
 154 -20 154 -20 102 34 c 128,-1,2
 50 88 50 88 50 162 c 0,3,4
 50 238 50 238 102 291 c 0,5,6
 155 345 155 345 230 345 c 128,-1,7
 305 345 305 345 357.5 291.5 c 128,-1,8
 410 238 410 238 410 163 c 128,-1,9
 410 88 410 88 357 34 c 128,-1,10
 304 -20 304 -20 230 -20 c 0,0,1
EndSplineSet
Validated: 1
EndChar

StartChar: slash
Encoding: 47 47 135
Width: 1194
Flags: W
DStem2: 23 19 247 -110 0.4998 0.866141<-42.3586 1892.77>
LayerCount: 2
Fore
SplineSet
1005 1662 m 0,0,1
 1024 1662 1024 1662 1047 1649 c 2,2,-1
 1145 1593 l 2,3,4
 1184 1571 1184 1571 1184 1535 c 0,5,6
 1184 1514 1184 1514 1172 1493 c 2,7,-1
 247 -110 l 2,8,9
 224 -150 224 -150 192 -150 c 0,10,11
 170 -150 170 -150 147 -137 c 2,12,-1
 49 -81 l 2,13,14
 10 -59 10 -59 10 -23 c 0,15,16
 10 -4 10 -4 23 19 c 2,17,-1
 948 1622 l 2,18,19
 971 1662 971 1662 1005 1662 c 0,0,1
EndSplineSet
Validated: 1
EndChar

StartChar: colon
Encoding: 58 58 136
Width: 460
Flags: W
HStem: -20 365<112.131 346.878> 573 365<112.131 346.878>
VStem: 50 360<42.5657 282.578 635.566 875.578>
LayerCount: 2
Fore
SplineSet
230 938 m 128,-1,1
 305 938 305 938 357.5 884.5 c 128,-1,2
 410 831 410 831 410 756 c 128,-1,3
 410 681 410 681 357 627 c 128,-1,4
 304 573 304 573 230 573 c 0,5,6
 154 573 154 573 102 627 c 128,-1,7
 50 681 50 681 50 755 c 0,8,9
 50 831 50 831 102 884 c 0,10,0
 155 938 155 938 230 938 c 128,-1,1
230 -20 m 0,11,12
 154 -20 154 -20 102 34 c 128,-1,13
 50 88 50 88 50 162 c 0,14,15
 50 238 50 238 102 291 c 0,16,17
 155 345 155 345 230 345 c 128,-1,18
 305 345 305 345 357.5 291.5 c 128,-1,19
 410 238 410 238 410 163 c 128,-1,20
 410 88 410 88 357 34 c 128,-1,21
 304 -20 304 -20 230 -20 c 0,11,12
EndSplineSet
Validated: 1
EndChar

StartChar: semicolon
Encoding: 59 59 137
Width: 487
Flags: W
HStem: 573 365<132.131 366.878>
VStem: 70 360<635.566 875.578> 239 198<-155.958 94.168>
LayerCount: 2
Fore
SplineSet
288 320 m 128,-1,1
 310 320 310 320 335 297 c 0,2,3
 437 203 437 203 437 32 c 0,4,5
 437 -157 437 -157 285 -296 c 0,6,7
 262 -317 262 -317 239 -317 c 0,8,9
 221 -317 221 -317 201 -302 c 2,10,-1
 174 -282 l 2,11,12
 154 -267 154 -267 154 -249 c 0,13,14
 154 -233 154 -233 169 -218 c 0,15,16
 239 -144 239 -144 239 -66 c 0,17,18
 239 72 239 72 147 149 c 0,19,20
 122 172 122 172 122 195 c 0,21,22
 122 221 122 221 155 244 c 2,23,-1
 247 307 l 2,24,0
 266 320 266 320 288 320 c 128,-1,1
250 938 m 128,-1,26
 325 938 325 938 377.5 884.5 c 128,-1,27
 430 831 430 831 430 756 c 128,-1,28
 430 681 430 681 377 627 c 128,-1,29
 324 573 324 573 250 573 c 0,30,31
 174 573 174 573 122 627 c 128,-1,32
 70 681 70 681 70 755 c 0,33,34
 70 831 70 831 122 884 c 0,35,25
 175 938 175 938 250 938 c 128,-1,26
EndSplineSet
Validated: 1
EndChar

StartChar: less
Encoding: 60 60 138
Width: 1150
Flags: W
DStem2: 140 880 280 812 0.878199 0.478295<90.4239 909.651> 280 812 140 639 0.878218 -0.478261<0 819.32>
LayerCount: 2
Fore
SplineSet
90 810 m 2,0,1
 90 853 90 853 140 880 c 2,2,-1
 913 1301 l 2,3,4
 930 1310 930 1310 942 1310 c 0,5,6
 965 1310 965 1310 981 1283 c 2,7,-1
 1000 1250 l 2,8,9
 1010 1233 1010 1233 1010 1220 c 0,10,11
 1010 1197 1010 1197 982 1182 c 2,12,-1
 280 812 l 1,13,-1
 982 440 l 2,14,15
 1010 425 1010 425 1010 402 c 0,16,17
 1010 390 1010 390 1000 372 c 2,18,-1
 937 260 l 2,19,20
 922 233 922 233 898 233 c 0,21,22
 886 233 886 233 869 242 c 2,23,-1
 140 639 l 2,24,25
 90 666 90 666 90 709 c 2,26,-1
 90 810 l 2,0,1
EndSplineSet
Validated: 1
EndChar

StartChar: equal
Encoding: 61 61 139
Width: 1133
Flags: W
HStem: 430 250<91.9202 1041.08> 830 250<91.9202 1041.08>
LayerCount: 2
Fore
SplineSet
155 1080 m 2,0,-1
 978 1080 l 2,1,2
 1043 1080 1043 1080 1043 1015 c 2,3,-1
 1043 895 l 2,4,5
 1043 830 1043 830 978 830 c 2,6,-1
 155 830 l 2,7,8
 90 830 90 830 90 895 c 2,9,-1
 90 1015 l 2,10,11
 90 1080 90 1080 155 1080 c 2,0,-1
155 680 m 2,12,-1
 978 680 l 2,13,14
 1043 680 1043 680 1043 615 c 2,15,-1
 1043 495 l 2,16,17
 1043 430 1043 430 978 430 c 2,18,-1
 155 430 l 2,19,20
 90 430 90 430 90 495 c 2,21,-1
 90 615 l 2,22,23
 90 680 90 680 155 680 c 2,12,-1
EndSplineSet
Validated: 1
EndChar

StartChar: greater
Encoding: 62 62 140
Width: 1150
Flags: W
DStem2: 168 361 237 242 0.878199 0.478295<-25.7623 793.465> 1010 904 870 731 0.878218 -0.478261<-859.532 -40.2113>
LayerCount: 2
Fore
SplineSet
1060 733 m 2,0,1
 1060 690 1060 690 1010 663 c 2,2,-1
 237 242 l 2,3,4
 220 233 220 233 208 233 c 0,5,6
 185 233 185 233 169 260 c 2,7,-1
 150 293 l 2,8,9
 140 310 140 310 140 323 c 0,10,11
 140 346 140 346 168 361 c 2,12,-1
 870 731 l 1,13,-1
 168 1103 l 2,14,15
 140 1118 140 1118 140 1141 c 0,16,17
 140 1153 140 1153 150 1171 c 2,18,-1
 213 1283 l 2,19,20
 228 1310 228 1310 252 1310 c 0,21,22
 264 1310 264 1310 281 1301 c 2,23,-1
 1010 904 l 2,24,25
 1060 877 1060 877 1060 834 c 2,26,-1
 1060 733 l 2,0,1
EndSplineSet
Validated: 1
EndChar

StartChar: question
Encoding: 63 63 141
Width: 1191
Flags: W
HStem: -20 365<380.131 614.878> 1409 121<344.047 652.135>
VStem: 90 85<1027 1202.56> 318 360<42.5657 282.578> 424 155<400 485.378> 761 340<904.227 1260.76>
LayerCount: 2
Fore
SplineSet
498 -20 m 0,0,1
 422 -20 422 -20 370 34 c 128,-1,2
 318 88 318 88 318 162 c 0,3,4
 318 238 318 238 370 291 c 0,5,6
 423 345 423 345 498 345 c 128,-1,7
 573 345 573 345 625.5 291.5 c 128,-1,8
 678 238 678 238 678 163 c 128,-1,9
 678 88 678 88 625 34 c 128,-1,10
 572 -20 572 -20 498 -20 c 0,0,1
537 1530 m 0,11,12
 795 1530 795 1530 948 1396 c 128,-1,13
 1101 1262 1101 1262 1101 1078 c 0,14,15
 1101 942 1101 942 1053 857 c 0,16,17
 979 725 979 725 819 626 c 0,18,19
 579 475 579 475 579 435 c 0,20,21
 579 400 579 400 551 400 c 2,22,-1
 454 400 l 2,23,24
 424 400 424 400 424 429 c 0,25,26
 424 590 424 590 627 786 c 0,27,28
 760 915 760 915 761 1080 c 0,29,30
 761 1220 761 1220 709 1300 c 0,31,32
 639 1409 639 1409 518 1409 c 0,33,34
 224 1409 224 1409 175 1042 c 0,35,36
 173 1027 173 1027 160 1027 c 2,37,-1
 105 1027 l 2,38,39
 90 1027 90 1027 90 1042 c 2,40,-1
 90 1318 l 2,41,42
 90 1366 90 1366 124 1392 c 0,43,44
 304 1530 304 1530 537 1530 c 0,11,12
EndSplineSet
Validated: 1
EndChar

StartChar: exclam
Encoding: 33 33 142
Width: 692
Flags: W
HStem: -20 365<228.131 462.878> 1490 20G<196.5 495.5>
VStem: 166 360<42.5657 282.578 1357.38 1507.22>
LayerCount: 2
Fore
SplineSet
346 -20 m 0,0,1
 270 -20 270 -20 218 34 c 128,-1,2
 166 88 166 88 166 162 c 0,3,4
 166 238 166 238 218 291 c 0,5,6
 271 345 271 345 346 345 c 128,-1,7
 421 345 421 345 473.5 291.5 c 128,-1,8
 526 238 526 238 526 163 c 128,-1,9
 526 88 526 88 473 34 c 128,-1,10
 420 -20 420 -20 346 -20 c 0,0,1
236 1510 m 2,11,-1
 456 1510 l 2,12,13
 535 1510 535 1510 535 1431 c 1,14,-1
 457 479 l 2,15,16
 451 400 451 400 376 400 c 2,17,-1
 316 400 l 2,18,19
 241 400 241 400 235 479 c 2,20,-1
 157 1431 l 1,21,22
 157 1510 157 1510 236 1510 c 2,11,-1
EndSplineSet
Validated: 1
EndChar

StartChar: quotedbl
Encoding: 34 34 143
Width: 717
Flags: W
HStem: 1089 441<90.1675 276.833 440.167 626.833>
VStem: 51 616
LayerCount: 2
Fore
SplineSet
440 1530 m 2,0,1
 627 1530 l 2,2,3
 667 1530 667 1530 667 1489 c 0,4,5
 666 1480 l 2,6,-1
 627 1135 l 2,7,8
 622 1089 622 1089 571 1089 c 2,9,-1
 496 1089 l 2,10,11
 445 1089 445 1089 440 1135 c 2,12,-1
 401 1480 l 2,13,14
 400 1489 l 0,15,16
 400 1530 400 1530 440 1530 c 2,0,1
90 1530 m 2,17,-1
 277 1530 l 2,18,19
 317 1530 317 1530 317 1489 c 0,20,-1
 316 1480 l 2,21,-1
 277 1135 l 2,22,23
 272 1089 272 1089 221 1089 c 2,24,-1
 146 1089 l 2,25,26
 95 1089 95 1089 90 1135 c 2,27,-1
 51 1480 l 2,28,-1
 50 1489 l 0,29,30
 50 1530 50 1530 90 1530 c 2,17,-1
EndSplineSet
Validated: 1
EndChar

StartChar: numbersign
Encoding: 35 35 144
Width: 1254
Flags: W
HStem: 488 190<90 361 551 703 893 1164> 829 190<90 361 551 703 893 1164>
VStem: 361 190<216 488 678 829 1019 1289.99> 703 190<216.011 488 678 829 1019 1289.99>
LayerCount: 2
Fore
SplineSet
407 1290 m 2,0,-1
 507 1290 l 2,1,2
 551 1290 551 1290 551 1246 c 2,3,-1
 551 1019 l 1,4,-1
 703 1019 l 1,5,-1
 703 1246 l 2,6,7
 703 1290 703 1290 747 1290 c 2,8,-1
 847 1290 l 2,9,10
 893 1290 893 1290 893 1246 c 2,11,-1
 893 1019 l 1,12,-1
 1119 1019 l 2,13,14
 1164 1019 1164 1019 1164 974 c 2,15,-1
 1164 874 l 2,16,17
 1164 829 1164 829 1119 829 c 2,18,-1
 893 829 l 1,19,-1
 893 678 l 1,20,-1
 1119 678 l 2,21,22
 1164 678 1164 678 1164 633 c 2,23,-1
 1164 533 l 2,24,25
 1164 488 1164 488 1119 488 c 2,26,-1
 893 488 l 1,27,-1
 893 262 l 2,28,29
 893 216 893 216 847 216 c 2,30,-1
 747 216 l 2,31,32
 703 216 703 216 703 262 c 2,33,-1
 703 488 l 1,34,-1
 551 488 l 1,35,-1
 551 262 l 2,36,37
 551 216 551 216 507 216 c 2,38,-1
 405 216 l 2,39,40
 361 216 361 216 361 262 c 2,41,-1
 361 488 l 1,42,-1
 135 488 l 2,43,44
 90 488 90 488 90 533 c 2,45,-1
 90 634 l 2,46,47
 90 678 90 678 135 678 c 2,48,-1
 361 678 l 1,49,-1
 361 829 l 1,50,-1
 135 829 l 2,51,52
 90 829 90 829 90 874 c 2,53,-1
 90 975 l 2,54,55
 90 1019 90 1019 135 1019 c 2,56,-1
 361 1019 l 1,57,-1
 361 1246 l 2,58,59
 361 1290 361 1290 407 1290 c 2,0,-1
551 678 m 1,60,-1
 703 678 l 1,61,-1
 703 829 l 1,62,-1
 551 829 l 1,63,-1
 551 678 l 1,60,-1
EndSplineSet
Validated: 1
EndChar

StartChar: parenright
Encoding: 41 41 145
Width: 700
Flags: W
VStem: 260 300<414.57 1093.84>
LayerCount: 2
Fore
SplineSet
136 -250 m 2,0,1
 44 -250 l 2,2,3
 20 -250 20 -250 20 -234 c 0,4,5
 20 -228 20 -228 26 -216 c 0,6,7
 260 224 260 224 260 754 c 0,8,9
 260 1258 260 1258 26 1726 c 0,10,11
 20 1738 20 1738 20 1744 c 0,12,13
 20 1760 20 1760 44 1760 c 2,14,-1
 136 1760 l 2,15,16
 153 1760 153 1760 172 1738 c 0,17,18
 560 1279 560 1279 560 754 c 0,19,20
 560 221 560 221 172 -228 c 0,21,22
 153 -250 153 -250 136 -250 c 2,0,1
EndSplineSet
Validated: 1
EndChar

StartChar: quotesingle
Encoding: 39 39 146
Width: 367
Flags: W
HStem: 1089 441<90.1675 276.833>
VStem: 51 265<1471 1521>
LayerCount: 2
Fore
SplineSet
90 1530 m 2,0,1
 277 1530 l 2,2,3
 317 1530 317 1530 317 1489 c 0,4,5
 316 1480 l 2,6,-1
 277 1135 l 2,7,8
 272 1089 272 1089 221 1089 c 2,9,-1
 146 1089 l 2,10,11
 95 1089 95 1089 90 1135 c 2,12,-1
 51 1480 l 2,13,14
 50 1489 l 0,15,16
 50 1530 50 1530 90 1530 c 2,0,1
EndSplineSet
Validated: 1
EndChar

StartChar: dollar
Encoding: 36 36 147
Width: 1200
Flags: W
HStem: -20 120<289.227 542> 1396 128<672 785.593>
VStem: 40 85<298.465 483> 139 296<1099.36 1318.27> 542 130<-180 -20 159 637 1047 1385 1524.7 1690> 807 313<291.213 552.505> 908 83<1080 1248.22>
LayerCount: 2
Fore
SplineSet
542 -20 m 1,0,1
 255 -20 255 -20 74 118 c 0,2,3
 40 144 40 144 40 192 c 2,4,-1
 40 468 l 2,5,6
 40 483 40 483 55 483 c 2,7,-1
 110 483 l 2,8,9
 123 483 123 483 125 468 c 0,10,11
 174 100 174 100 455 100 c 0,12,13
 501 100 501 100 542 107 c 1,14,-1
 542 697 l 1,15,-1
 425 748 l 2,16,17
 299 803 299 803 230 882 c 0,18,19
 139 987 139 987 139 1136 c 0,20,21
 139 1221 139 1221 171 1293 c 0,22,23
 211 1383 211 1383 300 1450 c 0,24,25
 395 1520 395 1520 542 1529 c 1,26,-1
 542 1655 l 2,27,28
 542 1690 542 1690 577 1690 c 2,29,-1
 637 1690 l 2,30,31
 672 1690 672 1690 672 1655 c 2,32,-1
 672 1524 l 1,33,34
 829 1503 829 1503 957 1406 c 0,35,36
 991 1380 991 1380 991 1332 c 2,37,-1
 991 1095 l 2,38,39
 991 1080 991 1080 976 1080 c 2,40,-1
 923 1080 l 2,41,42
 910 1080 910 1080 908 1095 c 0,43,44
 872 1369 872 1369 672 1396 c 1,45,-1
 672 985 l 1,46,-1
 826 919 l 2,47,48
 976 855 976 855 1056 729 c 0,49,50
 1120 628 1120 628 1120 488 c 0,51,52
 1120 304 1120 304 981 155 c 0,53,54
 862 26 862 26 672 -8 c 1,55,-1
 672 -145 l 2,56,57
 672 -180 672 -180 637 -180 c 2,58,-1
 577 -180 l 2,59,60
 542 -180 542 -180 542 -145 c 2,61,-1
 542 -20 l 1,0,1
542 1047 m 1,62,-1
 542 1385 l 1,63,64
 507 1372 507 1372 482 1346 c 0,65,66
 435 1295 435 1295 435 1215 c 0,67,68
 435 1143 435 1143 489 1089 c 0,69,70
 511 1067 511 1067 542 1047 c 1,62,-1
672 637 m 1,71,-1
 672 159 l 1,72,73
 699 177 699 177 722 200 c 0,74,75
 807 286 807 286 807 402 c 0,76,77
 807 483 807 483 763 552 c 0,78,79
 733 601 733 601 672 637 c 1,71,-1
EndSplineSet
Validated: 1
EndChar

StartChar: percent
Encoding: 37 37 148
Width: 1786
Flags: W
HStem: -20 78<1266.52 1407.74> 645 77<1267.06 1408.28> 788 78<378.494 521.923> 1453 77<379.032 520.253>
VStem: 80 228<982.835 1338.15> 590 227<980.36 1336.22> 969 227<173.172 530.148> 1478 228<172.36 527.991>
DStem2: 369 129 593 0 0.512391 0.858752<-42.1899 1653.77>
LayerCount: 2
Fore
SplineSet
1338 645 m 128,-1,1
 1278 645 1278 645 1237 560.5 c 128,-1,2
 1196 476 1196 476 1196 351.5 c 128,-1,3
 1196 227 1196 227 1237 142.5 c 128,-1,4
 1278 58 1278 58 1338 58 c 128,-1,5
 1398 58 1398 58 1438 142.5 c 128,-1,6
 1478 227 1478 227 1478 352 c 128,-1,7
 1478 477 1478 477 1438 561 c 128,-1,0
 1398 645 1398 645 1338 645 c 128,-1,1
1337 -20 m 0,8,9
 1182 -20 1182 -20 1077 89 c 0,10,11
 969 199 969 199 969 352 c 0,12,13
 969 506 969 506 1077 613 c 0,14,15
 1185 722 1185 722 1337 722 c 0,16,17
 1492 722 1492 722 1598 613 c 0,18,19
 1706 502 1706 502 1706 350 c 0,20,21
 1706 196 1706 196 1598 89 c 0,22,23
 1489 -20 1489 -20 1337 -20 c 0,8,9
450 1453 m 128,-1,25
 390 1453 390 1453 349 1368.5 c 128,-1,26
 308 1284 308 1284 308 1159.5 c 128,-1,27
 308 1035 308 1035 349 950.5 c 128,-1,28
 390 866 390 866 450 866 c 128,-1,29
 510 866 510 866 550 950.5 c 128,-1,30
 590 1035 590 1035 590 1160 c 128,-1,31
 590 1285 590 1285 550 1369 c 128,-1,24
 510 1453 510 1453 450 1453 c 128,-1,25
449 1530 m 0,32,33
 604 1530 604 1530 709 1421 c 0,34,35
 817 1311 817 1311 817 1158 c 0,36,37
 817 1004 817 1004 709 897 c 0,38,39
 601 788 601 788 449 788 c 0,40,41
 294 788 294 788 188 897 c 0,42,43
 80 1008 80 1008 80 1160 c 0,44,45
 80 1314 80 1314 188 1421 c 0,46,47
 297 1530 297 1530 449 1530 c 0,32,33
1250 1550 m 0,48,49
 1269 1550 1269 1550 1292 1537 c 2,50,-1
 1390 1481 l 2,51,52
 1429 1459 1429 1459 1429 1423 c 0,53,54
 1429 1401 1429 1401 1417 1381 c 2,55,-1
 593 0 l 2,56,57
 569 -40 569 -40 538 -40 c 0,58,59
 516 -40 516 -40 493 -27 c 2,60,-1
 395 29 l 2,61,62
 356 51 356 51 356 87 c 0,63,64
 356 107 356 107 369 129 c 2,65,-1
 1193 1510 l 2,66,67
 1217 1550 1217 1550 1250 1550 c 0,48,49
EndSplineSet
Validated: 1
EndChar

StartChar: zero
Encoding: 48 48 149
Width: 1276
Flags: W
HStem: -20 119<544.653 734.31> 1411 119<544.226 734.31>
VStem: 60 329<442.426 1063.39> 891 325<435.252 1074.75>
LayerCount: 2
Fore
SplineSet
638 99 m 0,0,1
 740 99 740 99 807 262 c 0,2,3
 891 468 891 468 891 755 c 128,-1,4
 891 1042 891 1042 807 1248 c 0,5,6
 740 1411 740 1411 638 1411 c 0,7,8
 538 1411 538 1411 469 1248 c 0,9,10
 389 1060 389 1060 389 755 c 0,11,12
 389 453 389 453 469 262 c 0,13,14
 538 99 538 99 638 99 c 0,0,1
638 -20 m 0,15,16
 360 -20 360 -20 209 216 c 0,17,18
 60 449 60 449 60 754 c 0,19,20
 60 1057 60 1057 209 1294 c 0,21,22
 357 1530 357 1530 638 1530 c 0,23,24
 906 1530 906 1530 1067 1294 c 0,25,26
 1216 1075 1216 1075 1216 755 c 128,-1,27
 1216 435 1216 435 1067 216 c 0,28,29
 906 -20 906 -20 638 -20 c 0,15,16
EndSplineSet
Validated: 1
EndChar

StartChar: seven
Encoding: 55 55 150
Width: 1076
Flags: W
HStem: 0 21G<268 492.5> 1370 140<196.381 734>
DStem2: 248 97 561 83 0.354698 0.934981<-3.9055 1362.61>
LayerCount: 2
Fore
SplineSet
301 0 m 2,0,1
 235 0 235 0 235 43 c 0,2,3
 235 63 235 63 248 97 c 2,4,-1
 734 1370 l 1,5,-1
 357 1370 l 2,6,7
 188 1370 188 1370 100 1224 c 0,8,9
 94 1214 94 1214 87 1214 c 0,10,11
 84 1214 84 1214 80 1216 c 2,12,-1
 29 1244 l 2,13,14
 20 1249 20 1249 20 1256 c 0,15,16
 20 1260 20 1260 22 1263 c 2,17,-1
 132 1447 l 2,18,19
 170 1510 170 1510 239 1510 c 2,20,-1
 1021 1510 l 2,21,22
 1056 1510 1056 1510 1056 1476 c 2,23,-1
 1056 1401 l 2,24,25
 1056 1388 1056 1388 1050 1372 c 2,26,-1
 561 83 l 2,27,28
 530 0 530 0 455 0 c 2,29,-1
 301 0 l 2,0,1
EndSplineSet
Validated: 1
EndChar

StartChar: eight
Encoding: 56 56 151
Width: 1230
Flags: W
HStem: -20 120<506.674 722.249> 752 120<530.867 701.289> 1408 122<533.874 698.689>
VStem: 80 325<263.457 631.115> 167 303<939.648 1304.45> 761 302<939.947 1303.73> 825 325<265.115 629.697>
LayerCount: 2
Fore
SplineSet
616 1408 m 0,0,1
 561 1408 561 1408 519 1346 c 0,2,3
 470 1272 470 1272 470 1141 c 0,4,5
 470 1006 470 1006 519 932 c 0,6,7
 560 872 560 872 618 872 c 0,8,9
 671 872 671 872 710 928 c 0,10,11
 761 1006 761 1006 761 1141 c 0,12,13
 761 1274 761 1274 711 1347 c 0,14,15
 670 1408 670 1408 616 1408 c 0,0,1
616 752 m 0,16,17
 532 752 532 752 470 665 c 0,18,19
 405 573 405 573 405 429 c 0,20,21
 405 294 405 294 472 186 c 0,22,23
 526 100 526 100 616 100 c 0,24,25
 697 100 697 100 759 186 c 0,26,27
 825 277 825 277 825 427 c 0,28,29
 825 574 825 574 758 668 c 0,30,31
 698 752 698 752 616 752 c 0,16,17
615 -20 m 128,-1,33
 393 -20 393 -20 237 118 c 0,34,35
 80 257 80 257 80 465 c 0,36,37
 80 563 80 563 111 643 c 0,38,39
 150 746 150 746 238 816 c 0,40,41
 259 833 259 833 281 847 c 1,42,43
 167 955 167 955 167 1121 c 0,44,45
 167 1295 167 1295 298 1413 c 0,46,47
 428 1530 428 1530 614 1530 c 128,-1,48
 800 1530 800 1530 931 1413 c 0,49,50
 1063 1295 1063 1295 1063 1121 c 0,51,52
 1063 961 1063 961 948 848 c 1,53,54
 971 833 971 833 992 815 c 0,55,56
 1150 682 1150 682 1150 468 c 0,57,58
 1150 257 1150 257 993 118 c 0,59,32
 837 -20 837 -20 615 -20 c 128,-1,33
EndSplineSet
Validated: 1
EndChar

StartChar: nine
Encoding: 57 57 152
Width: 1232
Flags: W
HStem: 0 21G<294.5 549.5> 502 119<517.635 607> 1411 119<515.206 716.57>
VStem: 80 320<797.724 1230.06> 832 320<799.48 1232.8>
DStem2: 290 99 606 45 0.582291 0.81298<52.7686 512.217 615.659 981.089>
LayerCount: 2
Fore
SplineSet
328 0 m 2,0,1
 261 0 261 0 261 40 c 0,2,3
 261 62 261 62 290 99 c 2,4,-1
 607 502 l 1,5,6
 379 502 379 502 230 649 c 0,7,8
 80 797 80 797 80 1016 c 0,9,10
 80 1236 80 1236 236 1383 c 128,-1,11
 392 1530 392 1530 616 1530 c 0,12,13
 839 1530 839 1530 994 1386 c 0,14,15
 1152 1241 1152 1241 1152 1024 c 128,-1,16
 1152 807 1152 807 972 556 c 2,17,-1
 606 45 l 2,18,19
 574 0 574 0 525 0 c 2,20,-1
 328 0 l 2,0,1
616 1411 m 0,21,22
 533 1411 533 1411 470 1309 c 0,23,24
 400 1194 400 1194 400 1016 c 0,25,26
 400 839 400 839 471 724 c 0,27,28
 536 621 536 621 616 621 c 0,29,30
 695 621 695 621 761 723 c 0,31,32
 832 836 832 836 832 1019 c 0,33,34
 832 1192 832 1192 761 1311 c 0,35,36
 700 1411 700 1411 616 1411 c 0,21,22
EndSplineSet
Validated: 1
EndChar

StartChar: six
Encoding: 54 54 153
Width: 1232
Flags: W
HStem: -20 119<515.43 716.794> 889 119<625 714.365> 1490 20G<682.5 937.5>
VStem: 80 320<277.203 710.52> 832 320<279.94 712.276>
DStem2: 260 954 471 787 0.582291 0.81298<-171.718 141.774 256.437 715.886>
LayerCount: 2
Fore
SplineSet
616 -20 m 0,0,1
 393 -20 393 -20 238 124 c 0,2,3
 80 269 80 269 80 486 c 128,-1,4
 80 703 80 703 260 954 c 2,5,-1
 626 1465 l 2,6,7
 658 1510 658 1510 707 1510 c 2,8,-1
 904 1510 l 2,9,10
 971 1510 971 1510 971 1470 c 0,11,12
 971 1448 971 1448 942 1411 c 2,13,-1
 625 1008 l 1,14,15
 853 1008 853 1008 1002 861 c 0,16,17
 1152 713 1152 713 1152 494 c 0,18,19
 1152 274 1152 274 996 127 c 128,-1,20
 840 -20 840 -20 616 -20 c 0,0,1
616 99 m 0,21,22
 699 99 699 99 762 201 c 0,23,24
 832 316 832 316 832 494 c 0,25,26
 832 671 832 671 761 786 c 0,27,28
 696 889 696 889 616 889 c 0,29,30
 537 889 537 889 471 787 c 0,31,32
 400 674 400 674 400 491 c 0,33,34
 400 318 400 318 471 199 c 0,35,36
 532 99 532 99 616 99 c 0,21,22
EndSplineSet
Validated: 1
EndChar

StartChar: Oslash
Encoding: 216 216 154
Width: 1554
Flags: W
HStem: -20 120<636.542 916.515> 1410 120<637.656 917.458>
VStem: 60 349<467.212 1041.14> 1145 349<469.36 1042.79>
DStem2: 372 39 509 27 0.422418 0.906401<-19.1059 51.4092 298.859 1341.27 1589.56 1659.23>
LayerCount: 2
Fore
SplineSet
777 -20 m 0,0,1
 630 -20 630 -20 509 27 c 1,2,-1
 489 -16 l 2,3,4
 479 -38 479 -38 461 -38 c 0,5,6
 454 -38 454 -38 443 -33 c 2,7,-1
 388 -7 l 2,8,9
 367 3 367 3 367 20 c 0,10,11
 367 28 367 28 372 39 c 2,12,-1
 394 85 l 1,13,14
 316 136 316 136 251 211 c 0,15,16
 60 435 60 435 60 755 c 0,17,18
 60 1077 60 1077 251 1299 c 0,19,20
 450 1530 450 1530 777 1530 c 0,21,22
 924 1530 924 1530 1045 1484 c 1,23,-1
 1065 1526 l 2,24,25
 1075 1548 1075 1548 1093 1548 c 0,26,27
 1100 1548 1100 1548 1111 1543 c 2,28,-1
 1166 1517 l 2,29,30
 1187 1507 1187 1507 1187 1490 c 0,31,32
 1187 1482 1187 1482 1182 1471 c 2,33,-1
 1161 1425 l 1,34,35
 1239 1374 1239 1374 1303 1299 c 0,36,37
 1494 1075 1494 1075 1494 755 c 128,-1,38
 1494 435 1494 435 1303 211 c 0,39,40
 1105 -20 1105 -20 777 -20 c 0,0,1
778 100 m 0,41,42
 932 100 932 100 1033 270 c 0,43,44
 1145 460 1145 460 1145 755 c 0,45,46
 1145 1027 1145 1027 1056 1200 c 1,47,-1
 584 188 l 1,48,49
 669 100 669 100 778 100 c 0,41,42
498 310 m 1,50,-1
 970 1322 l 1,51,52
 885 1410 885 1410 776 1410 c 0,53,54
 622 1410 622 1410 521 1240 c 0,55,56
 409 1050 409 1050 409 755 c 0,57,58
 409 483 409 483 498 310 c 1,50,-1
EndSplineSet
Validated: 1
EndChar

StartChar: one
Encoding: 49 49 155
Width: 676
Flags: W
HStem: 0 21G<256 496> 1510 20G<508 526>
VStem: 216 320<4.9375 1132>
LayerCount: 2
Fore
SplineSet
216 1132 m 1,0,-1
 111 1054 l 2,1,2
 98 1044 98 1044 89 1044 c 0,3,4
 77 1044 77 1044 43.5 1088.5 c 128,-1,5
 10 1133 10 1133 10 1148 c 0,6,7
 10 1160 10 1160 26 1172 c 2,8,-1
 460 1500 l 2,9,10
 500 1530 500 1530 516 1530 c 0,11,12
 536 1530 536 1530 536 1501 c 2,13,-1
 536 79 l 2,14,15
 536 0 536 0 456 0 c 2,16,-1
 296 0 l 2,17,18
 216 0 216 0 216 79 c 2,19,-1
 216 1132 l 1,0,-1
EndSplineSet
Validated: 1
EndChar

StartChar: oslash
Encoding: 248 248 156
Width: 1226
Flags: W
HStem: -20 111<503.689 721.612> 1009 111<498.138 726.882>
VStem: 60 313<313.089 791.618> 853 313<313.007 792.218>
DStem2: 294 20 412 -35 0.422663 0.906287<-19.105 50.0038 279.165 951.158 1177.77 1249.43>
LayerCount: 2
Fore
SplineSet
613 -20 m 0,0,1
 514 -20 514 -20 431 5 c 1,2,-1
 412 -35 l 2,3,4
 402 -57 402 -57 384 -57 c 0,5,6
 375 -57 375 -57 365 -52 c 2,7,-1
 311 -26 l 2,8,9
 289 -15 289 -15 289 1 c 0,10,11
 289 9 289 9 294 20 c 2,12,-1
 312 59 l 1,13,14
 268 86 268 86 231 123 c 0,15,16
 60 292 60 292 60 550 c 0,17,18
 60 815 60 815 231 976 c 0,19,20
 386 1120 386 1120 613 1120 c 0,21,22
 710 1120 710 1120 795 1093 c 1,23,-1
 814 1135 l 2,24,25
 824 1157 824 1157 842 1157 c 0,26,27
 851 1157 851 1157 861 1152 c 2,28,-1
 915 1126 l 2,29,30
 937 1115 937 1115 937 1099 c 0,31,32
 937 1091 937 1091 932 1080 c 2,33,-1
 913 1039 l 1,34,35
 956 1012 956 1012 995 976 c 0,36,37
 1166 816 1166 816 1166 550 c 0,38,39
 1166 294 1166 294 995 124 c 0,40,41
 851 -20 851 -20 613 -20 c 0,0,1
613 91 m 0,42,43
 704 91 704 91 775 195 c 0,44,45
 853 313 853 313 853 550 c 0,46,47
 853 717 853 717 814 827 c 1,48,-1
 495 143 l 1,49,50
 549 91 549 91 613 91 c 0,42,43
412 273 m 1,51,-1
 732 960 l 1,52,53
 679 1009 679 1009 612 1009 c 0,54,55
 517 1009 517 1009 454 913 c 0,56,57
 373 791 373 791 373 550 c 0,58,59
 373 381 373 381 412 273 c 1,51,-1
EndSplineSet
Validated: 1
EndChar

StartChar: multiply
Encoding: 215 215 157
Width: 1006
Flags: W
DStem2: 124 552 301 376 0.706499 0.707715<-48.4567 286.164 536.479 871.17> 503 931 326 755 0.707715 -0.706499<-335.356 -0.921731 249.609 583.336>
LayerCount: 2
Fore
SplineSet
253 1156 m 0,0,1
 277 1156 277 1156 300 1133 c 2,2,-1
 503 931 l 1,3,-1
 705 1134 l 2,4,5
 728 1157 728 1157 752 1157 c 0,6,7
 775 1157 775 1157 797 1135 c 2,8,-1
 882 1050 l 2,9,10
 906 1026 906 1026 906 1003 c 0,11,12
 906 981 906 981 882 957 c 2,13,-1
 680 755 l 1,14,-1
 882 552 l 2,15,16
 905 529 905 529 905 506 c 128,-1,17
 905 483 905 483 882 460 c 2,18,-1
 797 376 l 2,19,20
 775 354 775 354 752 354 c 0,21,22
 728 354 728 354 705 377 c 2,23,-1
 503 578 l 1,24,-1
 301 376 l 2,25,26
 278 353 278 353 254 353 c 0,27,28
 232 353 232 353 209 375 c 2,29,-1
 122 460 l 2,30,31
 100 481 100 481 100 505 c 0,32,33
 100 528 100 528 124 552 c 2,34,-1
 326 755 l 1,35,-1
 123 958 l 2,36,37
 100 981 100 981 100 1004 c 128,-1,38
 100 1027 100 1027 123 1050 c 2,39,-1
 208 1134 l 2,40,41
 230 1156 230 1156 253 1156 c 0,0,1
EndSplineSet
Validated: 1
EndChar

StartChar: divide
Encoding: 247 247 158
Width: 1133
Flags: W
HStem: 155 365<448.131 682.878> 630 250<91.9202 1041.08> 990 365<448.131 682.878>
VStem: 386 360<217.566 457.578 1052.57 1292.58>
CounterMasks: 1 e0
LayerCount: 2
Fore
SplineSet
155 880 m 2,0,-1
 978 880 l 2,1,2
 1043 880 1043 880 1043 815 c 2,3,-1
 1043 695 l 2,4,5
 1043 630 1043 630 978 630 c 2,6,-1
 155 630 l 2,7,8
 90 630 90 630 90 695 c 2,9,-1
 90 815 l 2,10,11
 90 880 90 880 155 880 c 2,0,-1
566 1355 m 128,-1,13
 641 1355 641 1355 693.5 1301.5 c 128,-1,14
 746 1248 746 1248 746 1173 c 128,-1,15
 746 1098 746 1098 693 1044 c 128,-1,16
 640 990 640 990 566 990 c 0,17,18
 490 990 490 990 438 1044 c 128,-1,19
 386 1098 386 1098 386 1172 c 0,20,21
 386 1248 386 1248 438 1301 c 0,22,12
 491 1355 491 1355 566 1355 c 128,-1,13
566 155 m 0,23,24
 490 155 490 155 438 209 c 128,-1,25
 386 263 386 263 386 337 c 0,26,27
 386 413 386 413 438 466 c 0,28,29
 491 520 491 520 566 520 c 128,-1,30
 641 520 641 520 693.5 466.5 c 128,-1,31
 746 413 746 413 746 338 c 128,-1,32
 746 263 746 263 693 209 c 128,-1,33
 640 155 640 155 566 155 c 0,23,24
EndSplineSet
Validated: 1
EndChar

StartChar: cedilla
Encoding: 184 184 159
Width: 435
Flags: W
HStem: -430 138<50 159.152> -107 107<79 149.029>
VStem: 79 100<-46.3254 0> 187 198<-271.19 -127.332>
LayerCount: 2
Fore
SplineSet
79 0 m 1,0,-1
 179 0 l 1,1,-1
 179 -39 l 1,2,3
 269 -50 269 -50 311 -82 c 0,4,5
 385 -136 385 -136 385 -221 c 0,6,7
 385 -298 385 -298 326 -356 c 0,8,9
 251 -430 251 -430 85 -430 c 24,10,11
 50 -430 50 -430 50 -395 c 2,12,-1
 50 -327 l 2,13,14
 50 -292 50 -292 88 -292 c 0,15,16
 133 -292 133 -292 160 -265 c 0,17,18
 187 -237 187 -237 187 -197 c 0,19,20
 187 -156 187 -156 150 -129 c 0,21,22
 119 -107 119 -107 79 -107 c 1,23,-1
 79 0 l 1,0,-1
EndSplineSet
Validated: 1
EndChar

StartChar: ogonek
Encoding: 731 731 160
Width: 452
Flags: W
HStem: -430 186<250.305 402> -20 20G<133.5 315>
VStem: 50 188<-227.69 -85.0138>
LayerCount: 2
Fore
SplineSet
217 0 m 1,0,-1
 315 0 l 1,1,2
 238 -71 238 -71 238 -152 c 0,3,4
 238 -244 238 -244 364 -244 c 24,5,6
 402 -244 402 -244 402 -279 c 2,7,-1
 402 -395 l 2,8,9
 402 -430 402 -430 367 -430 c 0,10,11
 231 -429 231 -429 158 -390 c 0,12,13
 50 -332 50 -332 50 -203 c 128,-1,14
 50 -74 50 -74 217 0 c 1,0,-1
EndSplineSet
Validated: 1
EndChar

StartChar: ring
Encoding: 730 730 161
Width: 496
Flags: W
HStem: 1160 43<204.473 291.792> 1517 43<204.667 293.528>
VStem: 50 111<1233.8 1486.49> 335 111<1233.71 1486.49>
LayerCount: 2
Fore
SplineSet
249.5 1517 m 128,-1,1
 212 1517 212 1517 186.5 1470.5 c 128,-1,2
 161 1424 161 1424 161 1360 c 128,-1,3
 161 1296 161 1296 186.5 1249.5 c 128,-1,4
 212 1203 212 1203 248 1203 c 256,5,6
 286 1203 286 1203 312 1253 c 0,7,8
 335 1298 335 1298 335 1360 c 0,9,10
 335 1424 335 1424 311 1470.5 c 128,-1,0
 287 1517 287 1517 249.5 1517 c 128,-1,1
250 1560 m 0,11,12
 330 1560 330 1560 388 1502 c 0,13,14
 446 1442 446 1442 446 1361 c 0,15,16
 446 1277 446 1277 388 1219 c 0,17,18
 329 1160 329 1160 248 1160 c 256,19,20
 168 1160 168 1160 108 1219 c 0,21,22
 50 1277 50 1277 50 1361 c 0,23,24
 50 1442 50 1442 108 1502 c 0,25,26
 166 1560 166 1560 250 1560 c 0,11,12
EndSplineSet
Validated: 1
EndChar

StartChar: acute
Encoding: 180 180 162
Width: 482
Flags: W
HStem: 1139 391<168.003 218.234>
VStem: 50 382
LayerCount: 2
Fore
SplineSet
399 1530 m 2,0,1
 432 1530 432 1530 432 1509 c 0,2,3
 432 1500 432 1500 422 1485 c 2,4,-1
 215 1179 l 2,5,6
 188 1139 188 1139 149 1139 c 2,7,-1
 80 1139 l 2,8,9
 50 1139 50 1139 50 1162 c 0,10,11
 50 1172 50 1172 55 1185 c 2,12,-1
 168 1489 l 2,13,14
 183 1530 183 1530 228 1530 c 2,15,-1
 399 1530 l 2,0,1
EndSplineSet
Validated: 1
EndChar

StartChar: uni00AD
Encoding: 173 173 163
Width: 1133
Flags: W
HStem: 630 250<91.9202 1041.08>
LayerCount: 2
Fore
SplineSet
155 880 m 2,0,-1
 978 880 l 2,1,2
 1043 880 1043 880 1043 815 c 2,3,-1
 1043 695 l 2,4,5
 1043 630 1043 630 978 630 c 2,6,-1
 155 630 l 2,7,8
 90 630 90 630 90 695 c 2,9,-1
 90 815 l 2,10,11
 90 880 90 880 155 880 c 2,0,-1
EndSplineSet
Validated: 1
EndChar

StartChar: macron
Encoding: 175 175 164
Width: 680
Flags: W
HStem: 1230 161<50 630>
VStem: 50 580<1230 1391>
LayerCount: 2
Fore
SplineSet
90 1391 m 2,0,-1
 590 1391 l 2,1,2
 630 1391 630 1391 630 1351 c 2,3,-1
 630 1270 l 2,4,5
 630 1230 630 1230 590 1230 c 2,6,-1
 90 1230 l 2,7,8
 50 1230 50 1230 50 1270 c 2,9,-1
 50 1351 l 2,10,11
 50 1391 50 1391 90 1391 c 2,0,-1
EndSplineSet
Validated: 1
EndChar

StartChar: Eth
Encoding: 208 208 165
Width: 1497
Flags: W
HStem: 0 121<490 857.279> 0 80<20 159.365> 695 120<81 170 490 761> 1389 121<490 857.621> 1430 80<20 159.365>
VStem: 170 320<122.539 695 815 1387.46> 1088 349<485.833 1029.07>
LayerCount: 2
Fore
SplineSet
720 0 m 2,0,1
 35 0 l 2,2,3
 20 0 20 0 20 15 c 2,4,-1
 20 60 l 2,5,6
 20 80 20 80 35 80 c 2,7,-1
 80 80 l 2,8,9
 170 80 170 80 170 170 c 2,10,-1
 170 695 l 1,11,-1
 96 695 l 2,12,13
 81 695 81 695 81 710 c 2,14,-1
 81 800 l 2,15,16
 81 815 81 815 96 815 c 2,17,-1
 170 815 l 1,18,-1
 170 1340 l 2,19,20
 170 1430 170 1430 80 1430 c 2,21,-1
 35 1430 l 2,22,23
 20 1430 20 1430 20 1445 c 2,24,-1
 20 1495 l 2,25,26
 20 1510 20 1510 35 1510 c 2,27,-1
 720 1510 l 2,28,29
 1049 1510 1049 1510 1246 1279 c 0,30,31
 1437 1055 1437 1055 1437 765 c 0,32,33
 1437 455 1437 455 1246 231 c 0,34,35
 1048 0 1048 0 720 0 c 2,0,1
490 695 m 1,36,-1
 490 121 l 1,37,-1
 700 121 l 2,38,39
 876 121 876 121 976 290 c 0,40,41
 1088 480 1088 480 1088 755 c 0,42,43
 1088 1039 1088 1039 976 1220 c 0,44,45
 871 1389 871 1389 700 1389 c 2,46,-1
 490 1389 l 1,47,-1
 490 815 l 1,48,-1
 746 815 l 2,49,50
 761 815 761 815 761 800 c 2,51,-1
 761 710 l 2,52,53
 761 695 761 695 746 695 c 2,54,-1
 490 695 l 1,36,-1
EndSplineSet
Validated: 1
EndChar

StartChar: Dcroat
Encoding: 272 272 166
Width: 1497
Flags: W
HStem: 0 121<490 857.279> 0 80<20 159.365> 695 120<81 170 490 761> 1389 121<490 857.621> 1430 80<20 159.365>
VStem: 170 320<122.539 695 815 1387.46> 1088 349<485.833 1029.07>
LayerCount: 2
Fore
SplineSet
720 0 m 2,0,1
 35 0 l 2,2,3
 20 0 20 0 20 15 c 2,4,-1
 20 62 l 2,5,6
 20 80 20 80 35 80 c 2,7,-1
 80 80 l 2,8,9
 170 80 170 80 170 170 c 2,10,-1
 170 695 l 1,11,-1
 96 695 l 2,12,13
 81 695 81 695 81 710 c 2,14,-1
 81 800 l 2,15,16
 81 815 81 815 96 815 c 2,17,-1
 170 815 l 1,18,-1
 170 1340 l 2,19,20
 170 1430 170 1430 80 1430 c 2,21,-1
 35 1430 l 2,22,23
 20 1430 20 1430 20 1445 c 2,24,-1
 20 1495 l 2,25,26
 20 1510 20 1510 35 1510 c 2,27,-1
 720 1510 l 2,28,29
 1049 1510 1049 1510 1246 1279 c 0,30,31
 1437 1055 1437 1055 1437 765 c 0,32,33
 1437 455 1437 455 1246 231 c 0,34,35
 1048 0 1048 0 720 0 c 2,0,1
490 695 m 1,36,-1
 490 121 l 1,37,-1
 700 121 l 2,38,39
 876 121 876 121 976 290 c 0,40,41
 1088 480 1088 480 1088 755 c 0,42,43
 1088 1039 1088 1039 976 1220 c 0,44,45
 871 1389 871 1389 700 1389 c 2,46,-1
 490 1389 l 1,47,-1
 490 815 l 1,48,-1
 746 815 l 2,49,50
 761 815 761 815 761 800 c 2,51,-1
 761 710 l 2,52,53
 761 695 761 695 746 695 c 2,54,-1
 490 695 l 1,36,-1
EndSplineSet
Validated: 1
EndChar

StartChar: Hbar
Encoding: 294 294 167
Width: 1459
Flags: W
HStem: 0 80<20 159.365 1299.63 1439> 685 140<490 969> 1201 120<81 170 490 969 1289 1378> 1430 80<20 159.365 1299.63 1439>
VStem: 170 320<88.9014 685 825 1201 1321 1421.1> 969 320<88.9014 685 825 1201 1321 1421.1>
LayerCount: 2
Fore
SplineSet
350 0 m 2,0,1
 35 0 l 2,2,3
 20 0 20 0 20 15 c 2,4,-1
 20 65 l 2,5,6
 20 80 20 80 35 80 c 2,7,-1
 80 80 l 2,8,9
 170 80 170 80 170 170 c 2,10,-1
 170 1201 l 1,11,-1
 96 1201 l 2,12,13
 81 1201 81 1201 81 1216 c 2,14,-1
 81 1306 l 2,15,16
 81 1321 81 1321 96 1321 c 2,17,-1
 170 1321 l 1,18,-1
 170 1340 l 2,19,20
 170 1430 170 1430 80 1430 c 2,21,-1
 35 1430 l 2,22,23
 20 1430 20 1430 20 1445 c 2,24,-1
 20 1495 l 2,25,26
 20 1510 20 1510 35 1510 c 2,27,-1
 350 1510 l 2,28,29
 490 1510 490 1510 490 1370 c 2,30,-1
 490 1321 l 1,31,-1
 969 1321 l 1,32,-1
 969 1370 l 2,33,34
 969 1510 969 1510 1109 1510 c 2,35,-1
 1424 1510 l 2,36,37
 1439 1510 1439 1510 1439 1495 c 2,38,-1
 1439 1445 l 2,39,40
 1439 1430 1439 1430 1424 1430 c 2,41,-1
 1379 1430 l 2,42,43
 1289 1430 1289 1430 1289 1340 c 2,44,-1
 1289 1321 l 1,45,-1
 1363 1321 l 2,46,47
 1378 1321 1378 1321 1378 1306 c 2,48,-1
 1378 1216 l 2,49,50
 1378 1201 1378 1201 1363 1201 c 2,51,-1
 1289 1201 l 1,52,-1
 1289 170 l 2,53,54
 1289 80 1289 80 1379 80 c 2,55,-1
 1424 80 l 2,56,57
 1439 80 1439 80 1439 65 c 2,58,-1
 1439 15 l 2,59,60
 1439 0 1439 0 1424 0 c 2,61,-1
 1109 0 l 2,62,63
 969 0 969 0 969 140 c 2,64,-1
 969 685 l 1,65,-1
 490 685 l 1,66,-1
 490 140 l 2,67,68
 490 0 490 0 350 0 c 2,0,1
490 1201 m 1,69,-1
 490 825 l 1,70,-1
 969 825 l 1,71,-1
 969 1201 l 1,72,-1
 490 1201 l 1,69,-1
EndSplineSet
Validated: 1
EndChar

StartChar: IJ
Encoding: 306 306 168
Width: 1830
Flags: W
HStem: -20 120<850.813 1196.9> 0 21G<210 450> 1370 140<819.381 1340> 1430 80<20 159.365 1670.63 1810>
VStem: 170 320<4.9375 1421.1> 589 85<309.25 487> 1340 320<282.434 1368.28>
LayerCount: 2
Fore
SplineSet
1102 -20 m 0,0,1
 810 -20 810 -20 623 122 c 0,2,3
 589 148 589 148 589 196 c 2,4,-1
 589 472 l 2,5,6
 589 487 589 487 604 487 c 2,7,-1
 659 487 l 2,8,9
 672 487 672 487 674 472 c 0,10,11
 724 100 724 100 1031 100 c 0,12,13
 1187 100 1187 100 1267 212 c 0,14,15
 1340 314 1340 314 1340 528 c 2,16,-1
 1340 1370 l 1,17,-1
 980 1370 l 2,18,19
 811 1370 811 1370 723 1224 c 0,20,21
 717 1214 717 1214 710 1214 c 0,22,23
 707 1214 707 1214 703 1216 c 2,24,-1
 652 1244 l 2,25,26
 643 1249 643 1249 643 1256 c 0,27,28
 643 1260 643 1260 645 1263 c 2,29,-1
 755 1447 l 2,30,31
 793 1510 793 1510 862 1510 c 2,32,-1
 1795 1510 l 2,33,34
 1810 1510 1810 1510 1810 1495 c 2,35,-1
 1810 1445 l 2,36,37
 1810 1430 1810 1430 1795 1430 c 2,38,-1
 1750 1430 l 2,39,40
 1660 1430 1660 1430 1660 1340 c 2,41,-1
 1660 528 l 2,42,43
 1660 269 1660 269 1504 114 c 0,44,45
 1369 -20 1369 -20 1102 -20 c 0,0,1
410 0 m 2,46,-1
 250 0 l 2,47,48
 170 0 170 0 170 79 c 2,49,-1
 170 1340 l 2,50,51
 170 1430 170 1430 80 1430 c 2,52,-1
 35 1430 l 2,53,54
 20 1430 20 1430 20 1445 c 2,55,-1
 20 1495 l 2,56,57
 20 1510 20 1510 35 1510 c 2,58,-1
 350 1510 l 2,59,60
 490 1510 490 1510 490 1370 c 2,61,-1
 490 79 l 2,62,63
 490 0 490 0 410 0 c 2,46,-1
EndSplineSet
Validated: 1
EndChar

StartChar: Lslash
Encoding: 321 321 169
Width: 1241
Flags: W
HStem: 0 140<490 1054.62> 0 80<20 159.365> 1430 80<20 159.365>
VStem: 170 320<141.721 395 565 715 885 1421.1>
DStem2: 64 459 149 374 0.707107 0.707107<-11.2022 29.6985 602.455 841.346>
LayerCount: 2
Fore
SplineSet
1012 0 m 2,0,-1
 35 0 l 2,1,2
 20 0 20 0 20 15 c 2,3,-1
 20 65 l 2,4,5
 20 80 20 80 35 80 c 2,6,-1
 80 80 l 2,7,8
 170 80 170 80 170 170 c 2,9,-1
 170 395 l 1,10,-1
 149 374 l 2,11,12
 143 368 143 368 138 368 c 128,-1,13
 133 368 133 368 128 374 c 2,14,-1
 64 438 l 2,15,16
 58 444 58 444 58 449 c 128,-1,17
 58 454 58 454 64 459 c 2,18,-1
 170 565 l 1,19,-1
 170 1340 l 2,20,21
 170 1430 170 1430 80 1430 c 2,22,-1
 35 1430 l 2,23,24
 20 1430 20 1430 20 1445 c 2,25,-1
 20 1495 l 2,26,27
 20 1510 20 1510 35 1510 c 2,28,-1
 350 1510 l 2,29,30
 490 1510 490 1510 490 1370 c 2,31,-1
 490 885 l 1,32,-1
 651 1046 l 2,33,34
 657 1052 657 1052 662 1052 c 128,-1,35
 667 1052 667 1052 672 1046 c 2,36,-1
 736 982 l 2,37,38
 742 976 742 976 742 971 c 128,-1,39
 742 966 742 966 736 961 c 2,40,-1
 490 715 l 1,41,-1
 490 140 l 1,42,-1
 894 140 l 2,43,44
 1063 140 1063 140 1151 286 c 0,45,46
 1157 296 1157 296 1164 296 c 0,47,48
 1167 296 1167 296 1171 294 c 2,49,-1
 1222 266 l 2,50,51
 1231 261 1231 261 1231 254 c 0,52,53
 1231 250 1231 250 1229 247 c 2,54,-1
 1119 63 l 2,55,56
 1081 0 1081 0 1012 0 c 2,0,-1
EndSplineSet
Validated: 1
EndChar

StartChar: Tbar
Encoding: 358 358 170
Width: 1454
Flags: W
HStem: 0 21G<607 847> 570 120<397 567 887 1057> 1370 140<186.381 567 887 1267.62>
VStem: 567 320<4.9375 570 690 1370>
LayerCount: 2
Fore
SplineSet
647 0 m 2,0,1
 567 0 567 0 567 79 c 2,2,-1
 567 570 l 1,3,-1
 412 570 l 2,4,5
 397 570 397 570 397 585 c 2,6,-1
 397 675 l 2,7,8
 397 690 397 690 412 690 c 2,9,-1
 567 690 l 1,10,-1
 567 1370 l 1,11,-1
 347 1370 l 2,12,13
 178 1370 178 1370 90 1224 c 0,14,15
 84 1214 84 1214 77 1214 c 0,16,17
 74 1214 74 1214 70 1216 c 2,18,-1
 19 1244 l 2,19,20
 10 1249 10 1249 10 1256 c 0,21,22
 10 1260 10 1260 12 1263 c 2,23,-1
 122 1447 l 2,24,25
 160 1510 160 1510 229 1510 c 2,26,-1
 1225 1510 l 2,27,28
 1294 1510 1294 1510 1332 1447 c 2,29,-1
 1442 1263 l 2,30,31
 1444 1260 1444 1260 1444 1256 c 0,32,33
 1444 1249 1444 1249 1435 1244 c 2,34,-1
 1384 1216 l 2,35,36
 1380 1214 1380 1214 1377 1214 c 0,37,38
 1370 1214 1370 1214 1364 1224 c 0,39,40
 1276 1370 1276 1370 1107 1370 c 2,41,-1
 887 1370 l 1,42,-1
 887 690 l 1,43,-1
 1042 690 l 2,44,45
 1057 690 1057 690 1057 675 c 2,46,-1
 1057 585 l 2,47,48
 1057 570 1057 570 1042 570 c 2,49,-1
 887 570 l 1,50,-1
 887 79 l 2,51,52
 887 0 887 0 807 0 c 2,53,-1
 647 0 l 2,0,1
EndSplineSet
Validated: 1
EndChar

StartChar: dcroat
Encoding: 273 273 171
Width: 1272
Flags: W
HStem: -20 111<505.243 710.858> 0 80<1112.63 1252> 1009 111<498.806 712.413> 1201 120<538 802 1102 1198> 1430 80<652 791.365>
VStem: 60 313<313.776 792.118> 802 300<191.775 912.991 1020 1201 1321 1421.1>
LayerCount: 2
Fore
SplineSet
613 91 m 0,0,1
 691 91 691 91 760 195 c 0,2,3
 787 235 787 235 802 305 c 1,4,-1
 802 795 l 1,5,6
 786 870 786 870 757 913 c 0,7,8
 693 1009 693 1009 612 1009 c 0,9,10
 517 1009 517 1009 454 913 c 0,11,12
 373 791 373 791 373 550 c 0,13,14
 373 308 373 308 451 195 c 0,15,16
 523 91 523 91 613 91 c 0,0,1
942 0 m 2,17,18
 832 0 832 0 808 87 c 1,19,20
 732 -20 732 -20 583 -20 c 0,21,22
 377 -20 377 -20 231 123 c 0,23,24
 60 292 60 292 60 550 c 0,25,26
 60 817 60 817 231 976 c 0,27,28
 386 1120 386 1120 583 1120 c 0,29,30
 724 1120 724 1120 802 1020 c 1,31,-1
 802 1201 l 1,32,-1
 553 1201 l 2,33,34
 538 1201 538 1201 538 1216 c 2,35,-1
 538 1306 l 2,36,37
 538 1321 538 1321 553 1321 c 2,38,-1
 802 1321 l 1,39,-1
 802 1340 l 2,40,41
 802 1430 802 1430 712 1430 c 2,42,-1
 667 1430 l 2,43,44
 652 1430 652 1430 652 1445 c 2,45,-1
 652 1495 l 2,46,47
 652 1510 652 1510 667 1510 c 2,48,-1
 962 1510 l 2,49,50
 1102 1510 1102 1510 1102 1370 c 2,51,-1
 1102 1321 l 1,52,-1
 1183 1321 l 2,53,54
 1198 1321 1198 1321 1198 1306 c 2,55,-1
 1198 1216 l 2,56,57
 1198 1201 1198 1201 1183 1201 c 2,58,-1
 1102 1201 l 1,59,-1
 1102 170 l 2,60,61
 1102 80 1102 80 1192 80 c 2,62,-1
 1237 80 l 2,63,64
 1252 80 1252 80 1252 65 c 2,65,-1
 1252 15 l 2,66,67
 1252 0 1252 0 1237 0 c 2,68,-1
 942 0 l 2,17,18
EndSplineSet
Validated: 1
EndChar

StartChar: hbar
Encoding: 295 295 172
Width: 1348
Flags: W
HStem: 0 80<1188.63 1328> 951 169<701.506 939.5> 1201 120<81 170 470 741> 1430 80<20 159.365>
VStem: 170 300<6.24902 439.85 574 1201 1321 1418.9> 878 300<88.9014 901.552>
LayerCount: 2
Fore
SplineSet
250 0 m 2,0,1
 170 0 170 0 170 79 c 2,2,-1
 170 1201 l 1,3,-1
 96 1201 l 2,4,5
 81 1201 81 1201 81 1216 c 2,6,-1
 81 1306 l 2,7,8
 81 1321 81 1321 96 1321 c 2,9,-1
 170 1321 l 1,10,-1
 170 1340 l 2,11,12
 170 1430 170 1430 80 1430 c 2,13,-1
 35 1430 l 2,14,15
 20 1430 20 1430 20 1445 c 2,16,-1
 20 1495 l 2,17,18
 20 1510 20 1510 35 1510 c 2,19,-1
 330 1510 l 2,20,21
 470 1510 470 1510 470 1372 c 2,22,-1
 470 1321 l 1,23,-1
 726 1321 l 2,24,25
 741 1321 741 1321 741 1306 c 2,26,-1
 741 1216 l 2,27,28
 741 1201 741 1201 726 1201 c 2,29,-1
 470 1201 l 5,30,-1
 470 574 l 1,31,32
 531 1120 531 1120 868 1120 c 0,33,34
 1011 1120 1011 1120 1092 1036 c 0,35,36
 1178 947 1178 947 1178 770 c 2,37,-1
 1178 170 l 2,38,39
 1178 80 1178 80 1268 80 c 2,40,-1
 1313 80 l 2,41,42
 1328 80 1328 80 1328 65 c 2,43,-1
 1328 15 l 2,44,45
 1328 0 1328 0 1313 0 c 2,46,-1
 1018 0 l 2,47,48
 878 0 878 0 878 140 c 2,49,-1
 878 770 l 2,50,51
 878 857 878 857 855 903 c 0,52,53
 831 951 831 951 777 951 c 0,54,55
 548 951 548 951 470 79 c 0,56,57
 463 0 463 0 390 0 c 2,58,-1
 250 0 l 2,0,1
EndSplineSet
Validated: 1
EndChar

StartChar: ij
Encoding: 307 307 173
Width: 1280
Flags: W
HStem: -410 21G<690 920> 0 80<480.635 620> 1020 80<20 159.365 670 809.365> 1180 364<182.131 416.338 832.131 1066.34>
VStem: 120 360<1244.3 1481.73> 170 300<88.9014 1011.1> 770 360<1244.3 1481.73> 820 300<-47.9688 1011.1>
LayerCount: 2
Fore
SplineSet
950 1544 m 0,0,1
 1026 1544 1026 1544 1078 1491 c 128,-1,2
 1130 1438 1130 1438 1130 1363 c 0,3,4
 1130 1289 1130 1289 1077 1234 c 0,5,6
 1025 1180 1025 1180 950 1180 c 0,7,8
 873 1180 873 1180 821.5 1234 c 128,-1,9
 770 1288 770 1288 770 1362 c 0,10,11
 770 1438 770 1438 822 1490 c 0,12,13
 875 1544 875 1544 950 1544 c 0,0,1
1120 200 m 2,14,15
 1120 -220 1120 -220 720 -410 c 1,16,-1
 690 -410 l 1,17,18
 820 -146 820 -146 820 200 c 2,19,-1
 820 930 l 2,20,21
 820 1020 820 1020 730 1020 c 2,22,-1
 685 1020 l 2,23,24
 670 1020 670 1020 670 1035 c 2,25,-1
 670 1085 l 2,26,27
 670 1100 670 1100 685 1100 c 2,28,-1
 980 1100 l 2,29,30
 1120 1100 1120 1100 1120 960 c 2,31,-1
 1120 200 l 2,14,15
300 1544 m 0,32,33
 376 1544 376 1544 428 1491 c 128,-1,34
 480 1438 480 1438 480 1363 c 0,35,36
 480 1289 480 1289 427 1234 c 0,37,38
 375 1180 375 1180 300 1180 c 0,39,40
 223 1180 223 1180 171.5 1234 c 128,-1,41
 120 1288 120 1288 120 1362 c 0,42,43
 120 1438 120 1438 172 1490 c 0,44,45
 225 1544 225 1544 300 1544 c 0,32,33
310 0 m 2,46,47
 170 0 170 0 170 140 c 2,48,-1
 170 930 l 2,49,50
 170 1020 170 1020 80 1020 c 2,51,-1
 35 1020 l 2,52,53
 20 1020 20 1020 20 1035 c 2,54,-1
 20 1085 l 2,55,56
 20 1100 20 1100 35 1100 c 2,57,-1
 330 1100 l 2,58,59
 470 1100 470 1100 470 960 c 2,60,-1
 470 170 l 2,61,62
 470 80 470 80 560 80 c 2,63,-1
 605 80 l 2,64,65
 620 80 620 80 620 65 c 2,66,-1
 620 15 l 2,67,68
 620 0 620 0 605 0 c 2,69,-1
 310 0 l 2,46,47
EndSplineSet
Validated: 1
EndChar

StartChar: kgreenlandic
Encoding: 312 312 174
Width: 1167
Flags: W
HStem: 0 80<1027 1147> 1020 80<20 159.365 998.49 1116>
VStem: 170 300<4.9375 156 386 1011.1>
DStem2: 470 386 580 329 0.538568 0.842582<0 11.2153 329.661 859.497> 752 597 580 329 0.49946 -0.866337<146.271 546.378>
LayerCount: 2
Fore
SplineSet
250 0 m 2,0,1
 170 0 170 0 170 79 c 2,2,-1
 170 930 l 2,3,4
 170 1020 170 1020 80 1020 c 2,5,-1
 35 1020 l 2,6,7
 20 1020 20 1020 20 1035 c 2,8,-1
 20 1085 l 2,9,10
 20 1100 20 1100 35 1100 c 2,11,-1
 330 1100 l 2,12,13
 470 1100 470 1100 470 960 c 2,14,-1
 470 386 l 1,15,-1
 882 1033 l 2,16,17
 925 1100 925 1100 1006 1100 c 2,18,-1
 1101 1100 l 2,19,20
 1116 1100 1116 1100 1116 1085 c 2,21,-1
 1116 1035 l 2,22,23
 1116 1020 1116 1020 1101 1020 c 2,24,-1
 1056 1020 l 2,25,26
 1022 1020 1022 1020 1005 993 c 2,27,-1
 752 597 l 1,28,-1
 1027 120 l 2,29,30
 1050 80 1050 80 1087 80 c 2,31,-1
 1132 80 l 2,32,33
 1147 80 1147 80 1147 65 c 2,34,-1
 1147 15 l 2,35,36
 1147 0 1147 0 1132 0 c 2,37,-1
 855 0 l 2,38,39
 770 0 770 0 727 74 c 2,40,-1
 580 329 l 1,41,-1
 470 156 l 1,42,-1
 470 79 l 2,43,44
 470 0 470 0 390 0 c 2,45,-1
 250 0 l 2,0,1
EndSplineSet
Validated: 1
EndChar

StartChar: lslash
Encoding: 322 322 175
Width: 724
Flags: W
HStem: 0 80<522.635 662> 1430 80<62 201.365>
VStem: 212 300<88.9014 475 645 775 945 1421.1>
DStem2: 26 459 111 374 0.707107 0.707107<-11.2022 142.836 687.308 841.346>
LayerCount: 2
Fore
SplineSet
352 0 m 2,0,1
 212 0 212 0 212 140 c 2,2,-1
 212 475 l 1,3,-1
 111 374 l 2,4,5
 105 368 105 368 100 368 c 128,-1,6
 95 368 95 368 90 374 c 2,7,-1
 26 438 l 2,8,9
 20 444 20 444 20 449 c 128,-1,10
 20 454 20 454 26 459 c 2,11,-1
 212 645 l 1,12,-1
 212 1340 l 2,13,14
 212 1430 212 1430 122 1430 c 2,15,-1
 77 1430 l 2,16,17
 62 1430 62 1430 62 1445 c 2,18,-1
 62 1495 l 2,19,20
 62 1510 62 1510 77 1510 c 2,21,-1
 372 1510 l 2,22,23
 512 1510 512 1510 512 1370 c 2,24,-1
 512 945 l 1,25,-1
 613 1046 l 2,26,27
 619 1052 619 1052 624 1052 c 128,-1,28
 629 1052 629 1052 634 1046 c 2,29,-1
 698 982 l 2,30,31
 704 976 704 976 704 971 c 128,-1,32
 704 966 704 966 698 961 c 2,33,-1
 512 775 l 1,34,-1
 512 170 l 2,35,36
 512 80 512 80 602 80 c 2,37,-1
 647 80 l 2,38,39
 662 80 662 80 662 65 c 2,40,-1
 662 15 l 2,41,42
 662 0 662 0 647 0 c 2,43,-1
 352 0 l 2,0,1
EndSplineSet
Validated: 1
EndChar

StartChar: tbar
Encoding: 359 359 176
Width: 780
Flags: W
HStem: 0 80<540.635 680> 570 120<60 230 530 720> 980 120<20 230 530 760> 1430 80<80 219.365>
VStem: 230 300<88.9014 570 690 980 1100 1421.1>
LayerCount: 2
Fore
SplineSet
370 0 m 2,0,1
 230 0 230 0 230 140 c 2,2,-1
 230 570 l 1,3,-1
 75 570 l 2,4,5
 60 570 60 570 60 585 c 2,6,-1
 60 675 l 2,7,8
 60 690 60 690 75 690 c 2,9,-1
 230 690 l 1,10,-1
 230 980 l 1,11,-1
 35 980 l 2,12,13
 20 980 20 980 20 995 c 2,14,-1
 20 1085 l 2,15,16
 20 1100 20 1100 35 1100 c 2,17,-1
 230 1100 l 1,18,-1
 230 1340 l 2,19,20
 230 1430 230 1430 140 1430 c 2,21,-1
 95 1430 l 2,22,23
 80 1430 80 1430 80 1445 c 2,24,-1
 80 1495 l 2,25,26
 80 1510 80 1510 95 1510 c 2,27,-1
 390 1510 l 2,28,29
 530 1510 530 1510 530 1370 c 2,30,-1
 530 1100 l 1,31,-1
 745 1100 l 2,32,33
 760 1100 760 1100 760 1085 c 2,34,-1
 760 995 l 2,35,36
 760 980 760 980 745 980 c 2,37,-1
 530 980 l 1,38,-1
 530 690 l 1,39,-1
 705 690 l 2,40,41
 720 690 720 690 720 675 c 2,42,-1
 720 585 l 2,43,44
 720 570 720 570 705 570 c 2,45,-1
 530 570 l 1,46,-1
 530 170 l 2,47,48
 530 80 530 80 620 80 c 2,49,-1
 665 80 l 2,50,51
 680 80 680 80 680 65 c 2,52,-1
 680 15 l 2,53,54
 680 0 680 0 665 0 c 2,55,-1
 370 0 l 2,0,1
EndSplineSet
Validated: 1
EndChar

StartChar: thorn
Encoding: 254 254 177
Width: 1272
Flags: W
HStem: -410 21G<210 430> -20 111<559.587 773.194> 1009 111<561.596 766.757> 1430 80<20 159.365>
VStem: 170 300<-405.062 80 187.009 908.225 1020 1421.1> 899 313<307.882 786.224>
LayerCount: 2
Fore
SplineSet
689 -20 m 0,0,1
 548 -20 548 -20 470 80 c 1,2,-1
 470 -331 l 2,3,4
 470 -410 470 -410 390 -410 c 2,5,-1
 250 -410 l 2,6,7
 170 -410 170 -410 170 -331 c 2,8,-1
 170 1340 l 2,9,10
 170 1430 170 1430 80 1430 c 2,11,-1
 35 1430 l 2,12,13
 20 1430 20 1430 20 1445 c 2,14,-1
 20 1495 l 2,15,16
 20 1510 20 1510 35 1510 c 2,17,-1
 330 1510 l 2,18,19
 470 1510 470 1510 470 1370 c 2,20,-1
 470 1020 l 17,21,22
 539 1120 539 1120 689 1120 c 0,23,24
 895 1120 895 1120 1041 977 c 0,25,26
 1212 808 1212 808 1212 550 c 0,27,28
 1212 283 1212 283 1041 124 c 0,29,30
 886 -20 886 -20 689 -20 c 0,0,1
659 1009 m 0,31,32
 581 1009 581 1009 512 905 c 0,33,34
 485 865 485 865 470 795 c 1,35,-1
 470 305 l 1,36,37
 486 230 486 230 515 187 c 0,38,39
 579 91 579 91 660 91 c 0,40,41
 755 91 755 91 818 187 c 0,42,43
 899 309 899 309 899 550 c 0,44,45
 899 792 899 792 821 905 c 0,46,47
 749 1009 749 1009 659 1009 c 0,31,32
EndSplineSet
Validated: 1
EndChar

StartChar: Thorn
Encoding: 222 222 178
Width: 1258
Flags: W
HStem: 0 21G<210 450> 274 121<490 719.107> 1115 121<490 717.679> 1430 80<20 159.365>
VStem: 170 320<4.9375 274 395 1115 1236 1421.1> 868 330<557.405 952.937>
LayerCount: 2
Fore
SplineSet
250 0 m 2,0,1
 170 0 170 0 170 79 c 2,2,-1
 170 1340 l 2,3,4
 170 1430 170 1430 80 1430 c 2,5,-1
 35 1430 l 2,6,7
 20 1430 20 1430 20 1445 c 2,8,-1
 20 1495 l 2,9,10
 20 1510 20 1510 35 1510 c 2,11,-1
 350 1510 l 2,12,13
 490 1510 490 1510 490 1370 c 2,14,15
 490 1236 l 17,16,-1
 713 1236 l 2,17,18
 937 1236 937 1236 1075 1087 c 0,19,20
 1198 955 1198 955 1198 755 c 128,-1,21
 1198 555 1198 555 1075 423 c 0,22,23
 937 274 937 274 713 274 c 2,24,-1
 490 274 l 1,25,-1
 490 79 l 2,26,27
 490 0 490 0 410 0 c 2,28,-1
 250 0 l 2,0,1
490 1115 m 1,29,-1
 490 395 l 1,30,-1
 533 395 l 2,31,32
 718 395 718 395 797 511 c 0,33,34
 868 615 868 615 868 755 c 0,35,36
 868 897 868 897 797 999 c 0,37,38
 715 1115 715 1115 533 1115 c 2,39,-1
 490 1115 l 1,29,-1
EndSplineSet
Validated: 1
EndChar

StartChar: uni1E9E
Encoding: 7838 7838 179
Width: 1320
Flags: W
HStem: 0 121<557 762.475> 1389 121<490 761.883> 1430 80<20 159.365>
VStem: 170 320<4.9375 1387.46> 930 330<280.796 616.134>
DStem2: 573 924 743 922 0.67764 0.735394<113.728 451.2>
LayerCount: 2
Fore
SplineSet
250 0 m 2,0,1
 170 0 170 0 170 79 c 2,2,-1
 170 1340 l 2,3,4
 170 1430 170 1430 80 1430 c 2,5,-1
 35 1430 l 2,6,7
 20 1430 20 1430 20 1445 c 2,8,-1
 20 1495 l 2,9,10
 20 1510 20 1510 35 1510 c 2,11,-1
 755 1510 l 2,12,13
 976 1510 976 1510 1101 1360 c 0,14,15
 1111 1348 1111 1348 1111 1336 c 0,16,17
 1111 1321 1111 1321 1095 1304 c 2,18,-1
 743 922 l 1,19,20
 950 922 950 922 1094 811 c 0,21,22
 1260 682 1260 682 1260 463 c 0,23,24
 1260 264 1260 264 1132 137 c 0,25,26
 995 0 995 0 755 0 c 2,27,-1
 572 0 l 2,28,29
 557 0 557 0 557 15 c 2,30,-1
 557 106 l 2,31,32
 557 121 557 121 572 121 c 24,33,34
 741 121 741 121 840 221 c 0,35,36
 930 313 930 313 930 450 c 0,37,38
 930 584 930 584 840 676 c 0,39,40
 741 776 741 776 572 776 c 24,41,42
 557 776 557 776 557 791 c 2,43,-1
 557 882 l 2,44,45
 557 906 557 906 573 924 c 2,46,-1
 860 1248 l 2,47,48
 868 1257 868 1257 868 1266 c 0,49,50
 868 1276 868 1276 857 1286 c 0,51,52
 738 1389 738 1389 545 1389 c 2,53,-1
 490 1389 l 1,54,-1
 490 79 l 2,55,56
 490 0 490 0 410 0 c 2,57,-1
 250 0 l 2,0,1
EndSplineSet
Validated: 1
EndChar

StartChar: longs
Encoding: 383 383 180
Width: 995
Flags: W
HStem: 0 21G<210 430> 710 120<20 170> 1420 110<564.911 806.844>
VStem: 170 300<4.9375 710 830 1314.79> 892 83<1146 1318.83>
LayerCount: 2
Fore
SplineSet
250 0 m 2,0,1
 170 0 170 0 170 79 c 2,2,-1
 170 710 l 1,3,-1
 35 710 l 2,4,5
 20 710 20 710 20 725 c 2,6,-1
 20 815 l 2,7,8
 20 830 20 830 35 830 c 2,9,-1
 170 830 l 1,10,-1
 170 1130 l 2,11,12
 170 1312 170 1312 300 1431 c 0,13,14
 408 1530 408 1530 617 1530 c 0,15,16
 817 1530 817 1530 951 1429 c 0,17,18
 975 1411 975 1411 975 1377 c 2,19,-1
 975 1161 l 2,20,21
 975 1146 975 1146 964 1146 c 2,22,-1
 907 1146 l 2,23,24
 894 1146 894 1146 892 1161 c 0,25,26
 864 1420 864 1420 692 1420 c 0,27,28
 592 1420 592 1420 534 1346 c 0,29,30
 470 1265 470 1265 470 1070 c 2,31,-1
 470 79 l 2,32,33
 470 0 470 0 390 0 c 2,34,-1
 250 0 l 2,0,1
EndSplineSet
Validated: 1
EndChar

